<?xml version="1.0" standalone="no"?>
<!DOCTYPE svg PUBLIC "-//W3C//DTD SVG 1.1//EN" "http://www.w3.org/Graphics/SVG/1.1/DTD/svg11.dtd" >
<svg>
<metadata>
Created by FontForge 20090914 at Wed Aug 25 20:53:47 2021
 By www-data
Copyright (c) 2010-2013, Sorkin Type Co (www.sorkintype.com) with Reserved Font Name 'Merriweather'
</metadata>
<defs>
<font id="Merriweather-Light" horiz-adv-x="0" >
  <font-face 
    font-family="Merriweather Light"
    font-weight="300"
    font-stretch="normal"
    units-per-em="2048"
    panose-1="2 6 5 3 5 4 6 3 7 4"
    ascent="1638"
    descent="-410"
    x-height="1135"
    cap-height="1522"
    bbox="-255 -560.003 2840 2014"
    underline-thickness="96"
    underline-position="-74"
    unicode-range="U+0009-U+FEFF"
  />
<missing-glyph horiz-adv-x="1770" 
d="M177 1416h1416v-1416h-1416v1416zM559 252l324 353l337 -353l113 113l-348 343l348 334l-119 116l-328 -351l-333 352l-114 -116l344 -338l-343 -318z" />
    <glyph glyph-name=".notdef" horiz-adv-x="1770" 
d="M177 1416h1416v-1416h-1416v1416zM559 252l324 353l337 -353l113 113l-348 343l348 334l-119 116l-328 -351l-333 352l-114 -116l344 -338l-343 -318z" />
    <glyph glyph-name="HT" unicode="&#x9;" 
 />
    <glyph glyph-name="LF" unicode="&#xa;" 
 />
    <glyph glyph-name="nonmarkingreturn" unicode="&#xd;" 
 />
    <glyph glyph-name="DLE" 
 />
    <glyph glyph-name="DC1" 
 />
    <glyph glyph-name="DC2" 
 />
    <glyph glyph-name="DC3" 
 />
    <glyph glyph-name="DC4" 
 />
    <glyph glyph-name="RS" 
 />
    <glyph glyph-name="US" 
 />
    <glyph glyph-name="space" unicode=" " horiz-adv-x="670" 
 />
    <glyph glyph-name="exclam" unicode="!" horiz-adv-x="728" 
d="M266 1780h169l-36 -1324h-92zM244 82c0 16.667 3.66699 32.501 11 47.501s17 28 29 39s25.5 19.667 40.5 26s30.167 9.5 45.5 9.5c37.333 0 64.333 -10.5 81 -31.5s25 -45.5 25 -73.5c0 -18 -3.5 -34.5 -10.5 -49.5s-16.333 -27.833 -28 -38.5s-25 -18.834 -40 -24.501
s-30.5 -8.5 -46.5 -8.5c-14 0 -27.5 2.33301 -40.5 7s-24.333 11.5 -34 20.5s-17.5 20 -23.5 33s-9 27.5 -9 43.5z" />
    <glyph glyph-name="quotedbl" unicode="&#x22;" horiz-adv-x="1263" 
d="M806 1684h163l-34 -718h-96zM295 1684h163l-34 -718h-96z" />
    <glyph glyph-name="numbersign" unicode="#" horiz-adv-x="1523" 
d="M403 365h-227v93h239l43 474h-248v93h257l30 348h122l-30 -348h389l31 348h122l-31 -348h247v-93h-256l-41 -474h253v-93h-264l-32 -365h-122l31 365h-391l-33 -365h-124zM923 458l46 474h-388l-45 -474h387z" />
    <glyph glyph-name="dollar" unicode="$" horiz-adv-x="1370" 
d="M225 412l91.002 0.00488281l38 -258c32 -24.667 75.167 -44.667 129.5 -60s117.166 -23 188.499 -23c110 0 194.5 23.333 253.5 70s88.5 117.667 88.5 213c0 46 -11.333 86.167 -34 120.5s-52.667 65.666 -90 93.999s-79.666 54.833 -126.999 79.5l-146 76
c-59.333 31.333 -112.333 62.166 -159 92.499s-86.5 63.166 -119.5 98.499s-58.167 74.833 -75.5 118.5s-26 94.5 -26 152.5c0 52.667 10.667 99.5 32 140.5s50.166 76 86.499 105s78.5 52.167 126.5 69.5s98.667 28.666 152 33.999v227h120v-226c40.667 -2 78 -6 112 -12
s64.667 -12.833 92 -20.5s51.166 -15.334 71.499 -23.001l50.5 -19.5l-10 -325h-87l-45 247c-23.333 17.333 -54.833 32.333 -94.5 45s-90.167 19 -151.5 19c-42 0 -82.167 -4.5 -120.5 -13.5s-72 -23.167 -101 -42.5s-52.167 -44.833 -69.5 -76.5s-26 -70.167 -26 -115.5
c0 -46.667 9.5 -86.834 28.5 -120.501s43.833 -63.667 74.5 -90s65.667 -50.166 105 -71.499l119 -65l187 -106.5c56 -31.667 104 -65 144 -100s70.833 -73.667 92.5 -116s32.5 -93.5 32.5 -153.5c0 -56 -10 -107.333 -30 -154s-49 -87.167 -87 -121.5s-84 -62 -138 -83
s-115 -33.833 -183 -38.5l-2 -237h-120l2 237c-43.333 2.66699 -85.5 7.66699 -126.5 15s-78.667 15.5 -113 24.5s-64.5 18.167 -90.5 27.5s-45.667 17 -59 23z" />
    <glyph glyph-name="percent" unicode="%" horiz-adv-x="2084" 
d="M1310 1538h122l-656 -1538h-122zM471 665c-54 0 -102.67 10.834 -146.003 32.501s-80.166 51.167 -110.499 88.5s-53.666 80.666 -69.999 129.999s-24.5 101.666 -24.5 156.999c0 68 10.5 128.333 31.5 181s49.333 97 85 133s76.667 63.333 123 82s94.833 28 145.5 28
c60.667 0 113.167 -10.667 157.5 -32s80.833 -50.666 109.5 -87.999s50 -81 64 -131s21 -103.667 21 -161c0 -68 -10.833 -128 -32.5 -180s-50.5 -95.833 -86.5 -131.5s-77.167 -62.667 -123.5 -81s-94.166 -27.5 -143.499 -27.5zM481.997 757.001
c34.667 0 66.3379 7.16895 95.0049 21.502s53.5 35.166 74.5 62.499s37.333 60.833 49 100.5s17.5 85.167 17.5 136.5c0 48.667 -4.83301 93 -14.5 133s-23.834 74.333 -42.501 103s-41.834 51 -69.501 67s-59.834 24 -96.501 24c-35.333 0 -67.333 -7.33301 -96 -22
s-53.5 -35.834 -74.5 -63.501s-37.167 -61.667 -48.5 -102s-17 -85.833 -17 -136.5c0 -45.333 5 -87.833 15 -127.5s24.667 -74 44 -103s42.666 -51.833 69.999 -68.5s58.666 -25 93.999 -25zM1227 459.003c0 68 10.4971 128.334 31.4971 181.001s49.333 97 85 133
s76.667 63.333 123 82s94.833 28 145.5 28c60.667 0 113.167 -10.667 157.5 -32s80.833 -50.666 109.5 -87.999s50 -81 64 -131s21 -103.667 21 -161c0 -68 -10.833 -128 -32.5 -180s-50.5 -95.833 -86.5 -131.5s-77.167 -62.667 -123.5 -81s-94.166 -27.5 -143.499 -27.5
c-54 0 -102.667 10.833 -146 32.5s-80.166 51.167 -110.499 88.5s-53.666 80.666 -69.999 129.999s-24.5 101.666 -24.5 156.999zM1366 467.004c0 -45.333 5.00391 -87.834 15.0039 -127.501s24.667 -74 44 -103s42.666 -51.833 69.999 -68.5s58.666 -25 93.999 -25
c34.667 0 66.334 7.16699 95.001 21.5s53.5 35.166 74.5 62.499s37.333 60.833 49 100.5s17.5 85.167 17.5 136.5c0 48.667 -4.83301 93 -14.5 133s-23.834 74.333 -42.501 103s-41.834 50.834 -69.501 66.501s-59.834 23.5 -96.501 23.5
c-35.333 0 -67.333 -7.33301 -96 -22s-53.5 -35.667 -74.5 -63s-37.167 -61.166 -48.5 -101.499s-17 -85.833 -17 -136.5z" />
    <glyph glyph-name="ampersand" unicode="&#x26;" horiz-adv-x="1537" 
d="M143 371c0 46.667 9.83496 88.999 29.502 126.999s44.667 72.833 75 104.5s64 60.334 101 86.001s73.167 49.5 108.5 71.5c-24 30 -47 62.5 -69 97.5s-41.5 71.333 -58.5 109s-30.5 76 -40.5 115s-15 77.5 -15 115.5c0 45.333 9.5 88.666 28.5 129.999
s45.5 77.666 79.5 108.999s74.167 56.333 120.5 75s96.833 28 151.5 28c58 0 108.667 -8.5 152 -25.5s79.166 -38.667 107.499 -65s49.5 -56 63.5 -89s21 -65.5 21 -97.5c0 -43.333 -5 -82.5 -15 -117.5s-23.5 -67 -40.5 -96s-37.167 -55.667 -60.5 -80
s-48.333 -47.666 -75 -69.999s-54.334 -44.166 -83.001 -65.499l-86 -66l86 -101.5l103.5 -116l104.5 -112.5l89 -92l64 -62c24.667 30 45 63.5 61 100.5s28.333 74.667 37 113s14 76.166 16 113.499s1 71.666 -3 102.999l-165 19v91h467v-91l-181 -19
c1.33301 -48.667 -1.5 -96.667 -8.5 -144s-17.5 -92.5 -31.5 -135.5s-31.5 -83 -52.5 -120s-44.833 -69.5 -71.5 -97.5c23.333 -22 45.5 -41.667 66.5 -59s42.167 -32.166 63.5 -44.499s43.666 -21.833 66.999 -28.5s49.333 -10.667 78 -12v-66
c-6 -3.33301 -14 -6.16602 -24 -8.49902s-20.667 -4.16602 -32 -5.49902s-22.333 -2.33301 -33 -3s-19.667 -1 -27 -1c-23.333 0 -45.166 3 -65.499 9s-40.833 14.667 -61.5 26s-41.834 25.666 -63.501 42.999s-44.834 37 -69.501 59c-30 -27.333 -62.167 -50 -96.5 -68
s-68.666 -32.5 -102.999 -43.5s-67.666 -18.667 -99.999 -23s-61.5 -6.5 -87.5 -6.5c-78 0 -149 8.5 -213 25.5s-118.833 41.833 -164.5 74.5s-81.167 73.167 -106.5 121.5s-38 103.5 -38 165.5zM584.002 830.999l123.001 98.5039c35.333 29.667 64.666 60 87.999 91
s40.833 64.667 52.5 101s17.5 79.5 17.5 129.5c0 20.667 -3 43.167 -9 67.5s-17 47.166 -33 68.499s-38 39.166 -66 53.499s-64 21.5 -108 21.5c-32.667 0 -63.167 -6.83301 -91.5 -20.5s-53 -32.167 -74 -55.5s-37.5 -50.5 -49.5 -81.5s-18 -63.833 -18 -98.5
c0 -42.667 5.5 -82.334 16.5 -119.001s24.667 -70.5 41 -101.5s34.333 -59.333 54 -85s38.5 -48.834 56.5 -69.501zM289.003 384.003c0 -42 8.00293 -81.5 24.0029 -118.5s39.833 -69.333 71.5 -97s71.334 -49.5 119.001 -65.5s103.167 -24 166.5 -24
c26 0 52.833 2.33301 80.5 7s55.167 11.5 82.5 20.5s53.666 20.333 78.999 34s48.666 29.5 69.999 47.5c-34 32 -72 69.833 -114 113.5l-127 135.5l-124.5 138l-106.5 122c-27.333 -20 -54.333 -41.167 -81 -63.5s-50.334 -46.333 -71.001 -72
s-37.334 -53.167 -50.001 -82.5s-19 -61 -19 -95z" />
    <glyph glyph-name="quotesingle" unicode="'" horiz-adv-x="752" 
d="M295 1684h163l-34 -718h-96z" />
    <glyph glyph-name="parenleft" unicode="(" horiz-adv-x="862" 
d="M153 684c0 96.667 9.66895 187.331 29.002 271.998s44.166 162.667 74.499 234s64.166 135.666 101.499 192.999s74.166 107 110.499 149s70 76.333 101 103s55.5 45 73.5 55l68 -41c-14 -9.33301 -33.833 -26 -59.5 -50s-53.334 -55.167 -83.001 -93.5
s-60 -83.666 -91 -135.999s-59.333 -111.5 -85 -177.5s-47 -138.667 -64 -218s-26.5 -165 -28.5 -257c-2 -104.667 4.83301 -201.5 20.5 -290.5s36.5 -170 62.5 -243s55.167 -138.333 87.5 -196s64.333 -107.667 96 -150s61.167 -76.666 88.5 -102.999
s49 -45.166 65 -56.499l-77 -48c-15.333 9.33301 -38.166 26.166 -68.499 50.499s-63.666 56.833 -99.999 97.5s-73.5 89.834 -111.5 147.501s-72.5 124 -103.5 199s-56.5 159 -76.5 252s-30 195.5 -30 307.5z" />
    <glyph glyph-name="parenright" unicode=")" horiz-adv-x="862" 
d="M709 636c0 -96.667 -9.66895 -187.331 -29.002 -271.998s-44.166 -162.667 -74.499 -234s-64.166 -135.666 -101.499 -192.999s-74.166 -107 -110.499 -149s-70 -76.333 -101 -103s-55.5 -45 -73.5 -55l-68 41c14 9.33301 33.833 26 59.5 50s53.334 55.167 83.001 93.5
s60 83.666 91 135.999s59.333 111.5 85 177.5s47 138.667 64 218s26.5 165 28.5 257c2 104.667 -4.83301 201.5 -20.5 290.5s-36.5 170 -62.5 243s-55.167 138.333 -87.5 196s-64.333 107.667 -96 150s-61.167 76.666 -88.5 102.999s-49 45.166 -65 56.499l77 48
c15.333 -9.33301 38.166 -26.166 68.499 -50.499s63.666 -56.833 99.999 -97.5s73.5 -89.834 111.5 -147.501s72.5 -124 103.5 -199s56.5 -159 76.5 -252s30 -195.5 30 -307.5z" />
    <glyph glyph-name="asterisk" unicode="*" horiz-adv-x="1294" 
d="M597 950l30 174l-130 -117l-250 -172l-73 125l271 136l165 59l-165 56l-273 131l71 126l250 -170l135 -112l-34 172l-25 302h146l-20 -301l-31 -172l131 115l251 172l72 -124l-269 -135l-166 -60l166 -56l273 -129l-74 -129l-247 170l-137 112l34 -173l27 -302l-147 -1z
" />
    <glyph glyph-name="plus" unicode="+" horiz-adv-x="1353" 
d="M220 671h225l177 -10l-5 185v228h119v-228l-7 -185l153 10h251v-119h-251l-153 5l7 -182v-240h-119v240l5 182l-177 -5h-225v119z" />
    <glyph glyph-name="comma" unicode="," horiz-adv-x="685" 
d="M259 190c0 29.333 8.83398 51.3301 26.501 65.9971s38.5 22 62.5 22h8c38 0 67.667 -21.5 89 -64.5s32 -103.833 32 -182.5c0 -60 -6 -115.167 -18 -165.5s-27.667 -95.166 -47 -134.499s-41.166 -72.833 -65.499 -100.5s-48.833 -48.5 -73.5 -62.5h-2l-47 32v17
c11.333 10 24.333 23.167 39 39.5s28.5 36.5 41.5 60.5s24 52.167 33 84.5s13.5 69.5 13.5 111.5c0 26.667 -2.33301 49.5 -7 68.5s-10.334 35.5 -17.001 49.5s-14 26.333 -22 37s-15.333 21.834 -22 33.501s-12.334 24.334 -17.001 38.001s-7 30.5 -7 50.5z" />
    <glyph glyph-name="hyphen" unicode="-" horiz-adv-x="1345" 
d="M230 672h885v-112h-885v112z" />
    <glyph glyph-name="period" unicode="." horiz-adv-x="706" 
d="M242 85c0 17.333 3.33203 33.5 9.99902 48.5s15.667 28.167 27 39.5s24 20.333 38 27s28.667 10 44 10c18 0 33.333 -3 46 -9s23 -13.833 31 -23.5s13.833 -21 17.5 -34s5.5 -26.5 5.5 -40.5c0 -18.667 -3.33301 -35.667 -10 -51s-15.5 -28.5 -26.5 -39.5
s-23.667 -19.5 -38 -25.5s-29.166 -9 -44.499 -9c-28 0 -51.667 9.66699 -71 29s-29 45.333 -29 78z" />
    <glyph glyph-name="slash" unicode="/" horiz-adv-x="882" 
d="M658 1599h139l-573 -1962h-139z" />
    <glyph glyph-name="zero" unicode="0" horiz-adv-x="1300" 
d="M641 -16c-63.333 0 -119.999 8.83203 -169.999 26.499s-93.833 42.167 -131.5 73.5s-69.5 68.5 -95.5 111.5s-47.167 89.5 -63.5 139.5s-28 102.5 -35 157.5s-10.167 110.5 -9.5 166.5c1.33301 94.667 16.333 180.834 45 258.501s67 144.167 115 199.5
s103.833 98.333 167.5 129s131.167 46 202.5 46c65.333 0 123 -8 173 -24s93.5 -38.333 130.5 -67s68 -63.167 93 -103.5s45.167 -84.5 60.5 -132.5s26.166 -99.333 32.499 -154s9.16602 -111 8.49902 -169c-0.666992 -92.667 -14.167 -179 -40.5 -259
s-62.666 -149.5 -108.999 -208.5s-101.333 -105.5 -165 -139.5s-133.167 -51 -208.5 -51zM648.001 69.999c63.333 0 117.67 13.832 163.003 41.499s82.5 66.5 111.5 116.5s50.333 109.667 64 179s20.5 145.333 20.5 228c0 76.667 -5.66699 149.667 -17 219
s-30.5 130 -57.5 182s-63 93.333 -108 124s-101.167 46 -168.5 46c-62.667 0 -116.834 -13.167 -162.501 -39.5s-83.334 -63.166 -113.001 -110.499s-51.667 -104.333 -66 -171s-21.5 -140 -21.5 -220c0 -48.667 2.66699 -97 8 -145s13.833 -94.167 25.5 -138.5
s26.667 -85.5 45 -123.5s40.666 -70.833 66.999 -98.5s56.833 -49.5 91.5 -65.5s74 -24 118 -24z" />
    <glyph glyph-name="one" unicode="1" horiz-adv-x="875" 
d="M135 82l269.996 13.999v1017c-13.333 -6.66699 -32.166 -14.5 -56.499 -23.5s-50.833 -17.833 -79.5 -26.5s-57.834 -16.5 -87.501 -23.5s-56.5 -12.167 -80.5 -15.5l-20 86c34.667 8 69.334 18.333 104.001 31s68.334 27.334 101.001 44.001s63.834 34.5 93.501 53.5
s56.834 38.833 81.501 59.5h1l87 -19v-1183l248 -14v-82h-662v82z" />
    <glyph glyph-name="two" unicode="2" horiz-adv-x="1216" 
d="M109 63c64 34.667 126.668 73.501 188.001 116.501s119.333 88.333 174 136s105 97 151 148s85.833 102.167 119.5 153.5s59.834 102 78.501 152s28 98 28 144c0 39.333 -6 75.833 -18 109.5s-30 62.667 -54 87s-54 43.5 -90 57.5s-78 21 -126 21
c-47.333 0 -90.833 -6 -130.5 -18s-75.5 -26.833 -107.5 -44.5s-60.333 -36.834 -85 -57.501s-45.334 -39.667 -62.001 -57l-54 73c20.667 22.667 46.667 46.5 78 71.5s67 48.167 107 69.5s84.167 39 132.5 53s99.833 21 154.5 21c73.333 0 136.5 -10.667 189.5 -32
s96.667 -49.5 131 -84.5s59.666 -75 75.999 -120s24.5 -90.833 24.5 -137.5c0 -50 -9 -100.667 -27 -152s-43.167 -102.333 -75.5 -153s-70.5 -100.667 -114.5 -150s-92 -96.833 -144 -142.5s-107 -89.167 -165 -130.5s-117 -79.333 -177 -114l686 40l64 188l82 -18
l-48 -293h-963l-23 63v0z" />
    <glyph glyph-name="three" unicode="3" horiz-adv-x="1136" 
d="M138 -231c10 -2.66699 21.3271 -5 33.9941 -7s25.334 -3.5 38.001 -4.5s25 -1.66699 37 -2s22.333 -0.5 31 -0.5c94 0 177 11.5 249 34.5s132.5 53.667 181.5 92s86.167 82.5 111.5 132.5s38 102 38 156c0 48 -7.5 91.333 -22.5 130s-38.333 71.5 -70 98.5
s-71.667 47.833 -120 62.5s-105.833 22 -172.5 22c-4.66699 -2 -13.667 -4.83301 -27 -8.5l-42.5 -11.5l-42 -11c-13 -3.33301 -21.833 -5.33301 -26.5 -6l-26 91c27.333 4 54.5 9.83301 81.5 17.5s53.5 16.834 79.5 27.501c43.333 18 84.333 39.667 123 65
s72.5 53.5 101.5 84.5s52 64.333 69 100s25.5 72.834 25.5 111.501c0.666992 46 -6.33301 85 -21 117s-34.5 57.667 -59.5 77s-54.167 33.333 -87.5 42s-68.333 13 -105 13c-32.667 0 -65.167 -3.33301 -97.5 -10s-63.166 -15.667 -92.499 -27s-56.833 -24.333 -82.5 -39
s-48.5 -30.334 -68.5 -47.001l-42 67c15.333 14.667 37 31.5 65 50.5s60.333 37 97 54s77 31.167 121 42.5s89.667 17 137 17c54.667 0 106 -6 154 -18s90 -31.333 126 -58s64.5 -60.834 85.5 -102.501s31.5 -91.834 31.5 -150.501c0 -50 -11.5 -98 -34.5 -144
s-52.833 -88.167 -89.5 -126.5s-78 -71.833 -124 -100.5s-92 -51 -138 -67c71.333 6.66699 135.333 2 192 -14s104.834 -39.667 144.501 -71s70 -68.666 91 -111.999s31.833 -89.333 32.5 -138c0.666992 -77.333 -16.166 -148.333 -50.499 -213
s-83.166 -120.5 -146.499 -167.5s-139.666 -83.667 -228.999 -110s-188.333 -39.5 -297 -39.5c-23.333 0 -50 1.33301 -80 4s-57.667 6.66699 -83 12v85v0z" />
    <glyph glyph-name="four" unicode="4" horiz-adv-x="1293" 
d="M93 73l103.5 200l111 223.5l114 235l112 235l104 222.5l90.5 199h46l101 -54l-578 -1136l-76 -116l600 27v422l128 11v-427l306 14v-129h-306v-376h-128v376h-690l-38 73v0z" />
    <glyph glyph-name="five" unicode="5" horiz-adv-x="1190" 
d="M201 -267c19.333 -2.66699 40.002 -4.50391 62.002 -5.50391s42.333 -1.5 61 -1.5c77.333 0 149.833 12.667 217.5 38s126.5 60.5 176.5 105.5s89.5 98 118.5 159s43.5 127.167 43.5 198.5c0 66.667 -7.83301 123.167 -23.5 169.5s-37.834 84 -66.501 113
s-63.334 50.167 -104.001 63.5s-85.667 20 -135 20c-23.333 0 -48.666 -2 -75.999 -6s-55 -9.5 -83 -16.5s-55 -15 -81 -24s-49.333 -18.5 -70 -28.5l-43 32l102 728h549l20 39h110l-29 -162h-539l-99 -543c14 9.33301 32.5 18.666 55.5 27.999s48.833 17.5 77.5 24.5
s58.834 12.667 90.501 17s63.5 6.5 95.5 6.5c60 0 115.333 -8.66699 166 -26s94.167 -44 130.5 -80s64.666 -81.667 84.999 -137s30.5 -121 30.5 -197c0 -47.333 -7.16699 -95.166 -21.5 -143.499s-35.5 -94.666 -63.5 -138.999s-62.167 -85.666 -102.5 -123.999
s-86.333 -71.666 -138 -99.999s-109 -50.666 -172 -66.999s-130.5 -24.5 -202.5 -24.5c-22.667 0 -46.334 1 -71.001 3s-48.667 5.66699 -72 11l1 69v0z" />
    <glyph glyph-name="six" unicode="6" horiz-adv-x="1350" 
d="M171 592c0 89.333 11.1729 174.666 33.5059 255.999s53 157.5 92 228.5s85.167 136.333 138.5 196s110.666 112.334 171.999 158.001s125.666 83.667 192.999 114s134.666 52.166 201.999 65.499l37 -70c-89.333 -27.333 -171.333 -64.666 -246 -111.999
s-141 -101.833 -199 -163.5s-106.833 -128.834 -146.5 -201.501s-68.834 -148 -87.501 -226c15.333 20.667 35.166 41.334 59.499 62.001s52.5 39.167 84.5 55.5s67.833 29.5 107.5 39.5s83.167 15 130.5 15c74.667 0 140 -11.167 196 -33.5s102.333 -54.166 139 -95.499
s64.167 -91.333 82.5 -150s27.5 -124.334 27.5 -197.001c0 -72 -11.167 -141.333 -33.5 -208s-55 -125.667 -98 -177s-95.833 -92.333 -158.5 -123s-134.334 -46 -215.001 -46c-83.333 0 -156.833 16.5 -220.5 49.5s-117 77.5 -160 133.5s-75.5 121 -97.5 195
s-33 152.333 -33 235zM693.006 63c58 0 108.168 13.1689 150.501 39.502s77.333 60.166 105 101.499s48 87.666 61 138.999s19.5 102 19.5 152c0 76 -8 140.333 -24 193s-38.167 95.167 -66.5 127.5s-62 55.833 -101 70.5s-81.833 22 -128.5 22
c-49.333 0 -94.833 -6.83301 -136.5 -20.5s-78.334 -30.5 -110.001 -50.5s-58.167 -41.667 -79.5 -65s-36 -44.333 -44 -63c-2 -17.333 -3 -34.333 -3 -51c-1.33301 -48.667 0 -97 4 -145s11.167 -94 21.5 -138s24.5 -85 42.5 -123s40.5 -71 67.5 -99s58.667 -50 95 -66
s78.5 -24 126.5 -24z" />
    <glyph glyph-name="seven" unicode="7" horiz-adv-x="1195" 
d="M351 -302l148.5 347l149 368l148.5 376l147 371l-677 -5l-68 -263l-87 19l39 367h897l32 -40l-569 -1584l-160 44v0z" />
    <glyph glyph-name="eight" unicode="8" horiz-adv-x="1278" 
d="M147 385c0 40 6.66895 79.4971 20.002 118.497s33.5 76.5 60.5 112.5s61.167 70 102.5 102s90.333 61 147 87c-36 21.333 -70 44.5 -102 69.5s-60 53 -84 84s-43 65.5 -57 103.5s-21 80.667 -21 128c0 62 12.667 116.667 38 164s58.666 86.833 99.999 118.5
s88.5 55.667 141.5 72s107.167 24.5 162.5 24.5c60 0 115.667 -7.83301 167 -23.5s96 -38 134 -67s67.833 -64.5 89.5 -106.5s32.5 -89 32.5 -141c0 -42 -6.83301 -83 -20.5 -123s-33.167 -78 -58.5 -114s-55.833 -69.833 -91.5 -101.5s-75.167 -60.167 -118.5 -85.5
c45.333 -24 89.166 -49.333 131.499 -76s79.666 -56.167 111.999 -88.5s58.166 -68.166 77.499 -107.499s29 -84 29 -134c0 -64 -14.5 -121.667 -43.5 -173s-67 -95.166 -114 -131.499s-100.333 -64.166 -160 -83.499s-120.167 -29 -181.5 -29
c-57.333 0 -115.166 7.33301 -173.499 22s-111.166 38 -158.499 70s-86 73.5 -116 124.5s-45 112.5 -45 184.5zM702.002 852.997c35.333 16.667 67.999 36.832 97.999 60.499s56 49.667 78 78s39.333 59 52 92s19 67.5 19 103.5c0 48 -7.5 90.667 -22.5 128
s-35.833 68.833 -62.5 94.5s-58.5 45.334 -95.5 59.001s-77.5 20.5 -121.5 20.5c-41.333 0 -80.666 -6 -117.999 -18s-70 -29.5 -98 -52.5s-50.167 -51 -66.5 -84s-24.5 -70.167 -24.5 -111.5c0 -44 10.167 -83.5 30.5 -118.5s47.333 -67.167 81 -96.5
s72.167 -56.5 115.5 -81.5s88.333 -49.5 135 -73.5zM290.001 417.995c0 -55.333 9.00195 -104.498 27.002 -147.498s43 -79.5 75 -109.5s70.5 -52.833 115.5 -68.5s94.5 -23.5 148.5 -23.5c40.667 0 81 7.16699 121 21.5s76 34.666 108 60.999s57.833 57.833 77.5 94.5
s29.5 77.667 29.5 123c0 33.333 -5.83301 63.666 -17.5 90.999s-27.834 52.5 -48.501 75.5s-44.834 44.333 -72.501 64s-57.667 38.334 -90 56.001s-66 35 -101 52l-104.5 52.5c-37.333 -16.667 -72.333 -36.834 -105 -60.501s-61 -50.167 -85 -79.5s-43 -61 -57 -95
s-21 -69.667 -21 -107z" />
    <glyph glyph-name="nine" unicode="9" horiz-adv-x="1350" 
d="M369 -275c88.667 28.667 168.826 67.3369 240.493 116.004s134.5 104.667 188.5 168s98.833 132.666 134.5 207.999s61.834 153.666 78.501 234.999c-16 -22.667 -36.333 -44.834 -61 -66.501s-52.667 -41.167 -84 -58.5s-65.333 -31.333 -102 -42s-75 -16 -115 -16
c-75.333 0 -142.166 11.667 -200.499 35s-107.666 56.666 -147.999 99.999s-71 95.333 -92 156s-31.5 128.667 -31.5 204c0 70 11.667 137.167 35 201.5s57 121.333 101 171s97.667 89.167 161 118.5s135.333 44 216 44c87.333 0 162.833 -15.833 226.5 -47.5
s116.334 -74.334 158.001 -128.001s72.667 -116.167 93 -187.5s30.5 -147 30.5 -227c0 -93.333 -10.167 -182.5 -30.5 -267.5s-48.666 -164.333 -84.999 -238s-79.166 -141.167 -128.499 -202.5s-103.333 -115.666 -162 -162.999s-120.667 -86.833 -186 -118.5
s-131.666 -54.167 -198.999 -67.5zM660.992 366.003c48.667 0 93.8311 7.50098 135.498 22.501s78.334 33.5 110.001 55.5s58.167 45.833 79.5 71.5s36 49.167 44 70.5l3 57c1.33301 46.667 0.333008 93.167 -3 139.5s-10 90.5 -20 132.5s-23.667 81.333 -41 118
s-39.333 68.334 -66 95.001s-58.5 47.667 -95.5 63s-79.833 23 -128.5 23c-58 0 -108.667 -12.667 -152 -38s-79.166 -58 -107.499 -98s-49.5 -84.833 -63.5 -134.5s-21 -98.834 -21 -147.501c0 -78.667 8.16699 -145.334 24.5 -200.001s39 -99 68 -133
s63.5 -58.667 103.5 -74s83.333 -23 130 -23z" />
    <glyph glyph-name="colon" unicode=":" horiz-adv-x="706" 
d="M242 938c0 17.333 3.33203 33.5 9.99902 48.5s15.667 28.167 27 39.5s24 20.333 38 27s28.667 10 44 10c18 0 33.333 -3 46 -9s23 -13.833 31 -23.5s13.833 -21 17.5 -34s5.5 -26.5 5.5 -40.5c0 -18.667 -3.33301 -35.667 -10 -51s-15.5 -28.5 -26.5 -39.5
s-23.667 -19.5 -38 -25.5s-29.166 -9 -44.499 -9c-28 0 -51.667 9.66699 -71 29s-29 45.333 -29 78zM241.999 85c0 17.333 3.33203 33.5 9.99902 48.5s15.667 28.167 27 39.5s24 20.333 38 27s28.667 10 44 10c18 0 33.333 -3 46 -9s23 -13.833 31 -23.5
s13.833 -21 17.5 -34s5.5 -26.5 5.5 -40.5c0 -18.667 -3.33301 -35.667 -10 -51s-15.5 -28.5 -26.5 -39.5s-23.667 -19.5 -38 -25.5s-29.166 -9 -44.499 -9c-28 0 -51.667 9.66699 -71 29s-29 45.333 -29 78z" />
    <glyph glyph-name="semicolon" unicode=";" horiz-adv-x="706" 
d="M259 190c0 29.333 8.83398 51.3301 26.501 65.9971s38.5 22 62.5 22h8c38 0 67.667 -21.5 89 -64.5s32 -103.833 32 -182.5c0 -60 -6 -115.167 -18 -165.5s-27.667 -95.166 -47 -134.499s-41.166 -72.833 -65.499 -100.5s-48.833 -48.5 -73.5 -62.5h-2l-47 32v17
c11.333 10 24.333 23.167 39 39.5s28.5 36.5 41.5 60.5s24 52.167 33 84.5s13.5 69.5 13.5 111.5c0 26.667 -2.33301 49.5 -7 68.5s-10.334 35.5 -17.001 49.5s-14 26.333 -22 37s-15.333 21.834 -22 33.501s-12.334 24.334 -17.001 38.001s-7 30.5 -7 50.5z
M245.001 937.997c0 17.333 3.33203 33.5 9.99902 48.5s15.667 28.167 27 39.5s24 20.333 38 27s28.667 10 44 10c18 0 33.333 -3 46 -9s23 -13.833 31 -23.5s13.833 -21 17.5 -34s5.5 -26.5 5.5 -40.5c0 -18.667 -3.33301 -35.667 -10 -51s-15.5 -28.5 -26.5 -39.5
s-23.667 -19.5 -38 -25.5s-29.166 -9 -44.499 -9c-28 0 -51.667 9.66699 -71 29s-29 45.333 -29 78z" />
    <glyph glyph-name="less" unicode="&#x3c;" horiz-adv-x="1370" 
d="M168 667l968 511v-139l-840 -423l840 -421v-140l-968 510v102z" />
    <glyph glyph-name="equal" unicode="=" horiz-adv-x="1337" 
d="M210 959h917v-112h-917v112zM210 384h917v-112h-917v112z" />
    <glyph glyph-name="greater" unicode="&#x3e;" horiz-adv-x="1370" 
d="M1202 667l-968 511v-139l840 -423l-840 -421v-140l968 510v102z" />
    <glyph glyph-name="question" unicode="?" horiz-adv-x="968" 
d="M345 478c-11.333 12.667 -22.3291 31.334 -32.9961 56.001s-20.334 51 -29.001 79s-15.834 55.667 -21.501 83s-8.83398 50 -9.50098 68c0 28 6.66699 53.5 20 76.5s30.833 44.333 52.5 64s46.834 38 75.501 55s58.167 33.5 88.5 49.5l90.5 48c30 16 57.833 33 83.5 51
s47.667 37.333 66 58s30.833 43.667 37.5 69c0 5.33301 0.166992 10.833 0.5 16.5s0.5 11.5 0.5 17.5c0 35.333 -4.66699 71.166 -14 107.499s-23 71.333 -41 105s-40.5 65.334 -67.5 95.001s-58.167 55.5 -93.5 77.5s-75.166 39.333 -119.499 52s-92.5 19 -144.5 19
c-13.333 0 -27.333 -0.5 -42 -1.5s-28.834 -2.16699 -42.501 -3.5s-26.334 -3 -38.001 -5s-21.167 -4 -28.5 -6l-24 94c4.66699 4 14.5 8.16699 29.5 12.5s32.5 8.16602 52.5 11.499s41 6 63 8s42 3 60 3c105.333 0 194 -15.167 266 -45.5s130 -70 174 -119
s75.667 -104 95 -165s29 -122.5 29 -184.5c0 -50.667 -10 -95.667 -30 -135s-45.667 -74.833 -77 -106.5s-65.833 -60.334 -103.5 -86.001l-109.5 -74c-35.333 -23.667 -67 -46.834 -95 -69.501s-47.667 -47 -59 -73c-0.666992 -7.33301 -0.666992 -15.666 0 -24.999
s1.66699 -18.333 3 -27c1.33301 -24 3.16602 -45.667 5.49902 -65s5 -37.833 8 -55.5s6.5 -34.667 10.5 -51s8.33301 -33.166 13 -50.499zM349.004 71c-1.33301 16 0.666992 30.999 6 44.999s12.666 26.5 21.999 37.5s20.5 19.833 33.5 26.5s26.167 10.667 39.5 12
c32.667 2.66699 58 -4 76 -20s28.667 -36.667 32 -62c2 -17.333 0.333008 -33 -5 -47s-12.666 -26.333 -21.999 -37s-20.5 -19.167 -33.5 -25.5s-26.5 -10.166 -40.5 -11.499c-12 -1.33301 -24.167 -0.5 -36.5 2.5s-23.5 8 -33.5 15s-18.5 16 -25.5 27
s-11.167 23.5 -12.5 37.5z" />
    <glyph glyph-name="at" unicode="@" horiz-adv-x="2200" 
d="M212 375c0 118 13.1748 228.658 39.5078 331.991s63 198.166 110 284.499s103 163.333 168 231s136.5 124.834 214.5 171.501s160.833 82.334 248.5 107.001s177.5 37 269.5 37c102 0 196.167 -15.333 282.5 -46s161 -77 224 -139s112.333 -139.667 148 -233
s53.5 -203 53.5 -329c0 -91.333 -10 -175 -30 -251s-46.167 -144.333 -78.5 -205s-68.833 -113.5 -109.5 -158.5s-81.834 -82.5 -123.501 -112.5s-81.834 -52.5 -120.501 -67.5s-72 -22.5 -100 -22.5c-35.333 0 -65.5 15.5 -90.5 46.5s-39.167 75.167 -42.5 132.5
c-2.66699 34.667 -1.66699 76.334 3 125.001s13.334 107.667 26.001 177c-22 -59.333 -47.833 -117.666 -77.5 -174.999s-61.834 -108.666 -96.501 -153.999s-70.834 -82 -108.501 -110s-75.834 -42 -114.501 -42c-33.333 0 -66.333 9.16699 -99 27.5s-62 45 -88 80
s-47 77.5 -63 127.5s-24 106.667 -24 170c0 45.333 5.16699 93.166 15.5 143.499s25.666 100 45.999 149s45.166 95.667 74.499 140s63 83.333 101 117s80 60.5 126 80.5s95.667 30 149 30c18.667 0 38.667 -1.33301 60 -4s42.666 -6.66699 63.999 -12
s42.5 -11.666 63.5 -18.999s40.167 -16 57.5 -26c2 6 4.33301 12.167 7 18.5s5.5 12.166 8.5 17.499s6.33301 9.5 10 12.5s8.16699 3.83301 13.5 2.5l43.5 -15.5c13.667 -5 29.167 -10.167 46.5 -15.5c-4.66699 -20.667 -10 -46.834 -16 -78.501l-19.5 -105.5l-21.5 -123
c-7.33301 -43.333 -14.166 -86.5 -20.499 -129.5s-12 -85.167 -17 -126.5s-8.83301 -79 -11.5 -113c-6 -71.333 -4.16699 -127.666 5.5 -168.999s23.834 -62 42.501 -62c24 0 50.833 6.83301 80.5 20.5s59.5 33.5 89.5 59.5s59 58.167 87 96.5s52.833 82.166 74.5 131.499
s39.167 103.833 52.5 163.5s20 124.167 20 193.5c0 120.667 -17.833 223.5 -53.5 308.5s-83.5 154.5 -143.5 208.5s-129.333 93.5 -208 118.5s-161 37.5 -247 37.5c-76.667 0 -151.5 -10.667 -224.5 -32s-142.167 -52.333 -207.5 -93s-125.333 -90.667 -180 -150
s-101.834 -127.166 -141.501 -203.499s-70.5 -160.666 -92.5 -252.999s-33 -191.833 -33 -298.5c0 -130.667 16.333 -245.5 49 -344.5s78 -181.667 136 -248s127.333 -116.166 208 -149.499s169 -50 265 -50c37.333 0 76.5 2.66699 117.5 8s80.833 12.833 119.5 22.5
s74.167 20.834 106.5 33.501s58.833 26.334 79.5 41.001l30 -64c-25.333 -20.667 -55.333 -40 -90 -58s-72.667 -33.5 -114 -46.5s-85.333 -23.167 -132 -30.5s-94.334 -11 -143.001 -11c-120.667 0 -227.834 20.333 -321.501 61s-172.5 98.834 -236.5 174.501
s-112.667 167.334 -146 275.001s-50 228.5 -50 362.5zM777.008 412.991c0 -35.333 2.83203 -71.167 8.49902 -107.5s14.834 -69.333 27.501 -99s29 -53.834 49 -72.501s44.333 -28 73 -28c26 0 54.667 13.5 86 40.5s62.833 63.5 94.5 109.5s62.5 99.5 92.5 160.5
s57 125.833 81 194.5c14 42 26.833 83.667 38.5 125s20.834 82 27.501 122c-10.667 10 -25.834 19.333 -45.501 28s-41.167 16.167 -64.5 22.5s-47 11.333 -71 15s-45.667 5.5 -65 5.5c-50 0 -95.5 -15.5 -136.5 -46.5s-76 -71.167 -105 -120.5
s-51.333 -104.666 -67 -165.999s-23.5 -122.333 -23.5 -183z" />
    <glyph glyph-name="A" unicode="A" horiz-adv-x="1401" 
d="M-26 82l133 14l519 1442h146l510 -1442l135 -14v-82h-483v82l188 14l-114 338h-653l-116 -338l185 -14v-82h-450v82zM974 533l-232 688l-61 206l-60 -215l-232 -679h585z" />
    <glyph glyph-name="B" unicode="B" horiz-adv-x="1370" 
d="M106 82l176.998 14.0029v1324l-173 21v81h248c60.667 0 116.667 2.66699 168 8s102 8 152 8c91.333 0 168.833 -7.83301 232.5 -23.5s115.334 -38.334 155.001 -68.001s68.5 -65.834 86.5 -108.501s27 -90.667 27 -144c0 -45.333 -6.33301 -89 -19 -131
s-31.667 -80 -57 -114s-56.833 -63.167 -94.5 -87.5s-81.5 -41.5 -131.5 -51.5c66 2.66699 124.5 -4.16602 175.5 -20.499s94 -40.333 129 -72s61.5 -70 79.5 -115s27 -94.5 27 -148.5c0 -60 -10 -118 -30 -174s-53.667 -105.667 -101 -149s-110.5 -78 -189.5 -104
s-177.833 -39 -296.5 -39c-24.667 0 -48 0.666992 -70 2s-45.167 2.66602 -69.5 3.99902s-51.166 2.66602 -80.499 3.99902s-63.333 2 -102 2h-243v82zM429.998 843.003c16 -1.33301 36.499 -2.16797 61.499 -2.50098s50.667 -0.5 77 -0.5h75h56.5
c106.667 0 188.667 27.833 246 83.5s86 134.167 86 235.5c0 48 -6.16699 90.333 -18.5 127s-33 67.334 -62 92.001s-67.5 43.334 -115.5 56.001s-107.333 19 -178 19c-52 0 -97.167 -2.33301 -135.5 -7s-69.166 -7.33398 -92.499 -8.00098v-595zM429.997 95.001
c14.667 -3.33301 32.334 -6.00098 53.001 -8.00098s42.167 -3.66699 64.5 -5s44.5 -2.33301 66.5 -3s42 -1 60 -1c83.333 0 153.833 8.16699 211.5 24.5s104.5 39.5 140.5 69.5s62 66.333 78 109s24 90.334 24 143.001c0 54.667 -7.33301 102 -22 142s-37.334 73 -68.001 99
s-70.167 45.167 -118.5 57.5s-105.833 18.5 -172.5 18.5h-73h-90c-30.667 0 -60 -0.166992 -88 -0.5s-50 -0.833008 -66 -1.5v-644z" />
    <glyph glyph-name="C" unicode="C" horiz-adv-x="1327" 
d="M772 -23c-111.333 0 -210.167 19.001 -296.5 57.001s-159.166 91.5 -218.499 160.5s-104.333 152.167 -135 249.5s-46 205.666 -46 324.999c0 74 8.66699 144.333 26 211s41.666 128.5 72.999 185.5s69 108.5 113 154.5s92.833 85.167 146.5 117.5
s111.334 57.166 173.001 74.499s125.834 26 192.501 26c46 0 91 -2.66699 135 -8s85 -11.666 123 -18.999s72 -14.5 102 -21.5l71 -16.5l-17 -326h-92l-39 237c-19.333 16 -56.833 30.333 -112.5 43s-125.834 19 -210.501 19c-72 0 -138.833 -15.167 -200.5 -45.5
s-115.167 -73.833 -160.5 -130.5s-81 -126 -107 -208s-39 -174.333 -39 -277c0 -94.667 10.167 -185.167 30.5 -271.5s51.666 -162.5 93.999 -228.5s96.333 -118.667 162 -158s143.834 -59 234.501 -59c44.667 0 83 2 115 6s59.667 9.33301 83 16s43.5 14.667 60.5 24
s32.833 19 47.5 29l78 190l90 -12l-52 -265c-26.667 -1.33301 -52.334 -6.16602 -77.001 -14.499l-83.5 -27c-31 -9.66699 -67.5 -18.334 -109.5 -26.001s-93.333 -11.5 -154 -11.5z" />
    <glyph glyph-name="D" unicode="D" horiz-adv-x="1558" 
d="M105 82l178 14.998v1323l-166 21v81h240c63.333 0 124.833 2.66699 184.5 8s118.834 8 177.501 8c133.333 0 247.666 -17.667 342.999 -53s173.5 -85.166 234.5 -149.499s105.667 -141.5 134 -231.5s42.5 -189.667 42.5 -299c0 -125.333 -19.167 -239.166 -57.5 -341.499
s-92 -189.5 -161 -261.5s-151.167 -127 -246.5 -165s-200 -55.667 -314 -53c-49.333 1.33301 -102 4.33301 -158 9s-114.667 7 -176 7h-255v82zM430 91.998c54 -7.33301 104 -12.332 150 -14.999s93 -3.33398 141 -2.00098c85.333 1.33301 164.333 17.5 237 48.5
s135.5 75.833 188.5 134.5s94.5 131.167 124.5 217.5s45 185.833 45 298.5c0 449.333 -215 674 -645 674c-48 0 -92.167 -2 -132.5 -6s-76.5 -6.66699 -108.5 -8v-1342z" />
    <glyph glyph-name="E" unicode="E" horiz-adv-x="1326" 
d="M106 82l177 15v1323l-173 21v81h1004l29 -296h-85l-53 201l-575 7v-606l395 5l24 173h92v-448h-92l-24 176l-395 5v-644l654 17l101 257l86 -29l-65 -340h-1100v82z" />
    <glyph glyph-name="F" unicode="F" horiz-adv-x="1262" 
d="M114 82l169 13v1325l-180 21v81h1063l22 -333h-99l-52 238l-607 7v-615l430 7l32 169h83v-450h-83l-32 175l-430 8v-632l328 -14v-82h-644v82z" />
    <glyph glyph-name="G" unicode="G" horiz-adv-x="1507" 
d="M101 734c0 82.667 9.3252 160.002 27.9922 232.002s44.834 137.667 78.501 197s73.834 112.333 120.501 159s98.334 86 155.001 118s117.167 56.333 181.5 73s130.833 25 199.5 25c52.667 0 102.834 -2.5 150.501 -7.5s91.334 -11 131.001 -18s74.667 -14.167 105 -21.5
l71.5 -17l-15 -335h-91l-41 237c-8 5.33301 -20.5 12 -37.5 20s-39 15.833 -66 23.5s-59.167 14.167 -96.5 19.5s-80.666 8 -129.999 8c-81.333 0 -157 -14.167 -227 -42.5s-130.833 -70.333 -182.5 -126s-92.334 -124.834 -122.001 -207.501s-44.5 -178.334 -44.5 -287.001
c0 -60.667 4.83301 -120.5 14.5 -179.5s24.334 -115 44.001 -168s44.5 -102 74.5 -147s65.167 -83.833 105.5 -116.5s85.833 -58.167 136.5 -76.5s107 -27.5 169 -27.5c38.667 0 76.334 2.5 113.001 7.5s71.167 12 103.5 21s62 19.333 89 31s50.167 24.5 69.5 38.5v478
l-300 18v102h578v-102l-130 -20v-561c-27.333 -1.33301 -57.666 -7.5 -90.999 -18.5l-114.5 -36c-43 -13 -91.5 -24.667 -145.5 -35s-115.333 -15.5 -184 -15.5c-110 0 -208.333 19.167 -295 57.5s-160 91.333 -220 159s-105.833 147.667 -137.5 240
s-47.5 192.5 -47.5 300.5z" />
    <glyph glyph-name="H" unicode="H" horiz-adv-x="1688" 
d="M116 82l176 15v1323l-170 21v81h498v-81l-181 -21v-588h810v588l-173 21v81h491v-81l-171 -21v-1324l171 -14v-82h-494v82l176 14v635h-810v-635l183 -14v-82h-506v82z" />
    <glyph glyph-name="I" unicode="I" horiz-adv-x="813" 
d="M127 82l205 14v1324l-205 21v81h558v-81l-204 -20v-1325l204 -14v-82h-558v82z" />
    <glyph glyph-name="J" unicode="J" horiz-adv-x="766" 
d="M279 -25c10 30 17.666 60.835 22.999 92.502s9.5 68.5 12.5 110.5s4.83301 91.167 5.5 147.5s1 123.833 1 202.5v891l-207 22v81h556v-81l-201 -22v-857v-161.5c0 -49.667 -0.5 -95.834 -1.5 -138.501s-3 -82.167 -6 -118.5s-7.5 -70.5 -13.5 -102.5
c-11.333 -58.667 -30.666 -110.5 -57.999 -155.5s-59.666 -83.833 -96.999 -116.5s-77.833 -58.834 -121.5 -78.501s-87.5 -33.167 -131.5 -40.5l-43 66c32 8 62.667 19.667 92 35s56.166 33.833 80.499 55.5s46 46.667 65 75s33.833 59.5 44.5 93.5z" />
    <glyph glyph-name="K" unicode="K" horiz-adv-x="1463" 
d="M115 82l176.997 13.999v1324l-173 21v81h502v-81l-182 -21v-759l665 760l-175 20v81h463v-81l-147 -20l-488 -540c26.667 -23.333 54.334 -52.166 83.001 -86.499s57.834 -71.833 87.501 -112.5l89.5 -127.5l87.5 -130.5l81 -122.5c25.667 -39 49.667 -73.333 72 -103
s42 -53.667 59 -72s31.167 -28.166 42.5 -29.499l98 -20v-77h-226c-18.667 0 -40.667 14.667 -66 44s-53.166 67.5 -83.499 114.5s-62.5 99.833 -96.5 158.5l-104 175c-35.333 58 -70.833 112.667 -106.5 164s-70.167 93.666 -103.5 126.999l-232 -261v-426l195 -17v-79
h-519v82z" />
    <glyph glyph-name="L" unicode="L" horiz-adv-x="1292" 
d="M115 82l177 14v1324l-173 21v81h528v-81l-208 -21v-1324l609 14l114 319l84 -14l-77 -415h-1054v82z" />
    <glyph glyph-name="M" unicode="M" horiz-adv-x="2027" 
d="M8 82l179 15l174 1324l-236 20v81h459l357 -1043l74 -288l75 288l345 1043h437v-81l-224 -21l186 -1324l188 -14v-82h-529v82l190 14l-116 944l-55 415l-90 -290l-392 -1181h-57l-381 1068l-132 401l-41 -412l-109 -945l204 -14v-82h-506v82z" />
    <glyph glyph-name="N" unicode="N" horiz-adv-x="1632" 
d="M123 82l161 14v1323l-161 22v81h308l741 -1075l121 -210v1182l-180 22v81h453v-81l-166 -21v-1420h-89l-745 1073l-174 275v-1252l187 -14v-82h-456v82z" />
    <glyph glyph-name="O" unicode="O" horiz-adv-x="1470" 
d="M720 -23c-102 -2 -192.831 15.6719 -272.498 53.0049s-146.834 90.166 -201.501 158.499s-96.334 150.166 -125.001 245.499s-43 200.333 -43 315c0 80.667 8 156.167 24 226.5s38.833 134.666 68.5 192.999s65 110.333 106 156s86.667 84.334 137 116.001
s104.333 55.834 162 72.501s117.834 25 180.501 25c102 0 192.5 -18.333 271.5 -55s145.5 -88.334 199.5 -155.001s95 -146.834 123 -240.501s42 -197.834 42 -312.501c0 -120.667 -17.5 -229.834 -52.5 -327.501s-82.833 -181 -143.5 -250s-131.834 -122.5 -213.501 -160.5
s-169.167 -58 -262.5 -60zM733.002 65.0049c72 0 138.333 14.998 199 44.998s113 74.833 157 134.5s78.167 133.667 102.5 222s36.5 190.833 36.5 307.5c0 98 -10.833 188.333 -32.5 271s-53.167 154.167 -94.5 214.5s-92.333 107.333 -153 141s-130.334 50.5 -209.001 50.5
c-73.333 0 -140.5 -14.667 -201.5 -44s-113.5 -73.166 -157.5 -131.499s-78.167 -131.333 -102.5 -219s-36.5 -189.834 -36.5 -306.501c0 -97.333 10.833 -187.666 32.5 -270.999s53.334 -155.666 95.001 -216.999s93 -109.5 154 -144.5s131.167 -52.5 210.5 -52.5z" />
    <glyph glyph-name="P" unicode="P" horiz-adv-x="1311" 
d="M115 82l177.001 14v1324l-165 21v81h240c34 0 63.333 0.833008 88 2.5l75.5 5c25.667 1.66699 53.667 3.33398 84 5.00098s68.166 2.5 113.499 2.5c100 0 183.5 -9.83301 250.5 -29.5s120.667 -48 161 -85s69.166 -82 86.499 -135s26 -113.167 26 -180.5
c0 -82 -15.333 -155.333 -46 -220s-72.167 -119.334 -124.5 -164.001s-113.833 -78.834 -184.5 -102.501s-146 -35.5 -226 -35.5c-20.667 0 -43.5 0.333008 -68.5 1s-48.667 1.33398 -71 2.00098s-42.166 1.5 -59.499 2.5s-28.333 2.16699 -33 3.5v-498l290 -14v-82h-614v82
zM439.001 691c19.333 -3.33301 50.332 -5.66895 92.999 -7.00195s90 -2 142 -2c54.667 0 107.334 6.83301 158.001 20.5s95.5 36.834 134.5 69.501s70.333 76.334 94 131.001s35.5 122.667 35.5 204c0 62 -8.33301 114.5 -25 157.5s-42.334 77.667 -77.001 104
s-78.167 45.333 -130.5 57s-114.166 17.5 -185.499 17.5c-50 0 -94.833 -2.16699 -134.5 -6.5s-74.5 -6.5 -104.5 -6.5v-739z" />
    <glyph glyph-name="Q" unicode="Q" horiz-adv-x="1470" 
d="M720 -23c-102 -2 -192.83 15.666 -272.497 52.999s-146.834 90.166 -201.501 158.499s-96.334 150.166 -125.001 245.499s-43 200.333 -43 315c0 80.667 8 156.167 24 226.5s38.833 134.666 68.5 192.999s65 110.333 106 156s86.667 84.334 137 116.001
s104.333 55.834 162 72.501s117.834 25 180.501 25c102 0 192.5 -18.333 271.5 -55s145.5 -88.334 199.5 -155.001s95 -146.834 123 -240.501s42 -197.834 42 -312.501c0 -101.333 -12.5 -194.5 -37.5 -279.5s-59.667 -160.5 -104 -226.5s-97 -121.5 -158 -166.5
s-127.5 -78.167 -199.5 -99.5c20.667 -41.333 47.167 -75.5 79.5 -102.5s68.5 -48.5 108.5 -64.5s83 -27.167 129 -33.5s92.667 -9.5 140 -9.5h11c27.333 0.666992 52 2.83398 74 6.50098s40.333 9.83398 55 18.501v-123c-11.333 -9.33301 -31.666 -18.666 -60.999 -27.999
s-70.333 -14.333 -123 -15h-4c-52.667 0 -105.167 6.83301 -157.5 20.5s-100.833 34.334 -145.5 62.001s-83.834 62.334 -117.501 104.001s-57.834 90.5 -72.501 146.5c-14.667 -2.66699 -29.334 -4.5 -44.001 -5.5s-29.667 -1.83301 -45 -2.5zM733.003 64.999
c72 0 138.333 14.998 199 44.998s113 74.833 157 134.5s78.167 133.667 102.5 222s36.5 190.833 36.5 307.5c0 98 -10.833 188.333 -32.5 271s-53.167 154.167 -94.5 214.5s-92.333 107.333 -153 141s-130.334 50.5 -209.001 50.5c-73.333 0 -140.5 -14.667 -201.5 -44
s-113.5 -73.166 -157.5 -131.499s-78.167 -131.333 -102.5 -219s-36.5 -189.834 -36.5 -306.501c0 -97.333 10.833 -187.666 32.5 -270.999s53.334 -155.666 95.001 -216.999s93 -109.5 154 -144.5s131.167 -52.5 210.5 -52.5z" />
    <glyph glyph-name="R" unicode="R" horiz-adv-x="1416" 
d="M106 82l177 13v1330l-166 20v77h243c54.667 0 108 2.66699 160 8s102.667 8 152 8c100 0 184.5 -8.5 253.5 -25.5s125 -42.167 168 -75.5s74.167 -75.166 93.5 -125.499s29 -108.5 29 -174.5c0 -49.333 -7.66699 -97 -23 -143s-37.166 -88.333 -65.499 -127
s-62.5 -72.334 -102.5 -101.001s-84.667 -50 -134 -64c24.667 -18 50.167 -44.833 76.5 -80.5s52.833 -75.167 79.5 -118.5s52.834 -88.166 78.501 -134.499s50.5 -88.833 74.5 -127.5s46.333 -71.334 67 -98.001s39.334 -42 56.001 -46l87 -20v-77h-216
c-12.667 0 -26.834 8.5 -42.501 25.5s-32.334 39.5 -50.001 67.5s-36.167 60.333 -55.5 97l-60 114l-62.5 118.5c-21 39.667 -41.833 76.334 -62.5 110.001s-41.334 63.167 -62.001 88.5s-40.667 43.666 -60 54.999h-39.5h-56.5c-20.667 0 -42 0.166992 -64 0.5l-63 1
c-20 0.333008 -37.667 0.5 -53 0.5s-26.333 0.333008 -33 1v-584l215 -13v-82h-539v82zM430 777c20.667 -1.33301 45.333 -2.16602 74 -2.49902l86 -1c28.667 -0.333008 55.334 -0.5 80.001 -0.5h57c46 0 89.167 7.16699 129.5 21.5s75.166 36 104.499 65
s52.5 65.333 69.5 109s25.5 95.167 25.5 154.5c0 46.667 -6.16699 89.667 -18.5 129s-33.5 73.166 -63.5 101.499s-70.5 50.333 -121.5 66s-115.167 23.5 -192.5 23.5c-54 0 -99 -2.16699 -135 -6.5s-67.667 -6.5 -95 -6.5v-653z" />
    <glyph glyph-name="S" unicode="S" horiz-adv-x="1200" 
d="M152 436l94.0029 0.00292969l26 -276c12.667 -11.333 29.667 -22.333 51 -33s46 -20.167 74 -28.5s58.667 -15.166 92 -20.499s68.666 -8 105.999 -8c58.667 0 110.334 7 155.001 21s82.167 34 112.5 60s53.166 57.333 68.499 94s23 77.334 23 122.001
c0 46.667 -9.83301 86.834 -29.5 120.501s-46.5 63.5 -80.5 89.5s-73.833 49.5 -119.5 70.5l-146.5 64.5l-90.5 39.5c-31.667 14.333 -63.167 30.5 -94.5 48.5s-61.333 38.333 -90 61s-54 48.334 -76 77.001s-39.5 60.667 -52.5 96s-19.5 75 -19.5 119
c0 58 12 110.833 36 158.5s57.167 88.167 99.5 121.5s92.833 59.166 151.5 77.499s122.667 27.5 192 27.5c46 0 88.833 -3.33301 128.5 -10s75.667 -14.334 108 -23.001s60.666 -16.834 84.999 -24.501s44.166 -12.834 59.499 -15.501l-13 -336h-90l-34 260
c-7.33301 6 -19 12.5 -35 19.5s-35.167 13.333 -57.5 19s-47.333 10.5 -75 14.5s-56.5 6 -86.5 6c-105.333 0 -186 -21.167 -242 -63.5s-84 -107.5 -84 -195.5c0 -45.333 9 -84 27 -116s43.167 -60.5 75.5 -85.5s70.833 -48.333 115.5 -70l147 -69.5l157 -75
c53.333 -26 101.5 -55.833 144.5 -89.5s78.167 -72.834 105.5 -117.501s41 -98 41 -160c0 -53.333 -12 -105.5 -36 -156.5s-58.5 -96.833 -103.5 -137.5s-100.167 -73.334 -165.5 -98.001s-139.333 -37 -222 -37c-57.333 0 -110 4.66699 -158 14s-91 19.666 -129 30.999
s-70.5 22 -97.5 32s-48.5 15.667 -64.5 17z" />
    <glyph glyph-name="T" unicode="T" horiz-adv-x="1385" 
d="M340 82l272 13v1344l-412 -11l-62 -420h-100l34 514h1241l23 -514h-98l-54 420l-418 11v-1343l297 -14v-82h-723v82z" />
    <glyph glyph-name="U" unicode="U" horiz-adv-x="1511" 
d="M213 1419l-153.998 22.001v81h484v-81l-180 -22v-782c0 -109.333 10.5 -200 31.5 -272s50.333 -129.5 88 -172.5s82.667 -73.333 135 -91s109.833 -26.5 172.5 -26.5c136 0 237.833 45.833 305.5 137.5s101.5 227.5 101.5 407.5v799l-173 22v81h448v-81l-160 -22v-791
c0 -111.333 -13.333 -207.5 -40 -288.5s-63.834 -147.833 -111.501 -200.5s-104.334 -91.667 -170.001 -117s-137.5 -38 -215.5 -38c-98 0 -182.333 13.667 -253 41s-129 68.666 -175 123.999s-79.833 125 -101.5 209s-32.5 182.667 -32.5 296v765z" />
    <glyph glyph-name="V" unicode="V" horiz-adv-x="1346" 
d="M98 1420l-127 21v81h475v-81l-192 -20l355 -1002l93 -293l84 299l340 995l-167 21v81h420v-81l-131 -21l-510 -1437h-117z" />
    <glyph glyph-name="W" unicode="W" horiz-adv-x="2021" 
d="M103 1420l-144 21v81h501v-81l-200 -21l287 -980l74 -344l86 343l259 813l-54 168l-154 21v81h518v-81l-205 -21l294 -980l85 -368l74 368l274 980l-219 21v81h480v-81l-140 -21l-419 -1432h-139l-345 1103l-344 -1103h-131z" />
    <glyph glyph-name="X" unicode="X" horiz-adv-x="1442" 
d="M16 82l178 14l453 669l-433 654l-160 22v81h563v-81l-226 -22l360 -566l357 567l-188 21v81h482v-81l-161 -22l-436 -627l464 -697l166 -13v-82h-557v82l211 14l-387 604l-371 -604l219 -14v-82h-534v82z" />
    <glyph glyph-name="Y" unicode="Y" horiz-adv-x="1306" 
d="M360 82l231 14v486l-480 837l-127 22v81h471v-81l-180 -21l320 -590l80 -174l84 174l304 590l-173 21v81h435v-81l-134 -22l-452 -834v-488l235 -15v-82h-614v82z" />
    <glyph glyph-name="Z" unicode="Z" horiz-adv-x="1334" 
d="M917 1288l118 153l-680 -22l-97 -268l-82 10l43 367h957l42 -69l-820 -1202l-139 -170l778 37l97 328l87 -21l-47 -431h-1049l-44 73z" />
    <glyph glyph-name="bracketleft" unicode="[" horiz-adv-x="872" 
d="M205 1469c0 37.333 2.49414 67.5 7.49414 90.5s13.333 41 25 54s27.334 21.833 47.001 26.5s44.167 7 73.5 7s58.833 -1 88.5 -3s58.167 -4.66699 85.5 -8s53 -7 77 -11s45.667 -8 65 -12v-66h-337v-1726h337v-67c-21.333 -4.66699 -44.666 -9.16699 -69.999 -13.5
s-51.666 -8 -78.999 -11s-55.166 -5.5 -83.499 -7.5s-56.166 -3 -83.499 -3c-29.333 0 -53.666 2.16699 -72.999 6.5s-35 13 -47 26s-20.5 31.167 -25.5 54.5s-7.5 54 -7.5 92v1571z" />
    <glyph glyph-name="backslash" unicode="\" horiz-adv-x="882" 
d="M219 1599h-139l573 -1962h139z" />
    <glyph glyph-name="bracketright" unicode="]" horiz-adv-x="872" 
d="M667 1469c0 37.333 -2.49414 67.5 -7.49414 90.5s-13.333 41 -25 54s-27.334 21.833 -47.001 26.5s-44.167 7 -73.5 7s-58.833 -1 -88.5 -3s-58.167 -4.66699 -85.5 -8s-53 -7 -77 -11s-45.667 -8 -65 -12v-66h337v-1726h-337v-67
c21.333 -4.66699 44.666 -9.16699 69.999 -13.5s51.666 -8 78.999 -11s55.166 -5.5 83.499 -7.5s56.166 -3 83.499 -3c29.333 0 53.666 2.16699 72.999 6.5s35 13 47 26s20.5 31.167 25.5 54.5s7.5 54 7.5 92v1571z" />
    <glyph glyph-name="asciicircum" unicode="^" horiz-adv-x="1363" 
d="M600 1531h158l420 -1118h-120l-378 965l-377 -965h-118z" />
    <glyph glyph-name="underscore" unicode="_" horiz-adv-x="1711" 
d="M1731 -295v-105h-1751v105h1751z" />
    <glyph glyph-name="grave" unicode="`" horiz-adv-x="681" 
d="M380 1353c-12 5.33301 -28.5 15.6689 -49.5 31.002s-44.167 33.5 -69.5 54.5l-78.5 68l-77 71.5c-24.333 23.333 -46 45.166 -65 65.499s-32.833 37.166 -41.5 50.499l116 100h1l316 -391l-51 -50h-1v0z" />
    <glyph glyph-name="a" unicode="a" horiz-adv-x="1141" 
d="M104 299c0 47.333 9.16406 89.5 27.4971 126.5s43.666 69.333 75.999 97s70.5 51.334 114.5 71.001s91.833 35.667 143.5 48s105.834 21.5 162.501 27.5s113.667 9.66699 171 11v66c0 52.667 -4 97.834 -12 135.501s-21.833 68.667 -41.5 93s-46 42.166 -79 53.499
s-74.833 17 -125.5 17c-40.667 0 -80.667 -4.66699 -120 -14s-76 -20.5 -110 -33.5s-64.333 -26.5 -91 -40.5s-48 -26 -64 -36h-1l-44 83c5.33301 5.33301 15.666 12.833 30.999 22.5s34.666 20.334 57.999 32.001s49.5 23.5 78.5 35.5s59.667 22.833 92 32.5
s65.5 17.667 99.5 24s67.667 9.5 101 9.5c68.667 0 126.667 -7.16699 174 -21.5s85.666 -37.333 114.999 -69s50.333 -72.5 63 -122.5s19 -111 19 -183v-682h130v-70l-39 -9.5c-15.333 -3.66699 -31.333 -7 -48 -10s-33.5 -5.5 -50.5 -7.5s-32.5 -3 -46.5 -3
c-13.333 0 -24.666 0.666992 -33.999 2s-17.333 4.66602 -24 9.99902s-11.5 13.5 -14.5 24.5s-4.5 26.167 -4.5 45.5v88l-56.5 -47.5c-23.667 -19.667 -51.167 -39 -82.5 -58s-66.166 -35.333 -104.499 -49s-79.166 -20.5 -122.499 -20.5
c-45.333 0 -88.666 6.33301 -129.999 19s-77.666 32.167 -108.999 58.5s-56.166 59.666 -74.499 99.999s-27.5 88.5 -27.5 144.5zM263.997 315c0 -42.667 6.00098 -78.333 18.001 -107s28.5 -51.834 49.5 -69.501s45.667 -30.334 74 -38.001s58.5 -11.5 90.5 -11.5
c22.667 0 47 4 73 12s52.5 18.667 79.5 32s53.333 28.333 79 45s49.5 33.667 71.5 51v358c-86.667 -0.666992 -163.334 -7.5 -230.001 -20.5s-122.5 -31.167 -167.5 -54.5s-79.167 -51.666 -102.5 -84.999s-35 -70.666 -35 -111.999z" />
    <glyph glyph-name="b" unicode="b" horiz-adv-x="1229" 
d="M174 1557l-179.996 19.9961v67l286 32h4l34 -27v-625c18.667 17.333 40.167 34.5 64.5 51.5s51.666 32.333 81.999 46s63.333 24.834 99 33.501s74.167 13 115.5 13c56.667 0 112 -10.667 166 -32s101.833 -54.666 143.5 -99.999s75.167 -103.166 100.5 -173.499
s38 -154.5 38 -252.5c0 -87.333 -13.5 -169.333 -40.5 -246s-65.833 -143.667 -116.5 -201s-111.834 -102.666 -183.501 -135.999s-152.5 -50 -242.5 -50c-44.667 0 -87.834 2.83301 -129.501 8.5s-79.167 12.5 -112.5 20.5s-61.333 16.5 -84 25.5
s-37.334 17.167 -44.001 24.5v1501zM318.004 153.996c6 -12 16.999 -22.665 32.999 -31.998s35.167 -17.166 57.5 -23.499s46.833 -11.166 73.5 -14.499s53 -5 79 -5c58 0 111.667 9.83301 161 29.5s92.333 50.167 129 91.5s65.334 93.666 86.001 156.999
s31.667 138.666 33 225.999c0.666992 84 -8.33301 155.667 -27 215s-44 107.666 -76 144.999s-69.5 64.666 -112.5 81.999s-87.833 26 -134.5 26c-34 0 -66.667 -5 -98 -15s-60 -22.167 -86 -36.5s-49.167 -30 -69.5 -47s-36.5 -32.5 -48.5 -46.5v-752z" />
    <glyph glyph-name="c" unicode="c" horiz-adv-x="1044" 
d="M103 554c-0.666992 53.333 4.50195 105.667 15.502 157s27.333 99.666 49 144.999s48.5 87.166 80.5 125.499s69 71.333 111 99s88.833 49.167 140.5 64.5s108.167 23 169.5 23c28 0 56 -2.16699 84 -6.5s54.5 -9.5 79.5 -15.5s47.5 -12.667 67.5 -20s36.667 -14 50 -20
l-8 -275h-91l-39 190c-16.667 16.667 -40.667 30.334 -72 41.001s-69 16 -113 16c-54 0 -103.667 -10.833 -149 -32.5s-84.333 -52.667 -117 -93s-58.167 -89 -76.5 -146s-27.5 -120.833 -27.5 -191.5c-0.666992 -89.333 8.66602 -167.166 27.999 -233.499
s46 -121.5 80 -165.5s74.333 -76.833 121 -98.5s97 -32.5 151 -32.5c31.333 0 62.333 2.83301 93 8.5s59.5 13 86.5 22s51.667 19 74 30s41.166 21.833 56.499 32.5l29 -56c-19.333 -19.333 -43 -37.833 -71 -55.5s-58.5 -33.167 -91.5 -46.5s-67.333 -23.833 -103 -31.5
s-70.5 -11.5 -104.5 -11.5c-82 0 -154.167 15 -216.5 45s-114.666 71 -156.999 123s-74.333 113.167 -96 183.5s-32.834 145.5 -33.501 225.5z" />
    <glyph glyph-name="d" unicode="d" horiz-adv-x="1266" 
d="M102 540c0 86.667 13.501 168.166 40.501 244.499s65.833 143 116.5 200s111.834 101.833 183.501 134.5s152.5 49 242.5 49c42.667 0 83.5 -2.83301 122.5 -8.5s74.167 -12.167 105.5 -19.5v417l-219 20v67l324 32h5l34 -27v-1567h128v-70l-84 -19.5
c-30.667 -7 -65.334 -10.5 -104.001 -10.5c-13.333 0 -24.833 0.833008 -34.5 2.5s-17.834 5.16699 -24.501 10.5s-11.5 13.5 -14.5 24.5s-4.5 26.167 -4.5 45.5v82c-18.667 -21.333 -40.5 -42.166 -65.5 -62.499s-53 -38.5 -84 -54.5s-64.833 -28.833 -101.5 -38.5
s-76 -14.5 -118 -14.5c-57.333 0 -113 11.333 -167 34s-101.833 57.167 -143.5 103.5s-75 104.833 -100 175.5s-37.5 154 -37.5 250zM609.001 99.999c34 0 66.668 4.66797 98.001 14.001s60.166 21.166 86.499 35.499s49.833 30.166 70.5 47.499s37 34.333 49 51v747
c-6 9.33301 -17.167 18.333 -33.5 27s-35.833 16.167 -58.5 22.5s-47.334 11.5 -74.001 15.5s-53 6 -79 6c-58 0 -111.833 -9.66699 -161.5 -29s-92.667 -49.166 -129 -89.499s-65 -92 -86 -155s-31.833 -138.167 -32.5 -225.5c-1.33301 -84.667 7.5 -156.5 26.5 -215.5
s44.667 -107.167 77 -144.5s69.833 -64.5 112.5 -81.5s87.334 -25.5 134.001 -25.5z" />
    <glyph glyph-name="e" unicode="e" horiz-adv-x="1107" 
d="M102 575c0 86.667 13.1641 166.332 39.4971 238.999s62.833 135.334 109.5 188.001s101.834 93.5 165.501 122.5s132.5 43.5 206.5 43.5c59.333 0 112.5 -8.83301 159.5 -26.5s87 -43.5 120 -77.5s58.667 -76.333 77 -127s28.5 -109 30.5 -175c0 -38 -0.5 -71 -1.5 -99
s-4.16699 -52.667 -9.5 -74h-742v-17c0 -6 0.333008 -11.667 1 -17c2 -80 13.5 -149.667 34.5 -209s48.5 -108.833 82.5 -148.5s73.333 -69.167 118 -88.5s92.334 -29 143.001 -29c29.333 0 59.5 3 90.5 9s60.833 14 89.5 24s55.334 21.5 80.001 34.5s45 26.833 61 41.5
l30 -68c-20 -20 -44.667 -38.833 -74 -56.5s-61.5 -33 -96.5 -46s-71.833 -23.167 -110.5 -30.5s-77 -11 -115 -11c-79.333 0 -149.5 14.667 -210.5 44s-112.167 70.5 -153.5 123.5s-72.5 116 -93.5 189s-31.5 153.5 -31.5 241.5zM846.997 676.998
c1.33301 15.333 2.49805 30.833 3.49805 46.5s1.5 31.167 1.5 46.5c0 43.333 -5.16699 83.166 -15.5 119.499s-26.5 67.5 -48.5 93.5s-49.833 46.333 -83.5 61s-74.167 22 -121.5 22c-43.333 0 -83.666 -6.83301 -120.999 -20.5s-70.166 -36 -98.499 -67
s-51.5 -71.167 -69.5 -120.5s-29.333 -109.666 -34 -180.999h587z" />
    <glyph glyph-name="f" unicode="f" horiz-adv-x="797" 
d="M86 81l184 15.002v925h-213v77l213 37v102c0 62 12 120.167 36 174.5s56 101.666 96 141.999s85.667 72.333 137 96s104.666 35.5 159.999 35.5c30 0 53.167 -1.5 69.5 -4.5s30.5 -6.5 42.5 -10.5v-148c-8.66699 5.33301 -27.167 11.333 -55.5 18s-61.166 10 -98.499 10
c-38 0 -71.833 -4.5 -101.5 -13.5s-55 -23.833 -76 -44.5s-37 -47.834 -48 -81.501s-16.5 -75.167 -16.5 -124.5v-151h305v-114h-305v-925l238 -15v-81h-567v81z" />
    <glyph glyph-name="g" unicode="g" horiz-adv-x="1236" 
d="M97 -225c0 34 4.83398 66.1602 14.501 96.4932s22.334 58 38.001 83s33.5 47.167 53.5 66.5s40.333 35.333 61 48c-22 17.333 -39 38.333 -51 63s-18 53.334 -18 86.001c0 51.333 12.167 97.5 36.5 138.5s57.5 76.5 99.5 106.5c-57.333 30 -103 71.667 -137 125
s-51 116.333 -51 189c0 62.667 13.167 118.334 39.5 167.001s60.833 89.5 103.5 122.5s90.834 58.167 144.501 75.5s107.834 26 162.501 26h1c57.333 0 111.5 -6.83301 162.5 -20.5s95.833 -34.834 134.5 -63.501c8 6.66699 19.333 14.334 34 23.001s32 16.834 52 24.501
s42.167 14.167 66.5 19.5s49.5 8 75.5 8h76v-138h-239c19.333 -26.667 34.666 -56.667 45.999 -90s17 -71 17 -113c0 -62 -12.167 -118.167 -36.5 -168.5s-57 -93.5 -98 -129.5s-88.667 -63.667 -143 -83s-111.833 -29 -172.5 -29h-1c-53.333 0 -102.333 6.33301 -147 19
c-30 -20 -53.667 -43.167 -71 -69.5s-26 -57.5 -26 -93.5c0 -27.333 5.16699 -49.833 15.5 -67.5s25.5 -31.667 45.5 -42s44.667 -17.666 74 -21.999s63.333 -6.5 102 -6.5h270c64 0 117.833 -6.83301 161.5 -20.5s78.667 -32.667 105 -57s45.166 -53.666 56.499 -87.999
s17 -72.166 17 -113.499c0 -53.333 -13 -104.166 -39 -152.499s-63.333 -90.833 -112 -127.5s-107.667 -65.667 -177 -87s-147 -32 -233 -32h-1c-81.333 0 -153.833 7.66699 -217.5 23s-117.334 37.333 -161.001 66s-76.834 63 -99.501 103s-34 85 -34 135zM587.001 504.993
c93.333 0 163.333 24.499 210 73.499s70 121.833 70 218.5c0 96 -25 165.833 -75 209.5s-119.667 65.5 -209 65.5h-1c-38.667 0 -75.334 -4.33301 -110.001 -13s-65.167 -23.667 -91.5 -45s-47.333 -49.666 -63 -84.999s-23.5 -79.333 -23.5 -132
c0 -41.333 5.66699 -79.833 17 -115.5s29 -66.5 53 -92.5s54.333 -46.5 91 -61.5s80.334 -22.5 131.001 -22.5h1zM241.001 -187.008c0 -41.333 7.49805 -78.499 22.498 -111.499s38 -61.167 69 -84.5s70.167 -41.333 117.5 -54s103 -19 167 -19h2c62 0 118.667 6 170 18
s95.333 29.167 132 51.5s65 49.666 85 81.999s30 68.5 30 108.5c0 29.333 -2.83301 56 -8.5 80s-17.667 44.333 -36 61s-44.666 29.5 -78.999 38.5s-79.833 13.5 -136.5 13.5h-228c-42 0 -81.167 2.66699 -117.5 8s-69.166 13.666 -98.499 24.999
c-24.667 -23.333 -46 -53.166 -64 -89.499s-27 -78.833 -27 -127.5z" />
    <glyph glyph-name="h" unicode="h" horiz-adv-x="1323" 
d="M74 82l129 12.999v1463l-186 19v67l290 32h5l35 -24v-493l-4 -167c16.667 14 40.167 30.833 70.5 50.5s64.666 38.5 102.999 56.5s79.166 33.333 122.499 46s86.333 19 129 19c64.667 0 118.334 -9.33301 161.001 -28s76.5 -47.5 101.5 -86.5s42.5 -89 52.5 -150
s15 -133.833 15 -218.5v-586l151 -13v-82h-443v82l148 13v586c0 62 -3 115.833 -9 161.5s-17.667 83.5 -35 113.5s-42.166 52.333 -74.499 67s-74.833 22 -127.5 22c-30.667 0 -62.5 -4.66699 -95.5 -14s-65.5 -21.166 -97.5 -35.499s-62.5 -30.5 -91.5 -48.5
s-54.5 -35.667 -76.5 -53v-799l155 -13v-82h-428v82z" />
    <glyph glyph-name="i" unicode="i" horiz-adv-x="683" 
d="M95 82l185 13v921l-169 33v81l273 30h5l35 -30v-1035l185 -13v-82h-514v82zM317 1379c-15.333 0 -28.833 2.83203 -40.5 8.49902s-21.5 13.5 -29.5 23.5s-14.167 21.5 -18.5 34.5s-6.5 26.833 -6.5 41.5c0 16 2.16699 31.5 6.5 46.5s11 28.5 20 40.5s20.5 21.5 34.5 28.5
s30.333 10.5 49 10.5h1c16 0 30 -3.16699 42 -9.5s22.167 -14.666 30.5 -24.999s14.5 -22 18.5 -35s6 -26.167 6 -39.5c0 -17.333 -2.33301 -33.5 -7 -48.5s-11.5 -28.167 -20.5 -39.5s-20.667 -20.333 -35 -27s-30.833 -10 -49.5 -10h-1v0z" />
    <glyph glyph-name="j" unicode="j" horiz-adv-x="651" 
d="M280 1009l-169.999 33v88l276 30h5l35 -30v-1094c0 -170 -25.167 -298.5 -75.5 -385.5s-123.833 -135.167 -220.5 -144.5c-5.33301 -0.666992 -13.666 -1 -24.999 -1h-34.5c-11.667 0 -22.334 0.5 -32.001 1.5s-15.834 2.16699 -18.501 3.5l-8 77
c5.33301 -0.666992 12.333 -0.5 21 0.5s18 2.33301 28 4s20.167 3.66699 30.5 6l28.5 6.5c32 8.66699 58.5 26.167 79.5 52.5s37.667 59 50 98s20.833 83.5 25.5 133.5s7 103.667 7 161zM318.001 1379c-15.333 0 -28.833 2.83203 -40.5 8.49902s-21.5 13.5 -29.5 23.5
s-14.167 21.5 -18.5 34.5s-6.5 26.833 -6.5 41.5c0 16 2.16699 31.5 6.5 46.5s11 28.5 20 40.5s20.5 21.5 34.5 28.5s30.333 10.5 49 10.5h1c16 0 30 -3.16699 42 -9.5s22.167 -14.666 30.5 -24.999s14.5 -22 18.5 -35s6 -26.167 6 -39.5c0 -17.333 -2.33301 -33.5 -7 -48.5
s-11.5 -28.167 -20.5 -39.5s-20.667 -20.333 -35 -27s-30.833 -10 -49.5 -10h-1v0z" />
    <glyph glyph-name="k" unicode="k" horiz-adv-x="1254" 
d="M66 82l137 14v1462l-173 19v67l281 32h1l34 -24v-1023l-4 -129l530 535l-155 25v75h458v-75l-161 -26l-346 -336l422 -603l137 -13v-82h-459v82l152 14l-338 519l-239 -226l3 -106v-188l162 -13v-82h-442v82z" />
    <glyph glyph-name="l" unicode="l" horiz-adv-x="688" 
d="M94 82l186 14v1462l-180 19v67l288 33h1l35 -25v-1556l199 -14v-82h-529v82z" />
    <glyph glyph-name="m" unicode="m" horiz-adv-x="2040" 
d="M112 82l133.001 13.999v920l-165 33v81l251 30h5l36 -30v-95l-2 -53c22 19.333 49.667 39.666 83 60.999s69.333 41 108 59s78.167 32.833 118.5 44.5s79.166 17.5 116.499 17.5c72.667 0 131.167 -12.333 175.5 -37s78.166 -63 101.499 -115c18 14.667 42.5 31 73.5 49
s65.333 34.5 103 49.5s76.834 27.667 117.501 38s79.667 15.5 117 15.5c64.667 0 118.334 -9.33301 161.001 -28s76.667 -47.667 102 -87s43 -89.166 53 -149.499s15 -132.166 15 -215.499v-588l157 -14v-82h-444v82l143 14v582c0 60 -3.16699 113 -9.5 159
s-18.5 84.5 -36.5 115.5s-43.667 54.5 -77 70.5s-77 24 -131 24c-29.333 0 -59 -3.66699 -89 -11s-59 -16.833 -87 -28.5s-54.167 -24.5 -78.5 -38.5s-45.166 -27.667 -62.499 -41c7.33301 -34 12.666 -71.333 15.999 -112s5 -85.667 5 -135v-585l158 -14v-82h-454v82
l152 13v586c0 61.333 -2.33301 114.833 -7 160.5s-15.167 83.5 -31.5 113.5s-39.833 52.5 -70.5 67.5s-72 22.5 -124 22.5c-30 0 -61.333 -4.66699 -94 -14s-64.834 -21.333 -96.501 -36s-61.667 -31 -90 -49s-53.5 -35.333 -75.5 -52v-798l148 -14v-82h-424v82z" />
    <glyph glyph-name="n" unicode="n" horiz-adv-x="1361" 
d="M105 82l140 14.002v920l-165 33v81l251 30h5l36 -30v-95l-2 -53c22 19.333 50 39.666 84 60.999s70.667 41 110 59s80.333 32.833 123 44.5s83.667 17.5 123 17.5c66.667 0 121.167 -10 163.5 -30s75.5 -50 99.5 -90s40.5 -90.333 49.5 -151s13.5 -131.334 13.5 -212.001
v-586l156 -13v-82h-444v82l144 13v586c0 61.333 -2.83301 114.833 -8.5 160.5s-17.167 83.5 -34.5 113.5s-41.833 52.5 -73.5 67.5s-73.5 22.5 -125.5 22.5c-30.667 0 -62.667 -4.66699 -96 -14s-66 -21.333 -98 -36s-62.5 -31 -91.5 -49s-54.5 -35.333 -76.5 -52v-798
l152 -14v-82h-435v82z" />
    <glyph glyph-name="o" unicode="o" horiz-adv-x="1227" 
d="M102 577c0 92 15.002 174.5 45.002 247.5s69.5 135 118.5 186s104.5 90 166.5 117s125.333 40.5 190 40.5c92.667 0 171 -16.333 235 -49s115.833 -76.667 155.5 -132s68.334 -119.166 86.001 -191.499s26.5 -148.166 26.5 -227.499c0 -92 -15 -174.5 -45 -247.5
s-69.5 -135 -118.5 -186s-104.667 -90 -167 -117s-125.833 -40.5 -190.5 -40.5c-92.667 0 -170.834 16.333 -234.501 49s-115.334 76.667 -155.001 132s-68.334 119.166 -86.001 191.499s-26.5 148.166 -26.5 227.499zM612.002 81c54 0 102.667 10.001 146 30.001
s80 50 110 90s53.167 89.833 69.5 149.5s24.5 129.167 24.5 208.5c0 66.667 -6.16699 130.5 -18.5 191.5s-32.333 114.833 -60 161.5s-63.5 83.667 -107.5 111s-98 41 -162 41c-54 0 -102.5 -10.167 -145.5 -30.5s-79.5 -50.5 -109.5 -90.5s-53.167 -89.833 -69.5 -149.5
s-24.5 -128.834 -24.5 -207.501c0 -68 6.16699 -132.5 18.5 -193.5s32.333 -114.667 60 -161s63.5 -83 107.5 -110s97.667 -40.5 161 -40.5z" />
    <glyph glyph-name="p" unicode="p" horiz-adv-x="1271" 
d="M360 -162l-0.000976562 -228.003l235 -20v-86h-537v86l159 19v1407l-165 33v81l251 30h5l34 -30v-128c18 18.667 39.5 37.834 64.5 57.501s53.5 37.5 85.5 53.5s67.167 29.167 105.5 39.5s79.5 15.5 123.5 15.5c56.667 0 111.834 -10.667 165.501 -32
s101.5 -54.666 143.5 -99.999s75.667 -103.166 101 -173.499s38 -154.5 38 -252.5c0 -88 -13.667 -170.333 -41 -247s-66 -143.667 -116 -201s-110.5 -102.5 -181.5 -135.5s-150.167 -49.5 -237.5 -49.5c-19.333 0 -39.666 0.833008 -60.999 2.5s-42.5 4 -63.5 7
s-41.333 6.83301 -61 11.5s-36.834 9.66699 -51.501 15zM359.999 140.997c4.66699 -8 14.498 -16.332 29.498 -24.999s33.333 -16.5 55 -23.5s46 -12.667 73 -17s55.5 -6.5 85.5 -6.5c58 0 111.833 10.333 161.5 31s92.834 52.334 129.501 95.001
s65.334 96.167 86.001 160.5s31.667 140.166 33 227.499c0.666992 83.333 -8.33301 154.666 -27 213.999s-44.167 107.833 -76.5 145.5s-70 65.167 -113 82.5s-88.167 26 -135.5 26c-34 0 -66.5 -4.16699 -97.5 -12.5s-59.5 -18.833 -85.5 -31.5s-49 -26.5 -69 -41.5
s-36.333 -29.5 -49 -43.5v-781z" />
    <glyph glyph-name="q" unicode="q" horiz-adv-x="1241" 
d="M551 -23c-56.667 0 -111.833 11.3301 -165.5 33.9971s-101.5 57.334 -143.5 104.001s-75.833 105.834 -101.5 177.501s-38.5 156.5 -38.5 254.5c0 86.667 13.5 167.834 40.5 243.501s65.5 141.5 115.5 197.5s110.833 100 182.5 132s152.5 48 242.5 48
c46.667 0 92 -3.66699 136 -11s83 -16 117 -26l85 30h1l31 -31v-1530l146 -19v-77h-524v77l235 18v353l6 183c-18.667 -18 -40.334 -36.333 -65.001 -55s-52.167 -35.667 -82.5 -51s-63.666 -27.833 -99.999 -37.5s-75.5 -14.5 -117.5 -14.5zM612.001 84.9971
c35.333 0 68.502 4.49707 99.502 13.4971s59.167 20.333 84.5 34s47.666 28 66.999 43s34.666 28.5 45.999 40.5v794c-4 8.66699 -13.5 17.5 -28.5 26.5s-33.667 17.167 -56 24.5s-47.333 13.333 -75 18s-55.5 7 -83.5 7c-58 0 -111.667 -10.333 -161 -31
s-92.166 -52 -128.499 -94s-65 -95.167 -86 -159.5s-31.833 -140.166 -32.5 -227.499c-0.666992 -83.333 8.33301 -155.666 27 -216.999s44.167 -112.166 76.5 -152.499s70.166 -70.333 113.499 -90s89 -29.5 137 -29.5z" />
    <glyph glyph-name="r" unicode="r" horiz-adv-x="915" 
d="M104 77l165.998 13.0039v926l-165 33v81l250 30h5l36 -30v-74l-1 -111h1c4 3.33301 11.667 11.166 23 23.499s25.833 26.666 43.5 42.999s38.5 33.833 62.5 52.5s50.667 35.667 80 51s61.166 28 95.499 38s70.833 15 109.5 15c13.333 0 24.833 -0.833008 34.5 -2.5
s18.167 -3.83398 25.5 -6.50098v-155c-4 2.66699 -14.333 6 -31 10s-34.667 6 -54 6c-47.333 0 -90.166 -4.66699 -128.499 -14s-72.666 -21 -102.999 -35s-57.166 -28.833 -80.499 -44.5s-43 -29.834 -59 -42.501v-794l274 -13v-77h-584v77z" />
    <glyph glyph-name="s" unicode="s" horiz-adv-x="1029" 
d="M138 318h97.9941l28 -161c7.33301 -10.667 19.333 -21.334 36 -32.001s36.334 -20.334 59.001 -29.001s47.667 -15.667 75 -21s55 -8 83 -8c47.333 0 87.833 4.5 121.5 13.5s61.334 21.833 83.001 38.5s37.667 37 48 61s15.5 51 15.5 81
c0 31.333 -6.5 58.666 -19.5 81.999s-32.5 44.5 -58.5 63.5s-58.333 36.833 -97 53.5s-83.667 34 -135 52c-53.333 18.667 -100.166 39.334 -140.499 62.001s-74 48.5 -101 77.5s-47.333 61.667 -61 98s-20.5 77.833 -20.5 124.5c0 44.667 10.833 84.834 32.5 120.501
s50.5 65.834 86.5 90.501s77.5 43.5 124.5 56.5s96.167 19.5 147.5 19.5c40 0 76.833 -2.5 110.5 -7.5s63.667 -11 90 -18s48.666 -14 66.999 -21s32.166 -12.5 41.499 -16.5v-240h-89l-32 154c-5.33301 8.66699 -14.666 16.834 -27.999 24.501s-29.333 14.167 -48 19.5
s-39.167 9.5 -61.5 12.5s-45.166 4.5 -68.499 4.5c-32 0.666992 -62.5 -2.83301 -91.5 -10.5s-54.5 -18.667 -76.5 -33s-39.5 -32.166 -52.5 -53.499s-19.5 -45.333 -19.5 -72c0 -40 8 -73.5 24 -100.5s37 -50 63 -69s55.667 -35.167 89 -48.5l102 -41
c45.333 -18 89.333 -36.5 132 -55.5s80.5 -41.333 113.5 -67s59.333 -56.334 79 -92.001s29.5 -78.834 29.5 -129.501c0 -51.333 -10.333 -97.166 -31 -137.499s-49.667 -74.333 -87 -102s-81.666 -48.667 -132.999 -63s-107.666 -21.5 -168.999 -21.5
c-30 0 -62.5 2.66699 -97.5 8s-69.167 12.333 -102.5 21s-64.166 18.167 -92.499 28.5s-50.5 20.166 -66.5 29.499v254z" />
    <glyph glyph-name="t" unicode="t" horiz-adv-x="830" 
d="M229 1021l-157.997 0.000976562v78c8.66699 1.33301 19.167 3.16602 31.5 5.49902l36.5 7c12 2.33301 22.833 5 32.5 8s16.5 5.83301 20.5 8.5c10.667 5.33301 19 12.833 25 22.5s11.667 22.167 17 37.5c4 12 8.83301 28.333 14.5 49l17.5 63.5c6 21.667 11.333 42 16 61
s7.66699 32.833 9 41.5h82v-268h375v-114h-375v-683c0 -56.667 1.5 -101.334 4.5 -134.001s9.16699 -57.167 18.5 -73.5s22.666 -26.5 39.999 -30.5s40.333 -6 69 -6h1c21.333 0 44.166 1.66699 68.499 5s48.166 7.83301 71.499 13.5s45 11.834 65 18.501s36 13 48 19h1
l23 -70c-14 -11.333 -34.667 -23 -62 -35s-57 -23 -89 -33s-64.833 -18.333 -98.5 -25s-63.834 -10 -90.501 -10h-2c-32 0 -61 3.33301 -87 10s-48.167 18.5 -66.5 35.5s-32.666 40 -42.999 69s-15.5 65.833 -15.5 110.5v819z" />
    <glyph glyph-name="u" unicode="u" horiz-adv-x="1310" 
d="M200 1034l-124 33v68l233 24h1l34 -22v-684c0 -62.667 3 -116.667 9 -162s17.667 -82.5 35 -111.5s41.666 -50.5 72.999 -64.5s72 -21 122 -21c34.667 0 68.334 4.66699 101.001 14s63.5 21 92.5 35s55.333 29.333 79 46s44.167 32.667 61.5 48v796l-162 34v68l260 24h2
l44 -22v-1055h130l-1 -71l-72 -19c-25.333 -6.66699 -55.333 -10 -90 -10c-30 0 -53.5 5 -70.5 15s-25.5 31.667 -25.5 65v92c-20.667 -19.333 -45.5 -39.5 -74.5 -60.5s-60.5 -40.167 -94.5 -57.5s-70 -31.5 -108 -42.5s-76.333 -16.5 -115 -16.5
c-63.333 0 -116.666 8.66699 -159.999 26s-78.333 44.333 -105 81s-45.834 83 -57.501 139s-17.5 122.667 -17.5 200v611z" />
    <glyph glyph-name="v" unicode="v" horiz-adv-x="1155" 
d="M101 1036l-95 22v77h407v-77l-150 -22l228 -626l106 -295l89 283l230 637l-146 23v77h382v-77l-106 -24l-408 -1052h-120z" />
    <glyph glyph-name="w" unicode="w" horiz-adv-x="1746" 
d="M114 1035l-107 23v77h424v-77l-164 -22l180 -653l75 -294l69 296l222 750h158l201 -749l70 -302l77 299l188 651l-159 24v77h385v-77l-109 -23l-323 -1053h-149l-220 774l-62 272l-57 -272l-232 -774h-143z" />
    <glyph glyph-name="x" unicode="x" horiz-adv-x="1208" 
d="M16 82l142 15l373 473l-359 467l-122 21v77h454v-77l-149 -21l211 -303l62 -90l58 90l226 303l-163 21v77h418v-77l-129 -21l-359 -446l375 -496l126 -13v-82h-473v82l152 15l-214 314l-65 92l-55 -88l-232 -317l187 -16v-82h-464v82z" />
    <glyph glyph-name="y" unicode="y" horiz-adv-x="1165" 
d="M149 -354c4 -2 9.83105 -3.83301 17.498 -5.5s16 -3 25 -4s18.333 -1.66699 28 -2s18.5 -0.5 26.5 -0.5c29.333 0 58 4 86 12s56 24.833 84 50.5s55.833 62.5 83.5 110.5s56.167 112.333 85.5 193h-79l-403 1035l-97 23v77h433v-77l-166 -21l225 -632l112 -345l109 347
l192 629l-147 22v77h386v-77l-110 -22l-114 -347.5l-86 -262.5l-62.5 -190l-43.5 -130.5c-12 -35 -22 -63.167 -30 -84.5s-14.667 -38.333 -20 -51c-32 -79.333 -61.667 -149 -89 -209s-57.166 -110 -89.499 -150s-69.166 -70.167 -110.499 -90.5s-92 -30.5 -152 -30.5
c-8.66699 0 -17.667 0.333008 -27 1s-18.333 1.66699 -27 3s-16.5 2.83301 -23.5 4.5s-12.5 3.5 -16.5 5.5v142v0z" />
    <glyph glyph-name="z" unicode="z" horiz-adv-x="1119" 
d="M55 71l673 847l130 118l-602 -18l-27 -190h-100v307h857l33 -71l-669 -851l-134 -115l654 18l61 227l93 -12l-30 -331h-905z" />
    <glyph glyph-name="braceleft" unicode="{" horiz-adv-x="1026" 
d="M308 -24c0 48 6.6709 93.165 20.0039 135.498s28.166 83.333 44.499 123s31.166 78.334 44.499 116.001s20 75.834 20 114.501c0 24 -4.33301 46 -13 66s-24.167 37 -46.5 51s-52.666 24.833 -90.999 32.5s-87.166 11.5 -146.499 11.5v137
c59.333 0 108.166 2.83301 146.499 8.5s68.666 14.334 90.999 26.001s37.833 26.334 46.5 44.001s13 38.5 13 62.5c0 38.667 -6.66699 76.834 -20 114.501s-28.166 76.334 -44.499 116.001s-31.166 80.667 -44.499 123s-20 87.5 -20 135.5c0 41.333 4.66699 77.833 14 109.5
s25.833 58.167 49.5 79.5s55.334 37.5 95.001 48.5s89.834 16.5 150.501 16.5c44 0 85.667 -3 125 -9s77.333 -14.333 114 -25v-75c-4.66699 2 -15.834 3.5 -33.501 4.5s-36.834 2 -57.501 3s-39.834 1.66699 -57.501 2s-28.834 0.5 -33.501 0.5
c-34.667 0 -65.5 -2.83301 -92.5 -8.5s-50 -15.334 -69 -29.001s-33.5 -32.167 -43.5 -55.5s-15 -53 -15 -89c0 -34 5.66699 -70.833 17 -110.5s23.666 -80.167 36.999 -121.5s25.666 -82.5 36.999 -123.5s17 -79.833 17 -116.5c0 -32 -5.66699 -59.833 -17 -83.5
s-27.166 -43.667 -47.499 -60s-44.333 -29.5 -72 -39.5s-57.5 -17.333 -89.5 -22c32 -4 61.833 -11.5 89.5 -22.5s51.667 -25.333 72 -43s36.166 -38.834 47.499 -63.501s17 -53 17 -85c0 -37.333 -5.66699 -76.333 -17 -117s-23.666 -81.5 -36.999 -122.5
s-25.666 -81.333 -36.999 -121s-17 -76.834 -17 -111.501c0 -36.667 4.83301 -66.667 14.5 -90s24 -41.833 43 -55.5s42 -23.167 69 -28.5s58.167 -8 93.5 -8c6 0 18 0.166992 36 0.5s37 1 57 2s38.667 2.16699 56 3.5s28.333 2.66602 33 3.99902v-75
c-36.667 -10.667 -74.667 -19 -114 -25s-81 -9 -125 -9c-60.667 0 -110.834 5.5 -150.501 16.5s-71.334 27.167 -95.001 48.5s-40.167 47.833 -49.5 79.5s-14 68.167 -14 109.5z" />
    <glyph glyph-name="bar" unicode="|" horiz-adv-x="865" 
d="M367 1780h131v-1966h-131v1966z" />
    <glyph glyph-name="braceright" unicode="}" horiz-adv-x="1026" 
d="M718 -24c0 48 -6.6709 93.165 -20.0039 135.498s-28.166 83.333 -44.499 123s-31.166 78.334 -44.499 116.001s-20 75.834 -20 114.501c0 24 4.33301 46 13 66s24.167 37 46.5 51s52.666 24.833 90.999 32.5s87.166 11.5 146.499 11.5v137
c-59.333 0 -108.166 2.83301 -146.499 8.5s-68.666 14.334 -90.999 26.001s-37.833 26.334 -46.5 44.001s-13 38.5 -13 62.5c0 38.667 6.66699 76.834 20 114.501s28.166 76.334 44.499 116.001s31.166 80.667 44.499 123s20 87.5 20 135.5
c0 41.333 -4.66699 77.833 -14 109.5s-25.833 58.167 -49.5 79.5s-55.334 37.5 -95.001 48.5s-89.834 16.5 -150.501 16.5c-44 0 -85.667 -3 -125 -9s-77.333 -14.333 -114 -25v-75c4.66699 2 15.834 3.5 33.501 4.5s36.834 2 57.501 3s39.834 1.66699 57.501 2
s28.834 0.5 33.501 0.5c34.667 0 65.5 -2.83301 92.5 -8.5s50 -15.334 69 -29.001s33.5 -32.167 43.5 -55.5s15 -53 15 -89c0 -34 -5.66699 -70.833 -17 -110.5s-23.666 -80.167 -36.999 -121.5s-25.666 -82.5 -36.999 -123.5s-17 -79.833 -17 -116.5
c0 -32 5.66699 -59.833 17 -83.5s27.166 -43.667 47.499 -60s44.333 -29.5 72 -39.5s57.5 -17.333 89.5 -22c-32 -4 -61.833 -11.5 -89.5 -22.5s-51.667 -25.333 -72 -43s-36.166 -38.834 -47.499 -63.501s-17 -53 -17 -85c0 -37.333 5.66699 -76.333 17 -117
s23.666 -81.5 36.999 -122.5s25.666 -81.333 36.999 -121s17 -76.834 17 -111.501c0 -36.667 -4.83301 -66.667 -14.5 -90s-24 -41.833 -43 -55.5s-42 -23.167 -69 -28.5s-58.167 -8 -93.5 -8c-6 0 -18 0.166992 -36 0.5s-37 1 -57 2s-38.667 2.16699 -56 3.5
s-28.333 2.66602 -33 3.99902v-75c36.667 -10.667 74.667 -19 114 -25s81 -9 125 -9c60.667 0 110.834 5.5 150.501 16.5s71.334 27.167 95.001 48.5s40.167 47.833 49.5 79.5s14 68.167 14 109.5z" />
    <glyph glyph-name="asciitilde" unicode="~" horiz-adv-x="1410" 
d="M229 587c12 20.667 27.6689 41.499 47.002 62.499s42 39.833 68 56.5s54.667 30.167 86 40.5s64.666 15.5 99.999 15.5c29.333 0 55.666 -4.16699 78.999 -12.5s45.166 -18.833 65.499 -31.5s39.333 -26.5 57 -41.5s35.334 -28.833 53.001 -41.5s36 -23.167 55 -31.5
s39.5 -12.5 61.5 -12.5c24.667 0 47.834 3.66699 69.501 11s41.5 17 59.5 29s34.167 25.333 48.5 40s26.833 29.334 37.5 44.001l64 -68c-12 -22 -28 -43.5 -48 -64.5s-42.833 -39.667 -68.5 -56s-54 -29.5 -85 -39.5s-63.833 -15 -98.5 -15
c-29.333 0 -55.5 4.16699 -78.5 12.5s-44.333 18.833 -64 31.5s-38.334 26.5 -56.001 41.5s-35.334 28.833 -53.001 41.5s-36.167 23.167 -55.5 31.5s-40.666 12.5 -63.999 12.5c-25.333 0 -49 -3.83301 -71 -11.5s-42 -17.5 -60 -29.5s-34 -25.333 -48 -40
s-26.333 -29 -37 -43z" />
    <glyph glyph-name="DEL" 
 />
    <glyph glyph-name="nonbreakingspace" unicode="&#xa0;" horiz-adv-x="670" 
 />
    <glyph glyph-name="exclamdown" unicode="&#xa1;" horiz-adv-x="728" 
d="M461 -364h-169l36 1324h92zM483 1334c0 -16.667 -3.66699 -32.501 -11 -47.501s-17 -28 -29 -39s-25.5 -19.667 -40.5 -26s-30.167 -9.5 -45.5 -9.5c-37.333 0 -64.333 10.5 -81 31.5s-25 45.5 -25 73.5c0 18 3.5 34.5 10.5 49.5s16.333 27.833 28 38.5
s25 18.834 40 24.501s30.5 8.5 46.5 8.5c14 0 27.5 -2.33301 40.5 -7s24.333 -11.5 34 -20.5s17.5 -20 23.5 -33s9 -27.5 9 -43.5z" />
    <glyph glyph-name="cent" unicode="&#xa2;" horiz-adv-x="1196" 
d="M552 -13c-64.667 12.667 -121.499 35.9971 -170.499 69.9971s-90.167 76 -123.5 126s-58.5 106.5 -75.5 169.5s-25.833 130.167 -26.5 201.5c-0.666992 74 9.5 145.5 30.5 214.5s52 131 93 186s91.833 101 152.5 138s130.334 60.5 209.001 70.5l12 212h105l-12 -208
c26 -1.33301 51.833 -4.16602 77.5 -8.49902s49.667 -9.5 72 -15.5s42.833 -12.333 61.5 -19s34 -12.667 46 -18l-8 -275h-91l-39 190c-16.667 16.667 -40.667 30.334 -72 41.001s-69 16 -113 16c-54 0 -103.667 -10.833 -149 -32.5s-84.333 -52.667 -117 -93
s-58.167 -89 -76.5 -146s-27.5 -120.833 -27.5 -191.5c-0.666992 -89.333 8.66602 -167.166 27.999 -233.499s46 -121.5 80 -165.5s74.333 -76.833 121 -98.5s97 -32.5 151 -32.5c31.333 0 62.333 2.83301 93 8.5s59.5 13 86.5 22s51.667 19 74 30
s41.166 21.833 56.499 32.5l29 -56c-19.333 -19.333 -43 -37.833 -71 -55.5s-58.5 -33.167 -91.5 -46.5s-67.333 -23.833 -103 -31.5s-70.5 -11.5 -104.5 -11.5h-2l-12 -220h-106l13 230v0z" />
    <glyph glyph-name="sterling" unicode="&#xa3;" horiz-adv-x="1494" 
d="M153 67c0 16.667 5.83691 33.499 17.5039 50.499s27.5 32.167 47.5 45.5s43.667 23.666 71 30.999s56.666 10 87.999 8c8 13.333 16.167 32.666 24.5 57.999s15.833 53.5 22.5 84.5s12 63.5 16 97.5s6 66.333 6 97v245h-215v93h215v144c0 79.333 12.667 151 38 215
s59.833 118.333 103.5 163s94.334 79 152.001 103s118.834 36 183.501 36c60 0 116.667 -8 170 -24s98.333 -40.333 135 -73l-84 -118c-5.33301 8.66699 -16 19.5 -32 32.5s-36.333 25.333 -61 37s-52.834 21.667 -84.501 30s-65.834 12.5 -102.501 12.5
c-30.667 0 -61.667 -5.16699 -93 -15.5s-59.833 -29.666 -85.5 -57.999s-46.5 -67.5 -62.5 -117.5s-24 -114.333 -24 -193v-174h332v-93h-332v-218c0 -43.333 -3.66699 -83.666 -11 -120.999s-17 -71.666 -29 -102.999s-25.833 -59.666 -41.5 -84.999
s-31.5 -47.666 -47.5 -66.999c48 -2.66699 94.833 -8.33398 140.5 -17.001s91 -17.834 136 -27.501s89.833 -18.167 134.5 -25.5s89.667 -11 135 -11c42.667 0 78.334 4.83301 107.001 14.5s51.834 23.5 69.501 41.5s30.334 40 38.001 66s11.5 55.667 11.5 89
c0 18.667 -1 37.334 -3 56.001s-4.83301 35.834 -8.5 51.501s-8.16699 29.667 -13.5 42s-11.333 21.5 -18 27.5h161c9.33301 -11.333 17.666 -28.833 24.999 -52.5s11 -55.834 11 -96.501c0 -42.667 -10 -85.667 -30 -129s-47.333 -82.333 -82 -117
s-75.334 -62.834 -122.001 -84.501s-97 -32.5 -151 -32.5c-58.667 0 -112.834 6.5 -162.501 19.5s-97.834 27.333 -144.501 43s-93.334 30.167 -140.001 43.5s-96.334 20.333 -149.001 21c-11.333 -14 -23.833 -27.667 -37.5 -41s-28.167 -25.333 -43.5 -36
s-31.5 -19.167 -48.5 -25.5s-34.5 -9.5 -52.5 -9.5c-8 -0 -16.667 0.833008 -26 2.5s-18 5 -26 10s-14.667 11.833 -20 20.5s-8 20 -8 34z" />
    <glyph glyph-name="currency" unicode="&#xa4;" horiz-adv-x="1547" 
d="M425 497c-28 36.667 -49.5 77.335 -64.5 122.002s-22.5 92.667 -22.5 144c0 52 7.83301 101.833 23.5 149.5s38.167 90.834 67.5 129.501l-208 209l95 97l209 -212c34.667 25.333 72.667 44.833 114 58.5s85 20.5 131 20.5c46.667 0 91 -6.5 133 -19.5
s81 -31.167 117 -54.5l209 209l97 -97l-205 -204c29.333 -36 52 -76.5 68 -121.5s24 -93.167 24 -144.5c0 -52.667 -8.5 -102.834 -25.5 -150.501s-40.5 -90.834 -70.5 -129.501l205 -206l-96 -97l-208 209c-36 -24.667 -74.833 -43.834 -116.5 -57.501
s-85.5 -20.5 -131.5 -20.5s-89.667 6.33301 -131 19s-79.333 30.667 -114 54l-208 -208l-96 97zM771 441.001c52 0 97.832 8.66699 137.499 26s72.834 41 99.501 71s46.667 64.833 60 104.5s20 82.167 20 127.5c0 46 -8.5 89.333 -25.5 130s-40.167 76.167 -69.5 106.5
s-63.5 54.5 -102.5 72.5s-80.5 27 -124.5 27c-50 0 -94.167 -9.5 -132.5 -28.5s-70.666 -44.167 -96.999 -75.5s-46.333 -67.5 -60 -108.5s-20.5 -83.5 -20.5 -127.5c0 -45.333 8.16699 -87.833 24.5 -127.5s38.833 -74.167 67.5 -103.5s62.167 -52.333 100.5 -69
s79.166 -25 122.499 -25z" />
    <glyph glyph-name="yen" unicode="&#xa5;" horiz-adv-x="1560" 
d="M243 465h472v298h-472v90h414l-406 579l-127 20v70h468v-70l-183 -20l289 -443l89 -131l92 136l280 437l-179 21v70h435v-70l-140 -21l-385 -578h427v-90h-474v-298h474v-91h-474v-283l240 -21v-70h-605v70l237 22v282h-472v91z" />
    <glyph glyph-name="brokenbar" unicode="&#xa6;" horiz-adv-x="865" 
d="M367 1780h132v-830h-132v830zM367 641h131v-827h-131v827z" />
    <glyph glyph-name="section" unicode="&#xa7;" horiz-adv-x="1362" 
d="M216 246l94.0029 0.00488281l26 -266c12.667 -11.333 30.167 -22 52.5 -32s47.666 -19 75.999 -27s59.166 -14.333 92.499 -19s67.666 -7 102.999 -7c62 0 115.333 5.33301 160 16s81.5 25.334 110.5 44.001s50.5 40.667 64.5 66s21 52.666 21 81.999
c0 41.333 -12 77.5 -36 108.5s-55.5 58.667 -94.5 83s-83.5 46.166 -133.5 65.499l-153 57c-46 16 -93.167 36.333 -141.5 61s-92.166 54.667 -131.499 90s-71.5 76.833 -96.5 124.5s-37.5 102.834 -37.5 165.501c0 60 12.833 110.167 38.5 150.5s62.5 77.166 110.5 110.499
c-34 31.333 -61.667 66.333 -83 105s-32 82.334 -32 131.001c0 49.333 11.5 94.166 34.5 134.499s55.667 74.833 98 103.5s93.666 50.834 153.999 66.501s127.5 23.5 201.5 23.5c46.667 0 90.167 -3.33301 130.5 -10s76.833 -14.334 109.5 -23.001
s61.334 -16.834 86.001 -24.501s44.667 -12.834 60 -15.501l-13 -326h-89l-47 250c-5.33301 4.66699 -14.666 10.167 -27.999 16.5s-30.5 12 -51.5 17s-45.167 9.33301 -72.5 13s-57.333 5.5 -90 5.5c-108 0 -191.833 -16.5 -251.5 -49.5s-89.5 -82.833 -89.5 -149.5
c0 -47.333 10.333 -87.166 31 -119.499s48.5 -60.5 83.5 -84.5s75.333 -45.167 121 -63.5l143.5 -56.5c28.667 -11.333 59.334 -24.166 92.001 -38.499s65 -30.666 97 -48.999s62.5 -38.833 91.5 -61.5s54.667 -47.834 77 -75.501s40.166 -58.334 53.499 -92.001
s20 -70.5 20 -110.5c0 -56 -13.333 -106.333 -40 -151s-63.334 -85.667 -110.001 -123c39.333 -30 71.5 -63 96.5 -99s37.5 -75.667 37.5 -119c0 -42.667 -9.83301 -84.834 -29.5 -126.501s-50.334 -78.834 -92.001 -111.501s-94.667 -59 -159 -79s-141.5 -30 -231.5 -30
c-58 0 -111.667 4.66699 -161 14s-93.5 19.666 -132.5 30.999s-72.667 22 -101 32s-50.5 15.667 -66.5 17zM685.003 534.005c36 -13.333 76.167 -29.3301 120.5 -47.9971s88.166 -40.334 131.499 -65.001c28.667 24.667 51.334 51.667 68.001 81s25 63.666 25 102.999
c0 42.667 -9.33301 80.834 -28 114.501s-44.334 64 -77.001 91s-71.667 51.333 -117 73s-94.333 42.167 -147 61.5c-36.667 13.333 -76 29.333 -118 48s-82.667 40.667 -122 66c-14.667 -11.333 -28 -23 -40 -35s-22.167 -24.667 -30.5 -38s-14.666 -27.833 -18.999 -43.5
s-6.5 -32.834 -6.5 -51.501c0 -46.667 9 -87.834 27 -123.501s43 -67.5 75 -95.5s70 -53 114 -75s92 -43 144 -63z" />
    <glyph glyph-name="dieresis" unicode="&#xa8;" horiz-adv-x="1022" 
d="M724 1379c-14.667 0 -27.833 2.83203 -39.5 8.49902s-21.5 13.5 -29.5 23.5s-14.167 21.5 -18.5 34.5s-6.5 26.833 -6.5 41.5c0 16 2.16699 31.5 6.5 46.5s11 28.5 20 40.5s20.333 21.5 34 28.5s29.834 10.5 48.501 10.5h1c16 0 30.167 -3.16699 42.5 -9.5
s22.666 -14.666 30.999 -24.999s14.5 -22 18.5 -35s6 -26.167 6 -39.5c0 -17.333 -2.33301 -33.5 -7 -48.5s-11.667 -28.167 -21 -39.5s-21 -20.333 -35 -27s-30.667 -10 -50 -10h-1zM283.001 1379c-15.333 0 -28.833 2.83203 -40.5 8.49902s-21.5 13.5 -29.5 23.5
s-14.167 21.5 -18.5 34.5s-6.5 26.833 -6.5 41.5c0 16 2.16699 31.5 6.5 46.5s11 28.5 20 40.5s20.5 21.5 34.5 28.5s30.333 10.5 49 10.5h1c16 0 30 -3.16699 42 -9.5s22.167 -14.666 30.5 -24.999s14.5 -22 18.5 -35s6 -26.167 6 -39.5c0 -17.333 -2.33301 -33.5 -7 -48.5
s-11.5 -28.167 -20.5 -39.5s-20.667 -20.333 -35 -27s-30.833 -10 -49.5 -10h-1z" />
    <glyph glyph-name="copyright" unicode="&#xa9;" horiz-adv-x="2129" 
d="M194 1003c0 80.667 10.1729 158.5 30.5059 233.5s49.333 145 87 210s82.834 124.167 135.501 177.5s111.167 99 175.5 137s133.666 67.333 207.999 88s152.166 31 233.499 31s159.166 -10.333 233.499 -31s143.833 -50 208.5 -88s123.334 -83.667 176.001 -137
s97.667 -112.5 135 -177.5s66.333 -135 87 -210s31 -152.833 31 -233.5c0 -81.333 -10.333 -159.5 -31 -234.5s-49.667 -145.167 -87 -210.5s-82.333 -124.833 -135 -178.5s-111.334 -99.5 -176.001 -137.5s-134.334 -67.5 -209.001 -88.5s-152.334 -31.5 -233.001 -31.5
s-158.334 10.5 -233.001 31.5s-144.167 50.5 -208.5 88.5s-122.833 83.833 -175.5 137.5s-97.834 113.167 -135.501 178.5s-66.667 135.5 -87 210.5s-30.5 153.167 -30.5 234.5zM295.006 1003c0 -71.333 9 -140.498 27 -207.498s43.333 -129.667 76 -188
s72.167 -111.666 118.5 -159.999s98 -90 155 -125s118.5 -62 184.5 -81s135.333 -28.5 208 -28.5s142 9.5 208 28.5s127.5 46 184.5 81s108.667 76.667 155 125s85.833 101.666 118.5 159.999s58 121 76 188s27 136.167 27 207.5s-9 140.5 -27 207.5
s-43.333 129.667 -76 188s-72.167 111.666 -118.5 159.999s-98 89.833 -155 124.5s-118.5 61.5 -184.5 80.5s-135.333 28.5 -208 28.5s-142 -9.5 -208 -28.5s-127.5 -45.833 -184.5 -80.5s-108.667 -76.334 -155 -125.001s-85.833 -102.167 -118.5 -160.5
s-58 -120.833 -76 -187.5s-27 -135.667 -27 -207zM623.006 994.002c0 69.333 12.8311 134.499 38.498 195.499s61 114 106 159s98.333 80.5 160 106.5s128.834 39 201.501 39c22 0 45.833 -1.33301 71.5 -4s50.334 -6.5 74.001 -11.5s45.334 -11.167 65.001 -18.5
s34.5 -16 44.5 -26v-210h-88l-38 128c-16 11.333 -38 20.5 -66 27.5s-68 10.5 -120 10.5c-46.667 0 -88.5 -8.5 -125.5 -25.5s-68.333 -41.167 -94 -72.5s-45.334 -69.666 -59.001 -114.999s-20.5 -96.333 -20.5 -153c0 -59.333 8.16699 -112.666 24.5 -159.999
s39.5 -87.5 69.5 -120.5s66.667 -58.333 110 -76s92 -26.5 146 -26.5c48 0 91.5 8.83301 130.5 26.5s73.167 41.5 102.5 71.5l38 -70c-14 -18 -32.167 -36.167 -54.5 -54.5s-47.5 -34.666 -75.5 -48.999s-58.5 -26 -91.5 -35s-67.167 -13.5 -102.5 -13.5
c-74 0 -138.833 11.833 -194.5 35.5s-102.167 56.667 -139.5 99s-65.5 92.666 -84.5 150.999s-28.5 122.166 -28.5 191.499z" />
    <glyph glyph-name="ordfeminine" unicode="&#xaa;" horiz-adv-x="1028" 
d="M411 669c-40 0 -76.833 5.99805 -110.5 17.998s-62.834 29 -87.501 51s-44 48.333 -58 79s-21 64.667 -21 102c0 100.667 49.833 175.834 149.5 225.501s247.834 76.167 444.501 79.5v30c0 48.667 -3.66699 88.5 -11 119.5s-19.666 55.5 -36.999 73.5
s-40.5 30.5 -69.5 37.5s-65.167 10.5 -108.5 10.5c-29.333 0 -58.333 -2.83301 -87 -8.5s-56.334 -12.667 -83.001 -21s-51.667 -17.666 -75 -27.999s-43.666 -19.833 -60.999 -28.5l-46 83c18.667 12 43.167 24.667 73.5 38s62.833 25.333 97.5 36
s70.334 19.5 107.001 26.5s71 10.5 103 10.5c58 0 108 -5.66699 150 -17s76.667 -30 104 -56s47.666 -60 60.999 -102s20 -93.667 20 -155v-513h117v-64c-21.333 -5.33301 -46.166 -10.666 -74.499 -15.999s-56.5 -8 -84.5 -8c-14 0 -26.333 0.5 -37 1.5
s-19.667 3.66699 -27 8s-13 10.833 -17 19.5s-6 20.667 -6 36v74c-16 -14.667 -35 -30.334 -57 -47.001s-46.833 -32 -74.5 -46s-57.834 -25.667 -90.501 -35s-67.334 -14 -104.001 -14zM470 768.998c25.333 0 51.667 4.33203 79 12.999s53 19.334 77 32.001
s45 25.5 63 38.5s31 24.167 39 33.5v254c-80 -2 -148 -7.33301 -204 -16s-101.833 -21.5 -137.5 -38.5s-61.667 -38.333 -78 -64s-24.5 -56.167 -24.5 -91.5c0 -23.333 4 -44.833 12 -64.5s20 -36.667 36 -51s35.5 -25.5 58.5 -33.5s49.5 -12 79.5 -12z" />
    <glyph glyph-name="guillemotleft" unicode="&#xab;" horiz-adv-x="1897" 
d="M975 676l659 443l44 -79l-530 -424l536 -416l-50 -82l-659 431v127zM245 676l659 443l44 -79l-530 -424l536 -416l-50 -82l-659 431v127z" />
    <glyph glyph-name="logicalnot" unicode="&#xac;" horiz-adv-x="1410" 
d="M210 688h990v-529h-125v432h-865v97z" />
    <glyph glyph-name="uni00AD" unicode="&#xad;" horiz-adv-x="1345" 
d="M230 672h885v-112h-885v112z" />
    <glyph glyph-name="registered" unicode="&#xae;" horiz-adv-x="2129" 
d="M194 1003c0 80.667 10.1729 158.5 30.5059 233.5s49.333 145 87 210s82.834 124.167 135.501 177.5s111.167 99 175.5 137s133.666 67.333 207.999 88s152.166 31 233.499 31s159.166 -10.333 233.499 -31s143.833 -50 208.5 -88s123.334 -83.667 176.001 -137
s97.667 -112.5 135 -177.5s66.333 -135 87 -210s31 -152.833 31 -233.5c0 -81.333 -10.333 -159.5 -31 -234.5s-49.667 -145.167 -87 -210.5s-82.333 -124.833 -135 -178.5s-111.334 -99.5 -176.001 -137.5s-134.334 -67.5 -209.001 -88.5s-152.334 -31.5 -233.001 -31.5
s-158.334 10.5 -233.001 31.5s-144.167 50.5 -208.5 88.5s-122.833 83.833 -175.5 137.5s-97.834 113.167 -135.501 178.5s-66.667 135.5 -87 210.5s-30.5 153.167 -30.5 234.5zM295.006 1003c0 -71.333 9 -140.498 27 -207.498s43.333 -129.667 76 -188
s72.167 -111.666 118.5 -159.999s98 -90 155 -125s118.5 -62 184.5 -81s135.333 -28.5 208 -28.5s142 9.5 208 28.5s127.5 46 184.5 81s108.667 76.667 155 125s85.833 101.666 118.5 159.999s58 121 76 188s27 136.167 27 207.5s-9 140.5 -27 207.5
s-43.333 129.667 -76 188s-72.167 111.666 -118.5 159.999s-98 89.833 -155 124.5s-118.5 61.5 -184.5 80.5s-135.333 28.5 -208 28.5s-142 -9.5 -208 -28.5s-127.5 -45.833 -184.5 -80.5s-108.667 -76.334 -155 -125.001s-85.833 -102.167 -118.5 -160.5
s-58 -120.833 -76 -187.5s-27 -135.667 -27 -207zM672.006 590.002l98 20.999v773l-98 17v80h150c30 0 57 0.333008 81 1s46.167 1.16699 66.5 1.5s39.5 0.833008 57.5 1.5s36 1 54 1c122 0 213 -21.833 273 -65.5s90 -103.834 90 -180.501c0 -40 -5.66699 -76.667 -17 -110
s-27.166 -62.833 -47.499 -88.5s-44.333 -47 -72 -64s-57.834 -29.167 -90.501 -36.5c30.667 -15.333 55.334 -34 74.001 -56s34 -45.167 46 -69.5s22.667 -48.666 32 -72.999s20 -46.333 32 -66s27.167 -36 45.5 -49s43.166 -20.5 74.499 -22.5v-86h-123
c-33.333 0 -59.5 8 -78.5 24s-34.5 36.667 -46.5 62s-22 53.333 -30 84s-18 60.667 -30 90s-27.667 56.333 -47 81s-46 43.334 -80 56.001c-4 0 -15.5 0.166992 -34.5 0.5s-39.5 0.5 -61.5 0.5s-42.5 0.166992 -61.5 0.5s-30.833 0.5 -35.5 0.5v-311l115 -17v-71h-336v71z
M893.006 1019c7.33301 -1.33301 19.833 -2.50098 37.5 -3.50098s36.667 -1.66699 57 -2s40.166 -0.5 59.499 -0.5h45c28 0 54.5 5.16699 79.5 15.5s47 24.5 66 42.5s34 39.333 45 64s16.5 51.334 16.5 80.001c0 33.333 -5.5 61.5 -16.5 84.5s-27 41.5 -48 55.5
s-46.5 24.167 -76.5 30.5s-64.333 9.5 -103 9.5c-22 0 -46.167 -0.5 -72.5 -1.5s-56.166 -3.83301 -89.499 -8.5v-366z" />
    <glyph glyph-name="macron" unicode="&#xaf;" horiz-adv-x="681" 
d="M74 1545h531v-113h-531v113z" />
    <glyph glyph-name="degree" unicode="&#xb0;" horiz-adv-x="916" 
d="M457 953c-46.667 0 -90.5 8.99902 -131.5 26.999s-77 42.5 -108 73.5s-55.5 67 -73.5 108s-27 84.833 -27 131.5c0 48.667 9 93.667 27 135s42.5 77.166 73.5 107.499s67 54 108 71s84.833 25.5 131.5 25.5c50 0 96 -9 138 -27s78.167 -42.333 108.5 -73
s54 -66.667 71 -108s25.5 -85 25.5 -131c0 -49.333 -9 -94.666 -27 -135.999s-42.5 -77.166 -73.5 -107.499s-67.333 -54 -109 -71s-86.167 -25.5 -133.5 -25.5zM459 1056c34 0 65.166 5.83301 93.499 17.5s53 27.834 74 48.501s37.333 45.5 49 74.5s17.5 61.167 17.5 96.5
c0 32.667 -6 63.334 -18 92.001s-28.667 53.667 -50 75s-46.5 38.333 -75.5 51s-60.167 19 -93.5 19s-64.166 -6 -92.499 -18s-53 -28.5 -74 -49.5s-37.333 -46 -49 -75s-17.5 -60.5 -17.5 -94.5c0 -32.667 6.33301 -63.334 19 -92.001s29.667 -53.834 51 -75.501
s46.333 -38.667 75 -51s59 -18.5 91 -18.5z" />
    <glyph glyph-name="plusminus" unicode="&#xb1;" horiz-adv-x="1353" 
d="M617 436l5 182l-177 -5h-225v119h225l177 -10l-5 185v228h119v-228l-7 -185l153 10h251v-119h-251l-153 5l7 -182v-240h-119v240zM233 111h885v-111h-885v111z" />
    <glyph glyph-name="two.superior" unicode="&#xb2;" horiz-adv-x="1020" 
d="M138 777c20.667 12.667 48.334 31.1689 83.001 55.502s72 52.666 112 84.999s80.667 68 122 107s78.666 79.5 111.999 121.5s60.5 84.5 81.5 127.5s31.5 85.167 31.5 126.5c0 68.667 -18.333 120.5 -55 155.5s-91 52.5 -163 52.5c-32 0 -62.833 -4 -92.5 -12
s-56.834 -18 -81.501 -30s-46.667 -25.333 -66 -40s-34.666 -28.334 -45.999 -41.001l-52 54c12 16.667 29.667 35 53 55s50.833 38.667 82.5 56s66.667 31.666 105 42.999s78.5 17 120.5 17c54.667 0 102.5 -6.83301 143.5 -20.5s75.167 -33 102.5 -58s47.833 -55 61.5 -90
s20.5 -74.167 20.5 -117.5c0 -50.667 -14.667 -104.5 -44 -161.5s-68.333 -113.667 -117 -170s-104.5 -110.666 -167.5 -162.999s-128.167 -99.5 -195.5 -141.5l455 26l71 164l80 -16l-51 -259h-676z" />
    <glyph glyph-name="three.superior" unicode="&#xb3;" horiz-adv-x="1020" 
d="M148 834c37.333 -13.333 76.166 -25.1689 116.499 -35.502s84.5 -15.5 132.5 -15.5c116 0 203.333 18 262 54s88 90.667 88 164c0 24 -6 47.5 -18 70.5s-29.167 43 -51.5 60s-49.833 30.167 -82.5 39.5s-69.667 12.333 -111 9c-18.667 -8.66699 -38.334 -16 -59.001 -22
s-41.667 -13.333 -63 -22l-33 86l62 19.5c26 8.33301 54.667 20.166 86 35.499c22 10.667 43.333 22.334 64 35.001s39.334 27 56.001 43s29.834 33.667 39.501 53s14.5 41.666 14.5 66.999c-0.666992 89.333 -66.334 134 -197.001 134
c-26.667 0 -53.167 -3.16699 -79.5 -9.5s-51.333 -14.5 -75 -24.5s-45.667 -21.667 -66 -35s-37.833 -27 -52.5 -41l-47 76c16.667 16.667 37.5 33.334 62.5 50.001s53 31.334 84 44.001s64.333 23 100 31s73.167 12 112.5 12c46 0 87.333 -5.16699 124 -15.5
s67.667 -25 93 -44s44.666 -41.5 57.999 -67.5s20 -54.667 20 -86c0 -24.667 -3.5 -49.167 -10.5 -73.5s-19.167 -48 -36.5 -71s-40.666 -45.167 -69.999 -66.5s-66.333 -41.333 -111 -60c60.667 4.66699 111.834 0 153.501 -14s75.167 -32.667 100.5 -56
s43.5 -49.166 54.5 -77.499s16.5 -54.833 16.5 -79.5c0 -43.333 -9.33301 -84 -28 -122s-47 -71.167 -85 -99.5s-85.833 -50.666 -143.5 -66.999s-125.167 -24.5 -202.5 -24.5c-19.333 0 -40.333 1 -63 3s-46 5.16699 -70 9.5s-48.333 10.166 -73 17.499
s-48.667 16.333 -72 27v89z" />
    <glyph glyph-name="acute" unicode="&#xb4;" horiz-adv-x="681" 
d="M242 1403l317 391.001h1l115 -100c-8.66699 -13.333 -22.167 -29.833 -40.5 -49.5s-39.333 -40.834 -63 -63.501l-75.5 -69.5l-78 -66.5l-70.5 -55.5c-21.667 -16.333 -39.5 -28.5 -53.5 -36.5h-2z" />
    <glyph glyph-name="mu" unicode="&#xb5;" horiz-adv-x="1398" 
d="M407 -373l-132.001 0.000976562v826v8v577l-132 39v54l241 25l34 -22v-752c0 -13.333 1.5 -29.666 4.5 -48.999s8.16699 -39.666 15.5 -60.999s17.166 -42.333 29.499 -63s27.833 -39.334 46.5 -56.001s40.834 -30.167 66.501 -40.5s55.834 -15.5 90.501 -15.5
c44 0 83 5.5 117 16.5s64 24.5 90 40.5s48.333 33.167 67 51.5s34.667 35.166 48 50.499v782l-153 39v55l274 24l22 -21v-1054h130l-1 -74c-9.33301 -4 -21 -8 -35 -12s-29 -7.5 -45 -10.5s-32.5 -5.5 -49.5 -7.5s-33.167 -3 -48.5 -3c-25.333 0 -45 5.33301 -59 16
s-21 28.334 -21 53.001v125c-50 -62.667 -103.333 -109.834 -160 -141.501s-119 -47.5 -187 -47.5c-35.333 0 -66.5 3.66699 -93.5 11s-50.5 17.166 -70.5 29.499s-37.333 26.5 -52 42.5s-27 32.333 -37 49v-484z" />
    <glyph glyph-name="paragraph" unicode="&#xb6;" horiz-adv-x="1410" 
d="M331 82l200.001 14.001v738c-147.333 0 -257.5 38.667 -330.5 116s-109.5 187 -109.5 329c0 62 11.5 119.333 34.5 172s57.333 98.167 103 136.5s102.667 68.5 171 90.5s147.833 33 238.5 33c43.333 0 82.333 -1 117 -3s68.667 -4.33301 102 -7s68.166 -5 104.499 -7
s77.833 -3 124.5 -3h197v-82l-185 -18v-1495l161 -14v-82h-301v1584c-12 0.666992 -27.167 2 -45.5 4s-38.5 3.66699 -60.5 5s-45.167 2.66602 -69.5 3.99902s-48.833 2 -73.5 2c-7.33301 0 -14 -0.166992 -20 -0.5s-11.667 -0.833008 -17 -1.5v-1597h-341v82z" />
    <glyph glyph-name="periodcentered" unicode="&#xb7;" horiz-adv-x="700" 
d="M242 660c0 17.333 3.33203 33.5 9.99902 48.5s15.667 28.167 27 39.5s24 20.333 38 27s28.667 10 44 10c18 0 33.333 -3 46 -9s23 -13.833 31 -23.5s13.833 -21 17.5 -34s5.5 -26.5 5.5 -40.5c0 -18.667 -3.33301 -35.667 -10 -51s-15.5 -28.5 -26.5 -39.5
s-23.667 -19.5 -38 -25.5s-29.166 -9 -44.499 -9c-28 0 -51.667 9.66699 -71 29s-29 45.333 -29 78z" />
    <glyph glyph-name="cedilla" unicode="&#xb8;" horiz-adv-x="615" 
d="M219 11l35 -10.9961c10.667 -10 23.834 -24.667 39.501 -44s30.667 -42 45 -68s26.5 -54.333 36.5 -85s14.333 -62 13 -94c-1.33301 -34.667 -7.66602 -63.834 -18.999 -87.501s-27.5 -42.834 -48.5 -57.501s-46.5 -25.167 -76.5 -31.5s-64 -9.5 -102 -9.5h-1
c-11.333 0 -23.5 0.666992 -36.5 2s-26 3.16602 -39 5.49902s-25.333 5.16602 -37 8.49902s-21.834 7 -30.501 11l1 108c14.667 -5.33301 31.667 -9.5 51 -12.5s34.666 -4.5 45.999 -4.5h1c26 0 49 1.83301 69 5.5s37 10.834 51 21.501s24.5 25.667 31.5 45
s10.5 44.666 10.5 75.999c0 22.667 -3.33301 45.167 -10 67.5s-14.5 43 -23.5 62s-18.167 35.667 -27.5 50l-21 31.5z" />
    <glyph glyph-name="one.superior" unicode="&#xb9;" horiz-adv-x="1020" 
d="M211 778l265.999 19v751c-42.667 -18.667 -87.667 -34.167 -135 -46.5s-94 -23.5 -140 -33.5l-18 83l86 25.5c30 9 60.5 19.667 91.5 32s61.833 26.5 92.5 42.5s60.334 35 89.001 57h3l61 -14v-898l229 -18v-75h-625v75z" />
    <glyph glyph-name="ordmasculine" unicode="&#xba;" horiz-adv-x="1038" 
d="M519 677c-56 0 -108.83 9.33301 -158.497 28s-93.167 47.334 -130.5 86.001s-66.666 87.5 -87.999 146.5s-31.666 128.5 -30.999 208.5c0.666992 79.333 14.167 147.5 40.5 204.5s59.666 104 99.999 141s85.166 64.167 134.499 81.5s97.333 26 144 26
c62 0 117.667 -10.167 167 -30.5s91.166 -50 125.499 -89s60.5 -87.333 78.5 -145s26.667 -123.834 26 -198.501c-0.666992 -82.667 -14 -153 -40 -211s-58.833 -105.333 -98.5 -142s-83.334 -63.5 -131.001 -80.5s-93.834 -25.5 -138.501 -25.5zM517.003 762
c36.667 0 71.168 5.33105 103.501 15.998s60.166 29.667 83.499 57s41.833 64.5 55.5 111.5s20.5 107.167 20.5 180.5c0 62 -6 117 -18 165s-29.167 88.667 -51.5 122s-49.5 58.5 -81.5 75.5s-67.667 25.5 -107 25.5c-36 0 -70 -7 -102 -21s-60 -35.5 -84 -64.5
s-43 -66.333 -57 -112s-21 -100.5 -21 -164.5c0 -63.333 7 -119.166 21 -167.499s32.833 -89.166 56.5 -122.499s51.167 -58.5 82.5 -75.5s64.333 -25.5 99 -25.5z" />
    <glyph glyph-name="guillemotright" unicode="&#xbb;" horiz-adv-x="1897" 
d="M1655 676l-659 443l-44 -79l530 -424l-536 -416l50 -82l659 431v127zM944 676l-659 443l-44 -79l530 -424l-536 -416l50 -82l659 431v127z" />
    <glyph glyph-name="onequarter" unicode="&#xbc;" horiz-adv-x="2414" 
d="M211 604l265.999 19v751c-42.667 -18.667 -87.667 -34.167 -135 -46.5s-94 -23.5 -140 -33.5l-18 83l86 25.5c30 9 60.5 19.667 91.5 32s61.833 26.5 92.5 42.5s60.334 35 89.001 57h3l61 -14v-898l229 -18v-75h-625v75zM1458 268l493 832h48l78 -62l-419 -671l-72 -88
l434 20l10 243l119 15v-252l192 10v-112h-192v-217h-129v217h-526zM762.999 -138l764 1802l113 -8l-762 -1798z" />
    <glyph glyph-name="onehalf" unicode="&#xbd;" horiz-adv-x="2414" 
d="M211 604l265.999 19v751c-42.667 -18.667 -87.667 -34.167 -135 -46.5s-94 -23.5 -140 -33.5l-18 83l86 25.5c30 9 60.5 19.667 91.5 32s61.833 26.5 92.5 42.5s60.334 35 89.001 57h3l61 -14v-898l229 -18v-75h-625v75zM762.999 -138l764 1802l113 -8l-762 -1798z
M1532 75c20.667 12.667 48.334 31.1689 83.001 55.502s72 52.666 112 84.999s80.667 68 122 107s78.666 79.5 111.999 121.5s60.5 84.5 81.5 127.5s31.5 85.167 31.5 126.5c0 68.667 -18.333 120.5 -55 155.5s-91 52.5 -163 52.5c-32 0 -62.833 -4 -92.5 -12
s-56.834 -18 -81.501 -30s-46.667 -25.333 -66 -40s-34.666 -28.334 -45.999 -41.001l-52 54c12 16.667 29.667 35 53 55s50.833 38.667 82.5 56s66.667 31.666 105 42.999s78.5 17 120.5 17c54.667 0 102.5 -6.83301 143.5 -20.5s75.167 -33 102.5 -58s47.833 -55 61.5 -90
s20.5 -74.167 20.5 -117.5c0 -50.667 -14.667 -104.5 -44 -161.5s-68.333 -113.667 -117 -170s-104.5 -110.666 -167.5 -162.999s-128.167 -99.5 -195.5 -141.5l455 26l71 164l80 -16l-51 -259h-676z" />
    <glyph glyph-name="threequarters" unicode="&#xbe;" horiz-adv-x="2414" 
d="M164 660c37.333 -13.333 76.166 -25.1689 116.499 -35.502s84.5 -15.5 132.5 -15.5c116 0 203.333 18 262 54s88 90.667 88 164c0 24 -6 47.5 -18 70.5s-29.167 43 -51.5 60s-49.833 30.167 -82.5 39.5s-69.667 12.333 -111 9c-18.667 -8.66699 -38.334 -16 -59.001 -22
s-41.667 -13.333 -63 -22l-33 86l62 19.5c26 8.33301 54.667 20.166 86 35.499c22 10.667 43.333 22.334 64 35.001s39.334 27 56.001 43s29.834 33.667 39.501 53s14.5 41.666 14.5 66.999c-0.666992 89.333 -66.334 134 -197.001 134
c-26.667 0 -53.167 -3.16699 -79.5 -9.5s-51.333 -14.5 -75 -24.5s-45.667 -21.667 -66 -35s-37.833 -27 -52.5 -41l-47 76c16.667 16.667 37.5 33.334 62.5 50.001s53 31.334 84 44.001s64.333 23 100 31s73.167 12 112.5 12c46 0 87.333 -5.16699 124 -15.5
s67.667 -25 93 -44s44.666 -41.5 57.999 -67.5s20 -54.667 20 -86c0 -24.667 -3.5 -49.167 -10.5 -73.5s-19.167 -48 -36.5 -71s-40.666 -45.167 -69.999 -66.5s-66.333 -41.333 -111 -60c60.667 4.66699 111.834 0 153.501 -14s75.167 -32.667 100.5 -56
s43.5 -49.166 54.5 -77.499s16.5 -54.833 16.5 -79.5c0 -43.333 -9.33301 -84 -28 -122s-47 -71.167 -85 -99.5s-85.833 -50.666 -143.5 -66.999s-125.167 -24.5 -202.5 -24.5c-19.333 0 -40.333 1 -63 3s-46 5.16699 -70 9.5s-48.333 10.166 -73 17.499
s-48.667 16.333 -72 27v89zM1458 267.997l493 832h48l78 -62l-419 -671l-72 -88l434 20l10 243l119 15v-252l192 10v-112h-192v-217h-129v217h-526zM763 -138.003l764 1802l113 -8l-762 -1798z" />
    <glyph glyph-name="questiondown" unicode="&#xbf;" horiz-adv-x="968" 
d="M623 943c11.333 -12.667 22.3291 -31.334 32.9961 -56.001s20.334 -51 29.001 -79s15.834 -55.667 21.501 -83s8.83398 -50 9.50098 -68c0 -28 -6.66699 -53.5 -20 -76.5s-30.833 -44.333 -52.5 -64s-46.834 -38 -75.501 -55s-58.167 -33.5 -88.5 -49.5l-90.5 -48
c-30 -16 -57.833 -33 -83.5 -51s-47.667 -37.333 -66 -58s-30.833 -43.667 -37.5 -69c0 -5.33301 -0.166992 -10.833 -0.5 -16.5s-0.5 -11.5 -0.5 -17.5c0 -35.333 4.66699 -71.166 14 -107.499s23 -71.333 41 -105s40.5 -65.334 67.5 -95.001s58.167 -55.5 93.5 -77.5
s75.166 -39.333 119.499 -52s92.5 -19 144.5 -19c13.333 0 27.333 0.5 42 1.5s28.834 2.16699 42.501 3.5s26.334 3 38.001 5s21.167 4 28.5 6l24 -94c-4.66699 -4 -14.5 -8.16699 -29.5 -12.5s-32.5 -8.16602 -52.5 -11.499s-41 -6 -63 -8s-42 -3 -60 -3
c-105.333 0 -194 15.167 -266 45.5s-130 70 -174 119s-75.667 104 -95 165s-29 122.5 -29 184.5c0 50.667 10 95.667 30 135s45.667 74.833 77 106.5s65.833 60.334 103.5 86.001l109.5 74c35.333 23.667 67 46.834 95 69.501s47.667 47 59 73
c0.666992 7.33301 0.666992 15.666 0 24.999s-1.66699 18.333 -3 27c-1.33301 24 -3.16602 45.667 -5.49902 65s-5 37.833 -8 55.5s-6.5 34.667 -10.5 51s-8.33301 33.166 -13 50.499zM618.996 1350c1.33301 -16 -0.666992 -30.999 -6 -44.999s-12.666 -26.5 -21.999 -37.5
s-20.5 -19.833 -33.5 -26.5s-26.167 -10.667 -39.5 -12c-32.667 -2.66699 -58 4 -76 20s-28.667 36.667 -32 62c-2 17.333 -0.333008 33 5 47s12.666 26.333 21.999 37s20.5 19.167 33.5 25.5s26.5 10.166 40.5 11.499c12 1.33301 24.167 0.5 36.5 -2.5s23.5 -8 33.5 -15
s18.5 -16 25.5 -27s11.167 -23.5 12.5 -37.5z" />
    <glyph glyph-name="Agrave" unicode="&#xc0;" horiz-adv-x="1401" 
d="M-26 82l133 14l519 1442h146l510 -1442l135 -14v-82h-483v82l188 14l-114 338h-653l-116 -338l185 -14v-82h-450v82zM974 533l-232 688l-61 206l-60 -215l-232 -679h585zM805 1651c-16 7.33301 -35.167 16.833 -57.5 28.5l-71.5 39l-77.5 45.5
c-26.333 16 -51.5 32.333 -75.5 49s-45.833 33.167 -65.5 49.5s-35.5 31.5 -47.5 45.5l102 99h1l341 -308l-48 -48h-1v0z" />
    <glyph glyph-name="Aacute" unicode="&#xc1;" horiz-adv-x="1401" 
d="M-26 82l133 14l519 1442h146l510 -1442l135 -14v-82h-483v82l188 14l-114 338h-653l-116 -338l185 -14v-82h-450v82zM974 533l-232 688l-61 206l-60 -215l-232 -679h585zM561 1699l340.998 308h1l102 -99c-12 -14 -27.833 -29.167 -47.5 -45.5s-41.667 -32.833 -66 -49.5
s-49.666 -33 -75.999 -49l-77.5 -45.5l-71.5 -39c-22.333 -11.667 -41.166 -21.167 -56.499 -28.5h-1z" />
    <glyph glyph-name="Acircumflex" unicode="&#xc2;" horiz-adv-x="1401" 
d="M-26 82l133 14l519 1442h146l510 -1442l135 -14v-82h-483v82l188 14l-114 338h-653l-116 -338l185 -14v-82h-450v82zM974 533l-232 688l-61 206l-60 -215l-232 -679h585zM360 1718l259 296h144l262 -294l-68 -39l-265 223l-270 -223z" />
    <glyph glyph-name="Atilde" unicode="&#xc3;" horiz-adv-x="1401" 
d="M-26 82l133 14l519 1442h146l510 -1442l135 -14v-82h-483v82l188 14l-114 338h-653l-116 -338l185 -14v-82h-450v82zM974 533l-232 688l-61 206l-60 -215l-232 -679h585zM275 1796c5.33301 22 15.8369 45.167 31.5039 69.5s35.5 46.5 59.5 66.5s51.333 36.5 82 49.5
s63.667 19.5 99 19.5c27.333 0 51.666 -4.33301 72.999 -13s40.666 -19.667 57.999 -33s33.666 -27.5 48.999 -42.5l45.5 -42.5c15 -13.333 30.667 -24.333 47 -33s34.5 -13 54.5 -13c24.667 0 46 5 64 15s33.5 22.167 46.5 36.5s23.667 29.166 32 44.499
s14.833 28.333 19.5 39l79 -41c-7.33301 -26 -18.5 -51.333 -33.5 -76s-33.167 -46.5 -54.5 -65.5s-45.833 -34.333 -73.5 -46s-57.834 -17.5 -90.501 -17.5c-27.333 0 -51.5 4.33301 -72.5 13s-40.5 19.667 -58.5 33s-35 27.5 -51 42.5s-32 29.167 -48 42.5
s-32.833 24.333 -50.5 33s-37.167 13 -58.5 13c-24.667 0 -46.5 -5 -65.5 -15s-35.5 -22.167 -49.5 -36.5s-25.5 -29.166 -34.5 -44.499s-15.833 -28.333 -20.5 -39z" />
    <glyph glyph-name="Adieresis" unicode="&#xc4;" horiz-adv-x="1401" 
d="M-26 82l133 14l519 1442h146l510 -1442l135 -14v-82h-483v82l188 14l-114 338h-653l-116 -338l185 -14v-82h-450v82zM974 533l-232 688l-61 206l-60 -215l-232 -679h585zM927 1716c-15.333 0 -28.834 2.83301 -40.501 8.5s-21.5 13.5 -29.5 23.5s-14.167 21.667 -18.5 35
s-6.5 27.333 -6.5 42c0 15.333 2.33301 30.5 7 45.5s11.5 28.5 20.5 40.5s20.333 21.667 34 29s29.834 11 48.501 11h1c16 0 30.167 -3.33301 42.5 -10s22.5 -15.167 30.5 -25.5s14.167 -22.166 18.5 -35.499s6.5 -26.333 6.5 -39c0 -16.667 -2.33301 -32.5 -7 -47.5
s-11.667 -28.333 -21 -40s-21 -20.834 -35 -27.501s-30.667 -10 -50 -10h-1zM443.999 1716c-14.667 0 -27.834 2.83301 -39.501 8.5s-21.5 13.5 -29.5 23.5s-14.167 21.667 -18.5 35s-6.5 27.333 -6.5 42c0 15.333 2.16699 30.5 6.5 45.5s11 28.5 20 40.5
s20.333 21.667 34 29s29.834 11 48.501 11h1c16 0 30.167 -3.33301 42.5 -10s22.5 -15.167 30.5 -25.5s14.167 -22.166 18.5 -35.499s6.5 -26.333 6.5 -39c0 -16.667 -2.33301 -32.5 -7 -47.5s-11.667 -28.333 -21 -40s-21 -20.834 -35 -27.501s-30.667 -10 -50 -10h-1z" />
    <glyph glyph-name="Aring" unicode="&#xc5;" horiz-adv-x="1401" 
d="M-26 82l133.003 13.999l514 1427c-40 6 -75 16.333 -105 31s-54.833 32.834 -74.5 54.501s-34.334 46.167 -44.001 73.5s-14.167 56.666 -13.5 87.999c0.666992 41.333 10.667 77.333 30 108s44.666 56 75.999 76s66.666 35 105.999 45s79 15 119 15h1
c50 0 94.167 -6 132.5 -18s70.5 -28.833 96.5 -50.5s45.667 -47.834 59 -78.501s20 -64.667 20 -102c-0.666992 -35.333 -7.5 -66.666 -20.5 -93.999s-30.667 -51.166 -53 -71.499s-48.333 -36.833 -78 -49.5s-61.5 -21.667 -95.5 -27l505 -1427l135 -14v-82h-483v82l188 14
l-114 338h-653l-116 -338l185 -14v-82h-450v82zM708.003 1592c66 0 116.333 14 151 42s52 69.333 52 124c0 26 -3.83301 50 -11.5 72s-19.5 41 -35.5 57s-36.667 28.5 -62 37.5s-56 13.5 -92 13.5h-1c-64 0 -115.167 -13.833 -153.5 -41.5s-57.5 -69.5 -57.5 -125.5
c0 -24 4 -46.833 12 -68.5s20.5 -40.667 37.5 -57s38.667 -29.333 65 -39s57.833 -14.5 94.5 -14.5h1zM974.003 532.999l-232 688l-61 206l-60 -215l-232 -679h585z" />
    <glyph glyph-name="AE" unicode="&#xc6;" horiz-adv-x="1859" 
d="M562 1426l-283 19v77h1368l39 -306h-86l-62 215l-567 8v-609l387 5l24 171h92v-448h-92l-24 178l-387 5v-649l653 20l114 257l86 -21l-78 -348h-1107v82l187 14v360h-569l-154 -360l166 -14v-82h-460v82l151 14zM826 557v877h-151l-115 -267l-260 -610h526z" />
    <glyph glyph-name="Ccedilla" unicode="&#xc7;" horiz-adv-x="1344" 
d="M552 -342c14.667 -5.33301 31.6699 -9.49805 51.0029 -12.498s34.666 -4.5 45.999 -4.5h1c26 0 49 1.83301 69 5.5s37 10.834 51 21.501s24.5 25.667 31.5 45s10.5 44.666 10.5 75.999c0 18.667 -2.33301 37 -7 55s-10.334 35.333 -17.001 52s-13.834 32 -21.501 46
s-14.834 26 -21.501 36c-104.667 4.66699 -197.5 27 -278.5 67s-149.333 94.333 -205 163s-97.834 150.5 -126.501 245.5s-43 200.167 -43 315.5c0 74 8.66699 144.333 26 211s41.666 128.5 72.999 185.5s69 108.5 113 154.5s92.833 85.167 146.5 117.5
s111.334 57.166 173.001 74.499s125.834 26 192.501 26c46 0 91 -2.66699 135 -8s85 -11.666 123 -18.999s72 -14.5 102 -21.5l71 -16.5l-17 -326h-92l-39 237c-19.333 16 -56.833 30.333 -112.5 43s-125.834 19 -210.501 19c-72 0 -138.833 -15.167 -200.5 -45.5
s-115.167 -73.833 -160.5 -130.5s-81 -126 -107 -208s-39 -174.333 -39 -277c0 -94.667 10.167 -185.167 30.5 -271.5s51.666 -162.5 93.999 -228.5s96.333 -118.667 162 -158s143.834 -59 234.501 -59c44.667 0 83 2 115 6s59.667 9.33301 83 16s43.5 14.667 60.5 24
s32.833 19 47.5 29l78 190l90 -12l-52 -265c-25.333 -1.33301 -49.666 -5.83301 -72.999 -13.5l-77.5 -25c-28.333 -9 -61.166 -17.333 -98.499 -25s-82.333 -12.5 -135 -14.5c12 -13.333 24.667 -29.666 38 -48.999s25.833 -40.666 37.5 -63.999s21 -48.333 28 -75
s10.167 -53.667 9.5 -81c-1.33301 -34.667 -7.66602 -63.834 -18.999 -87.501s-27.5 -42.834 -48.5 -57.501s-46.5 -25.167 -76.5 -31.5s-64 -9.5 -102 -9.5h-1c-11.333 0 -23.5 0.666992 -36.5 2s-26 3.16602 -39 5.49902s-25.333 5.16602 -37 8.49902
s-21.834 7 -30.501 11l1 108v0z" />
    <glyph glyph-name="Egrave" unicode="&#xc8;" horiz-adv-x="1326" 
d="M808 1651c-16 7.33301 -35.167 16.833 -57.5 28.5l-71.5 39l-77.5 45.5c-26.333 16 -51.5 32.333 -75.5 49s-45.833 33.167 -65.5 49.5s-35.5 31.5 -47.5 45.5l102 99h1l341 -308l-48 -48h-1v0zM106 82l177 15v1323l-173 21v81h1004l29 -296h-85l-53 201l-575 7v-606
l395 5l24 173h92v-448h-92l-24 176l-395 5v-644l654 17l101 257l86 -29l-65 -340h-1100v82z" />
    <glyph glyph-name="Eacute" unicode="&#xc9;" horiz-adv-x="1326" 
d="M564 1699l340.998 308h1l102 -99c-12 -14 -27.833 -29.167 -47.5 -45.5s-41.667 -32.833 -66 -49.5s-49.666 -33 -75.999 -49l-77.5 -45.5l-71.5 -39c-22.333 -11.667 -41.166 -21.167 -56.499 -28.5h-1zM105.998 82l177 15v1323l-173 21v81h1004l29 -296h-85l-53 201
l-575 7v-606l395 5l24 173h92v-448h-92l-24 176l-395 5v-644l654 17l101 257l86 -29l-65 -340h-1100v82z" />
    <glyph glyph-name="Ecircumflex" unicode="&#xca;" horiz-adv-x="1326" 
d="M106 82l177 15v1323l-173 21v81h1004l29 -296h-85l-53 201l-575 7v-606l395 5l24 173h92v-448h-92l-24 176l-395 5v-644l654 17l101 257l86 -29l-65 -340h-1100v82zM363 1718l259 296h144l262 -294l-68 -39l-265 223l-270 -223z" />
    <glyph glyph-name="Edieresis" unicode="&#xcb;" horiz-adv-x="1326" 
d="M930 1716c-15.333 0 -28.834 2.83301 -40.501 8.5s-21.5 13.5 -29.5 23.5s-14.167 21.667 -18.5 35s-6.5 27.333 -6.5 42c0 15.333 2.33301 30.5 7 45.5s11.5 28.5 20.5 40.5s20.333 21.667 34 29s29.834 11 48.501 11h1c16 0 30.167 -3.33301 42.5 -10
s22.5 -15.167 30.5 -25.5s14.167 -22.166 18.5 -35.499s6.5 -26.333 6.5 -39c0 -16.667 -2.33301 -32.5 -7 -47.5s-11.667 -28.333 -21 -40s-21 -20.834 -35 -27.501s-30.667 -10 -50 -10h-1zM446.999 1716c-14.667 0 -27.834 2.83301 -39.501 8.5s-21.5 13.5 -29.5 23.5
s-14.167 21.667 -18.5 35s-6.5 27.333 -6.5 42c0 15.333 2.16699 30.5 6.5 45.5s11 28.5 20 40.5s20.333 21.667 34 29s29.834 11 48.501 11h1c16 0 30.167 -3.33301 42.5 -10s22.5 -15.167 30.5 -25.5s14.167 -22.166 18.5 -35.499s6.5 -26.333 6.5 -39
c0 -16.667 -2.33301 -32.5 -7 -47.5s-11.667 -28.333 -21 -40s-21 -20.834 -35 -27.501s-30.667 -10 -50 -10h-1zM105.999 82l177 15v1323l-173 21v81h1004l29 -296h-85l-53 201l-575 7v-606l395 5l24 173h92v-448h-92l-24 176l-395 5v-644l654 17l101 257l86 -29l-65 -340
h-1100v82z" />
    <glyph glyph-name="Igrave" unicode="&#xcc;" horiz-adv-x="813" 
d="M127 82l205 14v1324l-205 21v81h558v-81l-204 -20v-1325l204 -14v-82h-558v82zM520 1651c-16 7.33301 -35.167 16.833 -57.5 28.5l-71.5 39l-77.5 45.5c-26.333 16 -51.5 32.333 -75.5 49s-45.833 33.167 -65.5 49.5s-35.5 31.5 -47.5 45.5l102 99h1l341 -308l-48 -48h-1
v0z" />
    <glyph glyph-name="Iacute" unicode="&#xcd;" horiz-adv-x="813" 
d="M127 82l205 14v1324l-205 21v81h558v-81l-204 -20v-1325l204 -14v-82h-558v82zM278 1699l340.998 308h1l102 -99c-12 -14 -27.833 -29.167 -47.5 -45.5s-41.667 -32.833 -66 -49.5s-49.666 -33 -75.999 -49l-77.5 -45.5l-71.5 -39
c-22.333 -11.667 -41.166 -21.167 -56.499 -28.5h-1z" />
    <glyph glyph-name="Icircumflex" unicode="&#xce;" horiz-adv-x="813" 
d="M127 82l205 14v1324l-205 21v81h558v-81l-204 -20v-1325l204 -14v-82h-558v82zM77 1718l259 296h144l262 -294l-68 -39l-265 223l-270 -223z" />
    <glyph glyph-name="Idieresis" unicode="&#xcf;" horiz-adv-x="813" 
d="M127 82l205 14v1324l-205 21v81h558v-81l-204 -20v-1325l204 -14v-82h-558v82zM644 1716c-15.333 0 -28.834 2.83301 -40.501 8.5s-21.5 13.5 -29.5 23.5s-14.167 21.667 -18.5 35s-6.5 27.333 -6.5 42c0 15.333 2.33301 30.5 7 45.5s11.5 28.5 20.5 40.5
s20.333 21.667 34 29s29.834 11 48.501 11h1c16 0 30.167 -3.33301 42.5 -10s22.5 -15.167 30.5 -25.5s14.167 -22.166 18.5 -35.499s6.5 -26.333 6.5 -39c0 -16.667 -2.33301 -32.5 -7 -47.5s-11.667 -28.333 -21 -40s-21 -20.834 -35 -27.501s-30.667 -10 -50 -10h-1z
M160.999 1716c-14.667 0 -27.834 2.83301 -39.501 8.5s-21.5 13.5 -29.5 23.5s-14.167 21.667 -18.5 35s-6.5 27.333 -6.5 42c0 15.333 2.16699 30.5 6.5 45.5s11 28.5 20 40.5s20.333 21.667 34 29s29.834 11 48.501 11h1c16 0 30.167 -3.33301 42.5 -10
s22.5 -15.167 30.5 -25.5s14.167 -22.166 18.5 -35.499s6.5 -26.333 6.5 -39c0 -16.667 -2.33301 -32.5 -7 -47.5s-11.667 -28.333 -21 -40s-21 -20.834 -35 -27.501s-30.667 -10 -50 -10h-1z" />
    <glyph glyph-name="Eth" unicode="&#xd0;" horiz-adv-x="1558" 
d="M105 82l178 14.998v657h-159v83h159v583l-166 21v81h240c63.333 0 124.833 2.66699 184.5 8s118.834 8 177.501 8c133.333 0 247.666 -17.667 342.999 -53s173.5 -85.166 234.5 -149.499s105.667 -141.5 134 -231.5s42.5 -189.667 42.5 -299
c0 -125.333 -19.167 -239.166 -57.5 -341.499s-92 -189.5 -161 -261.5s-151.167 -127 -246.5 -165s-200 -55.667 -314 -53c-49.333 1.33301 -102 4.33301 -158 9s-114.667 7 -176 7h-255v82zM430 91.998c54 -7.33301 104 -12.332 150 -14.999s93 -3.33398 141 -2.00098
c85.333 1.33301 164.333 17.5 237 48.5s135.5 75.833 188.5 134.5s94.5 131.167 124.5 217.5s45 185.833 45 298.5c0 449.333 -215 674 -645 674c-48 0 -92.167 -2 -132.5 -6s-76.5 -6.66699 -108.5 -8v-597h400v-83h-400v-662z" />
    <glyph glyph-name="Ntilde" unicode="&#xd1;" horiz-adv-x="1632" 
d="M414 1796c5.33301 22 15.8369 45.167 31.5039 69.5s35.5 46.5 59.5 66.5s51.333 36.5 82 49.5s63.667 19.5 99 19.5c27.333 0 51.666 -4.33301 72.999 -13s40.666 -19.667 57.999 -33s33.666 -27.5 48.999 -42.5l45.5 -42.5c15 -13.333 30.667 -24.333 47 -33
s34.5 -13 54.5 -13c24.667 0 46 5 64 15s33.5 22.167 46.5 36.5s23.667 29.166 32 44.499s14.833 28.333 19.5 39l79 -41c-7.33301 -26 -18.5 -51.333 -33.5 -76s-33.167 -46.5 -54.5 -65.5s-45.833 -34.333 -73.5 -46s-57.834 -17.5 -90.501 -17.5
c-27.333 0 -51.5 4.33301 -72.5 13s-40.5 19.667 -58.5 33s-35 27.5 -51 42.5s-32 29.167 -48 42.5s-32.833 24.333 -50.5 33s-37.167 13 -58.5 13c-24.667 0 -46.5 -5 -65.5 -15s-35.5 -22.167 -49.5 -36.5s-25.5 -29.166 -34.5 -44.499s-15.833 -28.333 -20.5 -39z
M123.004 82l161 14v1323l-161 22v81h308l741 -1075l121 -210v1182l-180 22v81h453v-81l-166 -21v-1420h-89l-745 1073l-174 275v-1252l187 -14v-82h-456v82z" />
    <glyph glyph-name="Ograve" unicode="&#xd2;" horiz-adv-x="1500" 
d="M865 1651c-16 7.33301 -35.167 16.833 -57.5 28.5l-71.5 39l-77.5 45.5c-26.333 16 -51.5 32.333 -75.5 49s-45.833 33.167 -65.5 49.5s-35.5 31.5 -47.5 45.5l102 99h1l341 -308l-48 -48h-1v0zM734 -23c-102 -2 -192.831 15.6719 -272.498 53.0049
s-146.834 90.166 -201.501 158.499s-96.334 150.166 -125.001 245.499s-43 200.333 -43 315c0 80.667 8 156.167 24 226.5s38.833 134.666 68.5 192.999s65 110.333 106 156s86.667 84.334 137 116.001s104.333 55.834 162 72.501s117.834 25 180.501 25
c102 0 192.5 -18.333 271.5 -55s145.5 -88.334 199.5 -155.001s95 -146.834 123 -240.501s42 -197.834 42 -312.501c0 -120.667 -17.5 -229.834 -52.5 -327.501s-82.833 -181 -143.5 -250s-131.834 -122.5 -213.501 -160.5s-169.167 -58 -262.5 -60zM747.002 65.0049
c72 0 138.333 14.998 199 44.998s113 74.833 157 134.5s78.167 133.667 102.5 222s36.5 190.833 36.5 307.5c0 98 -10.833 188.333 -32.5 271s-53.167 154.167 -94.5 214.5s-92.333 107.333 -153 141s-130.334 50.5 -209.001 50.5c-73.333 0 -140.5 -14.667 -201.5 -44
s-113.5 -73.166 -157.5 -131.499s-78.167 -131.333 -102.5 -219s-36.5 -189.834 -36.5 -306.501c0 -97.333 10.833 -187.666 32.5 -270.999s53.334 -155.666 95.001 -216.999s93 -109.5 154 -144.5s131.167 -52.5 210.5 -52.5z" />
    <glyph glyph-name="Oacute" unicode="&#xd3;" horiz-adv-x="1500" 
d="M621 1699l340.998 308h1l102 -99c-12 -14 -27.833 -29.167 -47.5 -45.5s-41.667 -32.833 -66 -49.5s-49.666 -33 -75.999 -49l-77.5 -45.5l-71.5 -39c-22.333 -11.667 -41.166 -21.167 -56.499 -28.5h-1zM733.998 -23c-102 -2 -192.831 15.6719 -272.498 53.0049
s-146.834 90.166 -201.501 158.499s-96.334 150.166 -125.001 245.499s-43 200.333 -43 315c0 80.667 8 156.167 24 226.5s38.833 134.666 68.5 192.999s65 110.333 106 156s86.667 84.334 137 116.001s104.333 55.834 162 72.501s117.834 25 180.501 25
c102 0 192.5 -18.333 271.5 -55s145.5 -88.334 199.5 -155.001s95 -146.834 123 -240.501s42 -197.834 42 -312.501c0 -120.667 -17.5 -229.834 -52.5 -327.501s-82.833 -181 -143.5 -250s-131.834 -122.5 -213.501 -160.5s-169.167 -58 -262.5 -60zM747 65.0049
c72 0 138.333 14.998 199 44.998s113 74.833 157 134.5s78.167 133.667 102.5 222s36.5 190.833 36.5 307.5c0 98 -10.833 188.333 -32.5 271s-53.167 154.167 -94.5 214.5s-92.333 107.333 -153 141s-130.334 50.5 -209.001 50.5c-73.333 0 -140.5 -14.667 -201.5 -44
s-113.5 -73.166 -157.5 -131.499s-78.167 -131.333 -102.5 -219s-36.5 -189.834 -36.5 -306.501c0 -97.333 10.833 -187.666 32.5 -270.999s53.334 -155.666 95.001 -216.999s93 -109.5 154 -144.5s131.167 -52.5 210.5 -52.5z" />
    <glyph glyph-name="Ocircumflex" unicode="&#xd4;" horiz-adv-x="1500" 
d="M734 -23c-102 -2 -192.831 15.6719 -272.498 53.0049s-146.834 90.166 -201.501 158.499s-96.334 150.166 -125.001 245.499s-43 200.333 -43 315c0 80.667 8 156.167 24 226.5s38.833 134.666 68.5 192.999s65 110.333 106 156s86.667 84.334 137 116.001
s104.333 55.834 162 72.501s117.834 25 180.501 25c102 0 192.5 -18.333 271.5 -55s145.5 -88.334 199.5 -155.001s95 -146.834 123 -240.501s42 -197.834 42 -312.501c0 -120.667 -17.5 -229.834 -52.5 -327.501s-82.833 -181 -143.5 -250s-131.834 -122.5 -213.501 -160.5
s-169.167 -58 -262.5 -60zM747.002 65.0049c72 0 138.333 14.998 199 44.998s113 74.833 157 134.5s78.167 133.667 102.5 222s36.5 190.833 36.5 307.5c0 98 -10.833 188.333 -32.5 271s-53.167 154.167 -94.5 214.5s-92.333 107.333 -153 141s-130.334 50.5 -209.001 50.5
c-73.333 0 -140.5 -14.667 -201.5 -44s-113.5 -73.166 -157.5 -131.499s-78.167 -131.333 -102.5 -219s-36.5 -189.834 -36.5 -306.501c0 -97.333 10.833 -187.666 32.5 -270.999s53.334 -155.666 95.001 -216.999s93 -109.5 154 -144.5s131.167 -52.5 210.5 -52.5z
M420.002 1718l259 296h144l262 -294l-68 -39l-265 223l-270 -223z" />
    <glyph glyph-name="Otilde" unicode="&#xd5;" horiz-adv-x="1500" 
d="M335 1796c5.33301 22 15.8369 45.167 31.5039 69.5s35.5 46.5 59.5 66.5s51.333 36.5 82 49.5s63.667 19.5 99 19.5c27.333 0 51.666 -4.33301 72.999 -13s40.666 -19.667 57.999 -33s33.666 -27.5 48.999 -42.5l45.5 -42.5c15 -13.333 30.667 -24.333 47 -33
s34.5 -13 54.5 -13c24.667 0 46 5 64 15s33.5 22.167 46.5 36.5s23.667 29.166 32 44.499s14.833 28.333 19.5 39l79 -41c-7.33301 -26 -18.5 -51.333 -33.5 -76s-33.167 -46.5 -54.5 -65.5s-45.833 -34.333 -73.5 -46s-57.834 -17.5 -90.501 -17.5
c-27.333 0 -51.5 4.33301 -72.5 13s-40.5 19.667 -58.5 33s-35 27.5 -51 42.5s-32 29.167 -48 42.5s-32.833 24.333 -50.5 33s-37.167 13 -58.5 13c-24.667 0 -46.5 -5 -65.5 -15s-35.5 -22.167 -49.5 -36.5s-25.5 -29.166 -34.5 -44.499s-15.833 -28.333 -20.5 -39z
M734.004 -23c-102 -2 -192.831 15.6719 -272.498 53.0049s-146.834 90.166 -201.501 158.499s-96.334 150.166 -125.001 245.499s-43 200.333 -43 315c0 80.667 8 156.167 24 226.5s38.833 134.666 68.5 192.999s65 110.333 106 156s86.667 84.334 137 116.001
s104.333 55.834 162 72.501s117.834 25 180.501 25c102 0 192.5 -18.333 271.5 -55s145.5 -88.334 199.5 -155.001s95 -146.834 123 -240.501s42 -197.834 42 -312.501c0 -120.667 -17.5 -229.834 -52.5 -327.501s-82.833 -181 -143.5 -250s-131.834 -122.5 -213.501 -160.5
s-169.167 -58 -262.5 -60zM747.006 65.0049c72 0 138.333 14.998 199 44.998s113 74.833 157 134.5s78.167 133.667 102.5 222s36.5 190.833 36.5 307.5c0 98 -10.833 188.333 -32.5 271s-53.167 154.167 -94.5 214.5s-92.333 107.333 -153 141s-130.334 50.5 -209.001 50.5
c-73.333 0 -140.5 -14.667 -201.5 -44s-113.5 -73.166 -157.5 -131.499s-78.167 -131.333 -102.5 -219s-36.5 -189.834 -36.5 -306.501c0 -97.333 10.833 -187.666 32.5 -270.999s53.334 -155.666 95.001 -216.999s93 -109.5 154 -144.5s131.167 -52.5 210.5 -52.5z" />
    <glyph glyph-name="Odieresis" unicode="&#xd6;" horiz-adv-x="1500" 
d="M987 1716c-15.333 0 -28.834 2.83301 -40.501 8.5s-21.5 13.5 -29.5 23.5s-14.167 21.667 -18.5 35s-6.5 27.333 -6.5 42c0 15.333 2.33301 30.5 7 45.5s11.5 28.5 20.5 40.5s20.333 21.667 34 29s29.834 11 48.501 11h1c16 0 30.167 -3.33301 42.5 -10
s22.5 -15.167 30.5 -25.5s14.167 -22.166 18.5 -35.499s6.5 -26.333 6.5 -39c0 -16.667 -2.33301 -32.5 -7 -47.5s-11.667 -28.333 -21 -40s-21 -20.834 -35 -27.501s-30.667 -10 -50 -10h-1zM503.999 1716c-14.667 0 -27.834 2.83301 -39.501 8.5s-21.5 13.5 -29.5 23.5
s-14.167 21.667 -18.5 35s-6.5 27.333 -6.5 42c0 15.333 2.16699 30.5 6.5 45.5s11 28.5 20 40.5s20.333 21.667 34 29s29.834 11 48.501 11h1c16 0 30.167 -3.33301 42.5 -10s22.5 -15.167 30.5 -25.5s14.167 -22.166 18.5 -35.499s6.5 -26.333 6.5 -39
c0 -16.667 -2.33301 -32.5 -7 -47.5s-11.667 -28.333 -21 -40s-21 -20.834 -35 -27.501s-30.667 -10 -50 -10h-1zM733.999 -23c-102 -2 -192.831 15.6719 -272.498 53.0049s-146.834 90.166 -201.501 158.499s-96.334 150.166 -125.001 245.499s-43 200.333 -43 315
c0 80.667 8 156.167 24 226.5s38.833 134.666 68.5 192.999s65 110.333 106 156s86.667 84.334 137 116.001s104.333 55.834 162 72.501s117.834 25 180.501 25c102 0 192.5 -18.333 271.5 -55s145.5 -88.334 199.5 -155.001s95 -146.834 123 -240.501
s42 -197.834 42 -312.501c0 -120.667 -17.5 -229.834 -52.5 -327.501s-82.833 -181 -143.5 -250s-131.834 -122.5 -213.501 -160.5s-169.167 -58 -262.5 -60zM747.001 65.0049c72 0 138.333 14.998 199 44.998s113 74.833 157 134.5s78.167 133.667 102.5 222
s36.5 190.833 36.5 307.5c0 98 -10.833 188.333 -32.5 271s-53.167 154.167 -94.5 214.5s-92.333 107.333 -153 141s-130.334 50.5 -209.001 50.5c-73.333 0 -140.5 -14.667 -201.5 -44s-113.5 -73.166 -157.5 -131.499s-78.167 -131.333 -102.5 -219
s-36.5 -189.834 -36.5 -306.501c0 -97.333 10.833 -187.666 32.5 -270.999s53.334 -155.666 95.001 -216.999s93 -109.5 154 -144.5s131.167 -52.5 210.5 -52.5z" />
    <glyph glyph-name="multiply" unicode="&#xd7;" horiz-adv-x="1240" 
d="M191 275l352 341l-351 342l89 94l339 -359l339 358l90 -94l-352 -341l351 -341l-89 -94l-339 358l-340 -358z" />
    <glyph glyph-name="Oslash" unicode="&#xd8;" horiz-adv-x="1500" 
d="M441 43c-55.333 28.667 -104.332 66.1699 -146.999 112.503s-78.5 99.666 -107.5 159.999s-51 127 -66 200s-22.5 150.833 -22.5 233.5c0 80.667 8 156.167 24 226.5s38.833 134.666 68.5 192.999s65 110.333 106 156s86.667 84.334 137 116.001
s104.333 55.834 162 72.501s117.834 25 180.501 25c42 0 81.667 -3.16699 119 -9.5s73 -15.5 107 -27.5l80 202l71 -26l-83 -205c55.333 -28 104.333 -64.5 147 -109.5s78.5 -97.167 107.5 -156.5s50.833 -125.333 65.5 -198s22 -150.334 22 -233.001
c0 -120.667 -17.5 -229.834 -52.5 -327.501s-82.833 -181 -143.5 -250s-131.834 -122.5 -213.501 -160.5s-169.167 -58 -262.5 -60c-84.667 -0.666992 -162.334 11.666 -233.001 36.999l-90 -213l-70 23zM960.001 1404c-30 15.333 -61.5 26.999 -94.5 34.999
s-68.5 12 -106.5 12c-73.333 0 -140.5 -14.667 -201.5 -44s-113.5 -73.166 -157.5 -131.499s-78.167 -131.333 -102.5 -219s-36.5 -189.834 -36.5 -306.501c0 -65.333 4.83301 -127.666 14.5 -186.999s24 -114.5 43 -165.5s42.667 -97.167 71 -138.5
s60.833 -76.333 97.5 -105zM550.001 113.002c30 -15.333 61.834 -27.166 95.501 -35.499s69.5 -12.5 107.5 -12.5c72 0 138.333 15 199 45s113 74.833 157 134.5s78.167 133.667 102.5 222s36.5 190.833 36.5 307.5c0 65.333 -4.83301 127.333 -14.5 186
s-23.834 113.167 -42.501 163.5s-42 95.666 -70 135.999s-60 74.833 -96 103.5z" />
    <glyph glyph-name="Ugrave" unicode="&#xd9;" horiz-adv-x="1511" 
d="M902 1651c-16 7.33301 -35.167 16.833 -57.5 28.5l-71.5 39l-77.5 45.5c-26.333 16 -51.5 32.333 -75.5 49s-45.833 33.167 -65.5 49.5s-35.5 31.5 -47.5 45.5l102 99h1l341 -308l-48 -48h-1v0zM213 1419l-153.998 22.001v81h484v-81l-180 -22v-782
c0 -109.333 10.5 -200 31.5 -272s50.333 -129.5 88 -172.5s82.667 -73.333 135 -91s109.833 -26.5 172.5 -26.5c136 0 237.833 45.833 305.5 137.5s101.5 227.5 101.5 407.5v799l-173 22v81h448v-81l-160 -22v-791c0 -111.333 -13.333 -207.5 -40 -288.5
s-63.834 -147.833 -111.501 -200.5s-104.334 -91.667 -170.001 -117s-137.5 -38 -215.5 -38c-98 0 -182.333 13.667 -253 41s-129 68.666 -175 123.999s-79.833 125 -101.5 209s-32.5 182.667 -32.5 296v765z" />
    <glyph glyph-name="Uacute" unicode="&#xda;" horiz-adv-x="1511" 
d="M658 1699l340.998 308h1l102 -99c-12 -14 -27.833 -29.167 -47.5 -45.5s-41.667 -32.833 -66 -49.5s-49.666 -33 -75.999 -49l-77.5 -45.5l-71.5 -39c-22.333 -11.667 -41.166 -21.167 -56.499 -28.5h-1zM212.998 1419l-153.998 22.001v81h484v-81l-180 -22v-782
c0 -109.333 10.5 -200 31.5 -272s50.333 -129.5 88 -172.5s82.667 -73.333 135 -91s109.833 -26.5 172.5 -26.5c136 0 237.833 45.833 305.5 137.5s101.5 227.5 101.5 407.5v799l-173 22v81h448v-81l-160 -22v-791c0 -111.333 -13.333 -207.5 -40 -288.5
s-63.834 -147.833 -111.501 -200.5s-104.334 -91.667 -170.001 -117s-137.5 -38 -215.5 -38c-98 0 -182.333 13.667 -253 41s-129 68.666 -175 123.999s-79.833 125 -101.5 209s-32.5 182.667 -32.5 296v765z" />
    <glyph glyph-name="Ucircumflex" unicode="&#xdb;" horiz-adv-x="1511" 
d="M213 1419l-153.998 22.001v81h484v-81l-180 -22v-782c0 -109.333 10.5 -200 31.5 -272s50.333 -129.5 88 -172.5s82.667 -73.333 135 -91s109.833 -26.5 172.5 -26.5c136 0 237.833 45.833 305.5 137.5s101.5 227.5 101.5 407.5v799l-173 22v81h448v-81l-160 -22v-791
c0 -111.333 -13.333 -207.5 -40 -288.5s-63.834 -147.833 -111.501 -200.5s-104.334 -91.667 -170.001 -117s-137.5 -38 -215.5 -38c-98 0 -182.333 13.667 -253 41s-129 68.666 -175 123.999s-79.833 125 -101.5 209s-32.5 182.667 -32.5 296v765zM457.002 1718l259 296
h144l262 -294l-68 -39l-265 223l-270 -223z" />
    <glyph glyph-name="Udieresis" unicode="&#xdc;" horiz-adv-x="1511" 
d="M1024 1716c-15.333 0 -28.834 2.83301 -40.501 8.5s-21.5 13.5 -29.5 23.5s-14.167 21.667 -18.5 35s-6.5 27.333 -6.5 42c0 15.333 2.33301 30.5 7 45.5s11.5 28.5 20.5 40.5s20.333 21.667 34 29s29.834 11 48.501 11h1c16 0 30.167 -3.33301 42.5 -10
s22.5 -15.167 30.5 -25.5s14.167 -22.166 18.5 -35.499s6.5 -26.333 6.5 -39c0 -16.667 -2.33301 -32.5 -7 -47.5s-11.667 -28.333 -21 -40s-21 -20.834 -35 -27.501s-30.667 -10 -50 -10h-1zM540.999 1716c-14.667 0 -27.834 2.83301 -39.501 8.5s-21.5 13.5 -29.5 23.5
s-14.167 21.667 -18.5 35s-6.5 27.333 -6.5 42c0 15.333 2.16699 30.5 6.5 45.5s11 28.5 20 40.5s20.333 21.667 34 29s29.834 11 48.501 11h1c16 0 30.167 -3.33301 42.5 -10s22.5 -15.167 30.5 -25.5s14.167 -22.166 18.5 -35.499s6.5 -26.333 6.5 -39
c0 -16.667 -2.33301 -32.5 -7 -47.5s-11.667 -28.333 -21 -40s-21 -20.834 -35 -27.501s-30.667 -10 -50 -10h-1zM212.999 1419l-153.998 22.001v81h484v-81l-180 -22v-782c0 -109.333 10.5 -200 31.5 -272s50.333 -129.5 88 -172.5s82.667 -73.333 135 -91
s109.833 -26.5 172.5 -26.5c136 0 237.833 45.833 305.5 137.5s101.5 227.5 101.5 407.5v799l-173 22v81h448v-81l-160 -22v-791c0 -111.333 -13.333 -207.5 -40 -288.5s-63.834 -147.833 -111.501 -200.5s-104.334 -91.667 -170.001 -117s-137.5 -38 -215.5 -38
c-98 0 -182.333 13.667 -253 41s-129 68.666 -175 123.999s-79.833 125 -101.5 209s-32.5 182.667 -32.5 296v765z" />
    <glyph glyph-name="Yacute" unicode="&#xdd;" horiz-adv-x="1306" 
d="M360 82l231 14v486l-480 837l-127 22v81h471v-81l-180 -21l320 -590l80 -174l84 174l304 590l-173 21v81h435v-81l-134 -22l-452 -834v-488l235 -15v-82h-614v82zM543 1699l340.998 308h1l102 -99c-12 -14 -27.833 -29.167 -47.5 -45.5s-41.667 -32.833 -66 -49.5
s-49.666 -33 -75.999 -49l-77.5 -45.5l-71.5 -39c-22.333 -11.667 -41.166 -21.167 -56.499 -28.5h-1z" />
    <glyph glyph-name="Thorn" unicode="&#xde;" horiz-adv-x="1293" 
d="M106 82l175.999 13.999v1325l-173 21v82h505v-82l-188 -21v-253c50 4.66699 103.833 9.33398 161.5 14.001s114.834 7 171.501 7c72 0 136.833 -8.5 194.5 -25.5s106.667 -42.333 147 -76s71.333 -75.834 93 -126.501s32.5 -109.334 32.5 -176.001
c0 -76.667 -12.5 -143.167 -37.5 -199.5s-60.833 -103.166 -107.5 -140.499s-103 -65.166 -169 -83.499s-140.333 -27.5 -223 -27.5c-58.667 0 -109.167 0.5 -151.5 1.5s-79.5 3.16699 -111.5 6.5v-246l223 -14v-82h-543v82zM425.999 426.999
c44 -5.33301 88.501 -8.16797 133.501 -8.50098s87.5 -0.5 127.5 -0.5c54 0 104.167 6.33301 150.5 19s86.166 33.167 119.499 61.5s59.5 65.333 78.5 111s28.5 101.167 28.5 166.5c0 52 -7.5 98.5 -22.5 139.5s-38.333 75.333 -70 103s-71.667 48.5 -120 62.5
s-105.833 20 -172.5 18c-48 -1.33301 -94.167 -4.16602 -138.5 -8.49902s-82.5 -8.5 -114.5 -12.5v-651z" />
    <glyph glyph-name="germandbls" unicode="&#xdf;" horiz-adv-x="1272" 
d="M57 82l147.997 13.998v851c0 108.667 15.333 203.834 46 285.501s71.5 150 122.5 205s109.667 96.333 176 124s135.166 41.5 206.499 41.5c42.667 0 84.167 -5 124.5 -15s76 -25.833 107 -47.5s56 -49.667 75 -84s28.5 -75.833 28.5 -124.5
c0 -39.333 -5.83301 -74.5 -17.5 -105.5s-26.167 -59 -43.5 -84s-36.166 -48 -56.499 -69s-39.166 -41.5 -56.499 -61.5s-31.833 -40.333 -43.5 -61s-17.5 -43 -17.5 -67c0 -30.667 9 -58.834 27 -84.501s40.667 -50.834 68 -75.501s56.833 -49.834 88.5 -75.501
s61.167 -54 88.5 -85s50 -65.667 68 -104s27 -82.166 27 -131.499c0 -60.667 -11.333 -113 -34 -157s-53.834 -80.333 -93.501 -109s-86.667 -50 -141 -64s-113.166 -21 -176.499 -21c-14.667 0 -30 0.666992 -46 2s-31.667 3.16602 -47 5.49902s-29.833 4.83301 -43.5 7.5
s-25.5 5.33398 -35.5 8.00098v127c25.333 -10 55.333 -18.333 90 -25s71.667 -10 111 -10c45.333 0 84.333 4.83301 117 14.5s59.667 23.334 81 41.001s37.166 38.834 47.499 63.501s15.5 52 15.5 82c0 42 -8.66699 79 -26 111s-39.166 61.667 -65.499 89
s-54.666 53.5 -84.999 78.5s-58.666 51.333 -84.999 79s-48.166 57.667 -65.499 90s-26 69.833 -26 112.5c0 23.333 5.5 46 16.5 68s24.833 44 41.5 66s34.5 44.167 53.5 66.5s36.833 45.5 53.5 69.5s30.5 49.167 41.5 75.5s16.5 54.833 16.5 85.5
c0 74 -18.167 129 -54.5 165s-93.166 54 -170.499 54c-50 0 -96.833 -11.167 -140.5 -33.5s-81.834 -55.666 -114.501 -99.999s-58.334 -99.333 -77.001 -165s-28 -141.5 -28 -227.5v-977h-296v82z" />
    <glyph glyph-name="agrave" unicode="&#xe0;" horiz-adv-x="1141" 
d="M104 299c0 47.333 9.16406 89.5 27.4971 126.5s43.666 69.333 75.999 97s70.5 51.334 114.5 71.001s91.833 35.667 143.5 48s105.834 21.5 162.501 27.5s113.667 9.66699 171 11v66c0 52.667 -4 97.834 -12 135.501s-21.833 68.667 -41.5 93s-46 42.166 -79 53.499
s-74.833 17 -125.5 17c-40.667 0 -80.667 -4.66699 -120 -14s-76 -20.5 -110 -33.5s-64.333 -26.5 -91 -40.5s-48 -26 -64 -36h-1l-44 83c5.33301 5.33301 15.666 12.833 30.999 22.5s34.666 20.334 57.999 32.001s49.5 23.5 78.5 35.5s59.667 22.833 92 32.5
s65.5 17.667 99.5 24s67.667 9.5 101 9.5c68.667 0 126.667 -7.16699 174 -21.5s85.666 -37.333 114.999 -69s50.333 -72.5 63 -122.5s19 -111 19 -183v-682h130v-70l-39 -9.5c-15.333 -3.66699 -31.333 -7 -48 -10s-33.5 -5.5 -50.5 -7.5s-32.5 -3 -46.5 -3
c-13.333 0 -24.666 0.666992 -33.999 2s-17.333 4.66602 -24 9.99902s-11.5 13.5 -14.5 24.5s-4.5 26.167 -4.5 45.5v88l-56.5 -47.5c-23.667 -19.667 -51.167 -39 -82.5 -58s-66.166 -35.333 -104.499 -49s-79.166 -20.5 -122.499 -20.5
c-45.333 0 -88.666 6.33301 -129.999 19s-77.666 32.167 -108.999 58.5s-56.166 59.666 -74.499 99.999s-27.5 88.5 -27.5 144.5zM263.997 315c0 -42.667 6.00098 -78.333 18.001 -107s28.5 -51.834 49.5 -69.501s45.667 -30.334 74 -38.001s58.5 -11.5 90.5 -11.5
c22.667 0 47 4 73 12s52.5 18.667 79.5 32s53.333 28.333 79 45s49.5 33.667 71.5 51v358c-86.667 -0.666992 -163.334 -7.5 -230.001 -20.5s-122.5 -31.167 -167.5 -54.5s-79.167 -51.666 -102.5 -84.999s-35 -70.666 -35 -111.999zM583.998 1353
c-12 5.33301 -28.5 15.6689 -49.5 31.002s-44.167 33.5 -69.5 54.5l-78.5 68l-77 71.5c-24.333 23.333 -46 45.166 -65 65.499s-32.833 37.166 -41.5 50.499l116 100h1l316 -391l-51 -50h-1v0z" />
    <glyph glyph-name="aacute" unicode="&#xe1;" horiz-adv-x="1141" 
d="M104 299c0 47.333 9.16406 89.5 27.4971 126.5s43.666 69.333 75.999 97s70.5 51.334 114.5 71.001s91.833 35.667 143.5 48s105.834 21.5 162.501 27.5s113.667 9.66699 171 11v66c0 52.667 -4 97.834 -12 135.501s-21.833 68.667 -41.5 93s-46 42.166 -79 53.499
s-74.833 17 -125.5 17c-40.667 0 -80.667 -4.66699 -120 -14s-76 -20.5 -110 -33.5s-64.333 -26.5 -91 -40.5s-48 -26 -64 -36h-1l-44 83c5.33301 5.33301 15.666 12.833 30.999 22.5s34.666 20.334 57.999 32.001s49.5 23.5 78.5 35.5s59.667 22.833 92 32.5
s65.5 17.667 99.5 24s67.667 9.5 101 9.5c68.667 0 126.667 -7.16699 174 -21.5s85.666 -37.333 114.999 -69s50.333 -72.5 63 -122.5s19 -111 19 -183v-682h130v-70l-39 -9.5c-15.333 -3.66699 -31.333 -7 -48 -10s-33.5 -5.5 -50.5 -7.5s-32.5 -3 -46.5 -3
c-13.333 0 -24.666 0.666992 -33.999 2s-17.333 4.66602 -24 9.99902s-11.5 13.5 -14.5 24.5s-4.5 26.167 -4.5 45.5v88l-56.5 -47.5c-23.667 -19.667 -51.167 -39 -82.5 -58s-66.166 -35.333 -104.499 -49s-79.166 -20.5 -122.499 -20.5
c-45.333 0 -88.666 6.33301 -129.999 19s-77.666 32.167 -108.999 58.5s-56.166 59.666 -74.499 99.999s-27.5 88.5 -27.5 144.5zM263.997 315c0 -42.667 6.00098 -78.333 18.001 -107s28.5 -51.834 49.5 -69.501s45.667 -30.334 74 -38.001s58.5 -11.5 90.5 -11.5
c22.667 0 47 4 73 12s52.5 18.667 79.5 32s53.333 28.333 79 45s49.5 33.667 71.5 51v358c-86.667 -0.666992 -163.334 -7.5 -230.001 -20.5s-122.5 -31.167 -167.5 -54.5s-79.167 -51.666 -102.5 -84.999s-35 -70.666 -35 -111.999zM445.998 1403l317 391.001h1l115 -100
c-8.66699 -13.333 -22.167 -29.833 -40.5 -49.5s-39.333 -40.834 -63 -63.501l-75.5 -69.5l-78 -66.5l-70.5 -55.5c-21.667 -16.333 -39.5 -28.5 -53.5 -36.5h-2z" />
    <glyph glyph-name="acircumflex" unicode="&#xe2;" horiz-adv-x="1141" 
d="M104 299c0 47.333 9.16406 89.5 27.4971 126.5s43.666 69.333 75.999 97s70.5 51.334 114.5 71.001s91.833 35.667 143.5 48s105.834 21.5 162.501 27.5s113.667 9.66699 171 11v66c0 52.667 -4 97.834 -12 135.501s-21.833 68.667 -41.5 93s-46 42.166 -79 53.499
s-74.833 17 -125.5 17c-40.667 0 -80.667 -4.66699 -120 -14s-76 -20.5 -110 -33.5s-64.333 -26.5 -91 -40.5s-48 -26 -64 -36h-1l-44 83c5.33301 5.33301 15.666 12.833 30.999 22.5s34.666 20.334 57.999 32.001s49.5 23.5 78.5 35.5s59.667 22.833 92 32.5
s65.5 17.667 99.5 24s67.667 9.5 101 9.5c68.667 0 126.667 -7.16699 174 -21.5s85.666 -37.333 114.999 -69s50.333 -72.5 63 -122.5s19 -111 19 -183v-682h130v-70l-39 -9.5c-15.333 -3.66699 -31.333 -7 -48 -10s-33.5 -5.5 -50.5 -7.5s-32.5 -3 -46.5 -3
c-13.333 0 -24.666 0.666992 -33.999 2s-17.333 4.66602 -24 9.99902s-11.5 13.5 -14.5 24.5s-4.5 26.167 -4.5 45.5v88l-56.5 -47.5c-23.667 -19.667 -51.167 -39 -82.5 -58s-66.166 -35.333 -104.499 -49s-79.166 -20.5 -122.499 -20.5
c-45.333 0 -88.666 6.33301 -129.999 19s-77.666 32.167 -108.999 58.5s-56.166 59.666 -74.499 99.999s-27.5 88.5 -27.5 144.5zM263.997 315c0 -42.667 6.00098 -78.333 18.001 -107s28.5 -51.834 49.5 -69.501s45.667 -30.334 74 -38.001s58.5 -11.5 90.5 -11.5
c22.667 0 47 4 73 12s52.5 18.667 79.5 32s53.333 28.333 79 45s49.5 33.667 71.5 51v358c-86.667 -0.666992 -163.334 -7.5 -230.001 -20.5s-122.5 -31.167 -167.5 -54.5s-79.167 -51.666 -102.5 -84.999s-35 -70.666 -35 -111.999zM186.998 1373l284 401h145l275 -400
l-66 -37l-282 322l-296 -322z" />
    <glyph glyph-name="atilde" unicode="&#xe3;" horiz-adv-x="1141" 
d="M104 299c0 47.333 9.16406 89.5 27.4971 126.5s43.666 69.333 75.999 97s70.5 51.334 114.5 71.001s91.833 35.667 143.5 48s105.834 21.5 162.501 27.5s113.667 9.66699 171 11v66c0 52.667 -4 97.834 -12 135.501s-21.833 68.667 -41.5 93s-46 42.166 -79 53.499
s-74.833 17 -125.5 17c-40.667 0 -80.667 -4.66699 -120 -14s-76 -20.5 -110 -33.5s-64.333 -26.5 -91 -40.5s-48 -26 -64 -36h-1l-44 83c5.33301 5.33301 15.666 12.833 30.999 22.5s34.666 20.334 57.999 32.001s49.5 23.5 78.5 35.5s59.667 22.833 92 32.5
s65.5 17.667 99.5 24s67.667 9.5 101 9.5c68.667 0 126.667 -7.16699 174 -21.5s85.666 -37.333 114.999 -69s50.333 -72.5 63 -122.5s19 -111 19 -183v-682h130v-70l-39 -9.5c-15.333 -3.66699 -31.333 -7 -48 -10s-33.5 -5.5 -50.5 -7.5s-32.5 -3 -46.5 -3
c-13.333 0 -24.666 0.666992 -33.999 2s-17.333 4.66602 -24 9.99902s-11.5 13.5 -14.5 24.5s-4.5 26.167 -4.5 45.5v88l-56.5 -47.5c-23.667 -19.667 -51.167 -39 -82.5 -58s-66.166 -35.333 -104.499 -49s-79.166 -20.5 -122.499 -20.5
c-45.333 0 -88.666 6.33301 -129.999 19s-77.666 32.167 -108.999 58.5s-56.166 59.666 -74.499 99.999s-27.5 88.5 -27.5 144.5zM263.997 315c0 -42.667 6.00098 -78.333 18.001 -107s28.5 -51.834 49.5 -69.501s45.667 -30.334 74 -38.001s58.5 -11.5 90.5 -11.5
c22.667 0 47 4 73 12s52.5 18.667 79.5 32s53.333 28.333 79 45s49.5 33.667 71.5 51v358c-86.667 -0.666992 -163.334 -7.5 -230.001 -20.5s-122.5 -31.167 -167.5 -54.5s-79.167 -51.666 -102.5 -84.999s-35 -70.666 -35 -111.999zM124.998 1440
c5.33301 22 15.8369 45 31.5039 69s35.5 46 59.5 66s51.167 36.5 81.5 49.5s63.166 19.5 98.499 19.5c27.333 0 51.666 -4.33301 72.999 -13s40.833 -19.5 58.5 -32.5s34.167 -27.167 49.5 -42.5s30.5 -29.5 45.5 -42.5s30.667 -23.833 47 -32.5s34.5 -13 54.5 -13
c24.667 0 46.167 5 64.5 15s34.166 22.167 47.499 36.5s24 29.166 32 44.499s14 28.333 18 39l79 -41c-7.33301 -26 -18.5 -51.333 -33.5 -76s-33.167 -46.5 -54.5 -65.5s-45.833 -34.333 -73.5 -46s-57.834 -17.5 -90.501 -17.5c-27.333 0 -51.5 4.33301 -72.5 13
s-40.5 19.667 -58.5 33s-35 27.5 -51 42.5s-32 29.167 -48 42.5s-32.833 24.333 -50.5 33s-37.167 13 -58.5 13c-24.667 0 -46.5 -5 -65.5 -15s-35.5 -22.167 -49.5 -36.5s-25.5 -29.166 -34.5 -44.499s-15.833 -28.333 -20.5 -39z" />
    <glyph glyph-name="adieresis" unicode="&#xe4;" horiz-adv-x="1141" 
d="M104 299c0 47.333 9.16406 89.5 27.4971 126.5s43.666 69.333 75.999 97s70.5 51.334 114.5 71.001s91.833 35.667 143.5 48s105.834 21.5 162.501 27.5s113.667 9.66699 171 11v66c0 52.667 -4 97.834 -12 135.501s-21.833 68.667 -41.5 93s-46 42.166 -79 53.499
s-74.833 17 -125.5 17c-40.667 0 -80.667 -4.66699 -120 -14s-76 -20.5 -110 -33.5s-64.333 -26.5 -91 -40.5s-48 -26 -64 -36h-1l-44 83c5.33301 5.33301 15.666 12.833 30.999 22.5s34.666 20.334 57.999 32.001s49.5 23.5 78.5 35.5s59.667 22.833 92 32.5
s65.5 17.667 99.5 24s67.667 9.5 101 9.5c68.667 0 126.667 -7.16699 174 -21.5s85.666 -37.333 114.999 -69s50.333 -72.5 63 -122.5s19 -111 19 -183v-682h130v-70l-39 -9.5c-15.333 -3.66699 -31.333 -7 -48 -10s-33.5 -5.5 -50.5 -7.5s-32.5 -3 -46.5 -3
c-13.333 0 -24.666 0.666992 -33.999 2s-17.333 4.66602 -24 9.99902s-11.5 13.5 -14.5 24.5s-4.5 26.167 -4.5 45.5v88l-56.5 -47.5c-23.667 -19.667 -51.167 -39 -82.5 -58s-66.166 -35.333 -104.499 -49s-79.166 -20.5 -122.499 -20.5
c-45.333 0 -88.666 6.33301 -129.999 19s-77.666 32.167 -108.999 58.5s-56.166 59.666 -74.499 99.999s-27.5 88.5 -27.5 144.5zM263.997 315c0 -42.667 6.00098 -78.333 18.001 -107s28.5 -51.834 49.5 -69.501s45.667 -30.334 74 -38.001s58.5 -11.5 90.5 -11.5
c22.667 0 47 4 73 12s52.5 18.667 79.5 32s53.333 28.333 79 45s49.5 33.667 71.5 51v358c-86.667 -0.666992 -163.334 -7.5 -230.001 -20.5s-122.5 -31.167 -167.5 -54.5s-79.167 -51.666 -102.5 -84.999s-35 -70.666 -35 -111.999zM757.998 1379
c-14.667 0 -27.833 2.83203 -39.5 8.49902s-21.5 13.5 -29.5 23.5s-14.167 21.5 -18.5 34.5s-6.5 26.833 -6.5 41.5c0 16 2.16699 31.5 6.5 46.5s11 28.5 20 40.5s20.333 21.5 34 28.5s29.834 10.5 48.501 10.5h1c16 0 30.167 -3.16699 42.5 -9.5
s22.666 -14.666 30.999 -24.999s14.5 -22 18.5 -35s6 -26.167 6 -39.5c0 -17.333 -2.33301 -33.5 -7 -48.5s-11.667 -28.167 -21 -39.5s-21 -20.333 -35 -27s-30.667 -10 -50 -10h-1zM316.999 1379c-15.333 0 -28.833 2.83203 -40.5 8.49902s-21.5 13.5 -29.5 23.5
s-14.167 21.5 -18.5 34.5s-6.5 26.833 -6.5 41.5c0 16 2.16699 31.5 6.5 46.5s11 28.5 20 40.5s20.5 21.5 34.5 28.5s30.333 10.5 49 10.5h1c16 0 30 -3.16699 42 -9.5s22.167 -14.666 30.5 -24.999s14.5 -22 18.5 -35s6 -26.167 6 -39.5c0 -17.333 -2.33301 -33.5 -7 -48.5
s-11.5 -28.167 -20.5 -39.5s-20.667 -20.333 -35 -27s-30.833 -10 -49.5 -10h-1z" />
    <glyph glyph-name="aring" unicode="&#xe5;" horiz-adv-x="1141" 
d="M104 299c0 47.333 9.16406 89.5 27.4971 126.5s43.666 69.333 75.999 97s70.5 51.334 114.5 71.001s91.833 35.667 143.5 48s105.834 21.5 162.501 27.5s113.667 9.66699 171 11v66c0 52.667 -4 97.834 -12 135.501s-21.833 68.667 -41.5 93s-46 42.166 -79 53.499
s-74.833 17 -125.5 17c-40.667 0 -80.667 -4.66699 -120 -14s-76 -20.5 -110 -33.5s-64.333 -26.5 -91 -40.5s-48 -26 -64 -36h-1l-44 83c5.33301 5.33301 15.666 12.833 30.999 22.5s34.666 20.334 57.999 32.001s49.5 23.5 78.5 35.5s59.667 22.833 92 32.5
s65.5 17.667 99.5 24s67.667 9.5 101 9.5c68.667 0 126.667 -7.16699 174 -21.5s85.666 -37.333 114.999 -69s50.333 -72.5 63 -122.5s19 -111 19 -183v-682h130v-70l-39 -9.5c-15.333 -3.66699 -31.333 -7 -48 -10s-33.5 -5.5 -50.5 -7.5s-32.5 -3 -46.5 -3
c-13.333 0 -24.666 0.666992 -33.999 2s-17.333 4.66602 -24 9.99902s-11.5 13.5 -14.5 24.5s-4.5 26.167 -4.5 45.5v88l-56.5 -47.5c-23.667 -19.667 -51.167 -39 -82.5 -58s-66.166 -35.333 -104.499 -49s-79.166 -20.5 -122.499 -20.5
c-45.333 0 -88.666 6.33301 -129.999 19s-77.666 32.167 -108.999 58.5s-56.166 59.666 -74.499 99.999s-27.5 88.5 -27.5 144.5zM263.997 315c0 -42.667 6.00098 -78.333 18.001 -107s28.5 -51.834 49.5 -69.501s45.667 -30.334 74 -38.001s58.5 -11.5 90.5 -11.5
c22.667 0 47 4 73 12s52.5 18.667 79.5 32s53.333 28.333 79 45s49.5 33.667 71.5 51v358c-86.667 -0.666992 -163.334 -7.5 -230.001 -20.5s-122.5 -31.167 -167.5 -54.5s-79.167 -51.666 -102.5 -84.999s-35 -70.666 -35 -111.999zM540.998 1318
c-54 0 -100.828 7.3291 -140.495 21.9961s-72.667 34.667 -99 60s-46 55 -59 89s-19.167 70.667 -18.5 110c0.666992 42.667 10.667 80.334 30 113.001s44.666 60.334 75.999 83.001s66.666 39.834 105.999 51.501s79 17.5 119 17.5h1c50 0 94.167 -6.83301 132.5 -20.5
s70.5 -32.667 96.5 -57s45.667 -53 59 -86s20 -68.5 20 -106.5c-0.666992 -44.667 -9.83398 -84.167 -27.501 -118.5s-41.334 -63.166 -71.001 -86.499s-63.834 -41 -102.501 -53s-79 -18 -121 -18h-1zM548.003 1392c66 0 116.333 16.665 151 49.998s52 81.333 52 144
c0 26.667 -3.83301 52.334 -11.5 77.001s-19.5 46.167 -35.5 64.5s-36.667 33 -62 44s-56 16.5 -92 16.5h-1c-32 0 -61 -4.33301 -87 -13s-48.167 -21 -66.5 -37s-32.5 -35.667 -42.5 -59s-15 -49.666 -15 -78.999c0 -27.333 4 -53.5 12 -78.5s20.5 -47 37.5 -66
s38.667 -34.333 65 -46s57.833 -17.5 94.5 -17.5h1z" />
    <glyph glyph-name="ae" unicode="&#xe6;" horiz-adv-x="1785" 
d="M104 298c0 47.333 9.16992 89.499 27.5029 126.499s43.5 69.5 75.5 97.5s69.667 51.833 113 71.5s90 35.834 140 48.501s102.5 22 157.5 28s109.833 9.66699 164.5 11v73c0 53.333 -3.16699 98.5 -9.5 135.5s-18.166 67 -35.499 90s-41.666 39.667 -72.999 50
s-72.333 15.5 -123 15.5c-40.667 0 -80.167 -4.5 -118.5 -13.5s-74.333 -19.833 -108 -32.5s-64 -26.167 -91 -40.5l-68.5 -37.5l-44 83c11.333 10 33.166 23.667 65.499 41s70.166 34.5 113.499 51.5s89.666 31.833 138.999 44.5s96.666 19 141.999 19
c96 0 171.167 -14.5 225.5 -43.5s93.166 -74.167 116.499 -135.5c47.333 58.667 104.166 104.5 170.499 137.5s139.166 49.5 218.499 49.5c59.333 0 112.5 -8.83301 159.5 -26.5s87 -43.5 120 -77.5s58.667 -76.333 77 -127s28.5 -109 30.5 -175c0 -38 -0.666992 -71 -2 -99
s-4.33301 -52.667 -9 -74h-742v-17c0 -6 0.333008 -11.667 1 -17c2 -80 13.5 -149.667 34.5 -209s48.5 -108.833 82.5 -148.5s73.333 -69.167 118 -88.5s92.334 -29 143.001 -29c29.333 0 59.5 3 90.5 9s60.833 14 89.5 24s55.334 21.5 80.001 34.5s45 26.833 61 41.5
l30 -68c-20 -20 -44.667 -38.833 -74 -56.5s-61.5 -33 -96.5 -46s-71.833 -23.167 -110.5 -30.5s-77 -11 -115 -11c-95.333 0 -176.833 20.333 -244.5 61s-121.5 97 -161.5 169c-15.333 -22 -35.5 -46.5 -60.5 -73.5s-54.833 -52 -89.5 -75s-74.334 -42.333 -119.001 -58
s-94.334 -23.5 -149.001 -23.5c-45.333 0 -88.666 6.33301 -129.999 19s-77.666 32 -108.999 58s-56.333 59.167 -75 99.5s-28 88.5 -28 144.5zM1525 676.999c4 30.667 5.99805 61.667 5.99805 93c0 43.333 -5.16699 83.166 -15.5 119.499s-26.5 67.5 -48.5 93.5
s-49.833 46.333 -83.5 61s-74.167 22 -121.5 22c-43.333 0 -83.666 -6.83301 -120.999 -20.5s-70.166 -36 -98.499 -67s-51.5 -71.167 -69.5 -120.5s-29.333 -109.666 -34 -180.999h586zM264.001 314.999c0 -42.667 5.99609 -78.498 17.9961 -107.498
s28.5 -52.167 49.5 -69.5s45.5 -29.833 73.5 -37.5s58.333 -11.5 91 -11.5c38.667 0 75.334 6.16699 110.001 18.5s66.334 28.166 95.001 47.499s53.834 40.5 75.501 63.5s38.834 45.5 51.501 67.5c-31.333 84.667 -47 181 -47 289v24
c-84.667 -0.666992 -159.167 -8.16699 -223.5 -22.5s-118.333 -34 -162 -59s-76.5 -54.833 -98.5 -89.5s-33 -72.334 -33 -113.001z" />
    <glyph glyph-name="ccedilla" unicode="&#xe7;" horiz-adv-x="1004" 
d="M379 -342c14.667 -5.33301 31.6709 -9.49316 51.0039 -12.4932s34.666 -4.5 45.999 -4.5h1c26 0 49 1.83301 69 5.5s37 10.834 51 21.501s24.5 25.667 31.5 45s10.5 44.666 10.5 75.999c0 18.667 -2.33301 37 -7 55s-10.334 35.333 -17.001 52s-13.834 32 -21.501 46
s-14.834 26 -21.501 36c-76 4.66699 -143.167 22.667 -201.5 54s-107.166 72.833 -146.499 124.5s-69 111.5 -89 179.5s-30.333 140.667 -31 218c-0.666992 53.333 4.5 105.666 15.5 156.999s27.333 99.666 49 144.999s48.5 87.166 80.5 125.499s69 71.333 111 99
s88.833 49.167 140.5 64.5s108.167 23 169.5 23c28 0 56 -2.16699 84 -6.5s54.5 -9.5 79.5 -15.5s47.5 -12.667 67.5 -20s36.667 -14 50 -20l-8 -275h-91l-39 190c-16.667 16.667 -40.667 30.334 -72 41.001s-69 16 -113 16c-54 0 -103.667 -10.833 -149 -32.5
s-84.333 -52.667 -117 -93s-58.167 -89 -76.5 -146s-27.5 -120.833 -27.5 -191.5c-0.666992 -89.333 8.66602 -167.166 27.999 -233.499s46 -121.5 80 -165.5s74.333 -76.833 121 -98.5s97 -32.5 151 -32.5c31.333 0 62.333 2.83301 93 8.5s59.5 13 86.5 22s51.667 19 74 30
s41.166 21.833 56.499 32.5l29 -56c-17.333 -17.333 -38 -33.833 -62 -49.5s-50.167 -29.834 -78.5 -42.501s-58.166 -23.334 -89.499 -32.001s-62.333 -14.667 -93 -18c11.333 -13.333 23.833 -29.666 37.5 -48.999s26.334 -40.833 38.001 -64.5
s21.167 -48.834 28.5 -75.501s10.666 -54 9.99902 -82c-1.33301 -34.667 -7.66602 -63.834 -18.999 -87.501s-27.5 -42.834 -48.5 -57.501s-46.5 -25.167 -76.5 -31.5s-64 -9.5 -102 -9.5h-1c-11.333 0 -23.5 0.666992 -36.5 2s-26 3.16602 -39 5.49902
s-25.333 5.16602 -37 8.49902s-21.834 7 -30.501 11l1 108v0z" />
    <glyph glyph-name="egrave" unicode="&#xe8;" horiz-adv-x="1107" 
d="M102 575c0 86.667 13.1641 166.332 39.4971 238.999s62.833 135.334 109.5 188.001s101.834 93.5 165.501 122.5s132.5 43.5 206.5 43.5c59.333 0 112.5 -8.83301 159.5 -26.5s87 -43.5 120 -77.5s58.667 -76.333 77 -127s28.5 -109 30.5 -175c0 -38 -0.5 -71 -1.5 -99
s-4.16699 -52.667 -9.5 -74h-742v-17c0 -6 0.333008 -11.667 1 -17c2 -80 13.5 -149.667 34.5 -209s48.5 -108.833 82.5 -148.5s73.333 -69.167 118 -88.5s92.334 -29 143.001 -29c29.333 0 59.5 3 90.5 9s60.833 14 89.5 24s55.334 21.5 80.001 34.5s45 26.833 61 41.5
l30 -68c-20 -20 -44.667 -38.833 -74 -56.5s-61.5 -33 -96.5 -46s-71.833 -23.167 -110.5 -30.5s-77 -11 -115 -11c-79.333 0 -149.5 14.667 -210.5 44s-112.167 70.5 -153.5 123.5s-72.5 116 -93.5 189s-31.5 153.5 -31.5 241.5zM846.997 676.998
c1.33301 15.333 2.49805 30.833 3.49805 46.5s1.5 31.167 1.5 46.5c0 43.333 -5.16699 83.166 -15.5 119.499s-26.5 67.5 -48.5 93.5s-49.833 46.333 -83.5 61s-74.167 22 -121.5 22c-43.333 0 -83.666 -6.83301 -120.999 -20.5s-70.166 -36 -98.499 -67
s-51.5 -71.167 -69.5 -120.5s-29.333 -109.666 -34 -180.999h587zM643.995 1353c-12 5.33301 -28.5 15.6689 -49.5 31.002s-44.167 33.5 -69.5 54.5l-78.5 68l-77 71.5c-24.333 23.333 -46 45.166 -65 65.499s-32.833 37.166 -41.5 50.499l116 100h1l316 -391l-51 -50h-1v0z
" />
    <glyph glyph-name="eacute" unicode="&#xe9;" horiz-adv-x="1107" 
d="M506 1403l317 391.001h1l115 -100c-8.66699 -13.333 -22.167 -29.833 -40.5 -49.5s-39.333 -40.834 -63 -63.501l-75.5 -69.5l-78 -66.5l-70.5 -55.5c-21.667 -16.333 -39.5 -28.5 -53.5 -36.5h-2zM102 575.001c0 86.667 13.1641 166.332 39.4971 238.999
s62.833 135.334 109.5 188.001s101.834 93.5 165.501 122.5s132.5 43.5 206.5 43.5c59.333 0 112.5 -8.83301 159.5 -26.5s87 -43.5 120 -77.5s58.667 -76.333 77 -127s28.5 -109 30.5 -175c0 -38 -0.5 -71 -1.5 -99s-4.16699 -52.667 -9.5 -74h-742v-17
c0 -6 0.333008 -11.667 1 -17c2 -80 13.5 -149.667 34.5 -209s48.5 -108.833 82.5 -148.5s73.333 -69.167 118 -88.5s92.334 -29 143.001 -29c29.333 0 59.5 3 90.5 9s60.833 14 89.5 24s55.334 21.5 80.001 34.5s45 26.833 61 41.5l30 -68
c-20 -20 -44.667 -38.833 -74 -56.5s-61.5 -33 -96.5 -46s-71.833 -23.167 -110.5 -30.5s-77 -11 -115 -11c-79.333 0 -149.5 14.667 -210.5 44s-112.167 70.5 -153.5 123.5s-72.5 116 -93.5 189s-31.5 153.5 -31.5 241.5zM846.997 676.999
c1.33301 15.333 2.49805 30.833 3.49805 46.5s1.5 31.167 1.5 46.5c0 43.333 -5.16699 83.166 -15.5 119.499s-26.5 67.5 -48.5 93.5s-49.833 46.333 -83.5 61s-74.167 22 -121.5 22c-43.333 0 -83.666 -6.83301 -120.999 -20.5s-70.166 -36 -98.499 -67
s-51.5 -71.167 -69.5 -120.5s-29.333 -109.666 -34 -180.999h587z" />
    <glyph glyph-name="ecircumflex" unicode="&#xea;" horiz-adv-x="1107" 
d="M247 1373l284 401h145l275 -400l-66 -37l-282 322l-296 -322zM102 575c0 86.667 13.1641 166.332 39.4971 238.999s62.833 135.334 109.5 188.001s101.834 93.5 165.501 122.5s132.5 43.5 206.5 43.5c59.333 0 112.5 -8.83301 159.5 -26.5s87 -43.5 120 -77.5
s58.667 -76.333 77 -127s28.5 -109 30.5 -175c0 -38 -0.5 -71 -1.5 -99s-4.16699 -52.667 -9.5 -74h-742v-17c0 -6 0.333008 -11.667 1 -17c2 -80 13.5 -149.667 34.5 -209s48.5 -108.833 82.5 -148.5s73.333 -69.167 118 -88.5s92.334 -29 143.001 -29
c29.333 0 59.5 3 90.5 9s60.833 14 89.5 24s55.334 21.5 80.001 34.5s45 26.833 61 41.5l30 -68c-20 -20 -44.667 -38.833 -74 -56.5s-61.5 -33 -96.5 -46s-71.833 -23.167 -110.5 -30.5s-77 -11 -115 -11c-79.333 0 -149.5 14.667 -210.5 44s-112.167 70.5 -153.5 123.5
s-72.5 116 -93.5 189s-31.5 153.5 -31.5 241.5zM846.997 676.998c1.33301 15.333 2.49805 30.833 3.49805 46.5s1.5 31.167 1.5 46.5c0 43.333 -5.16699 83.166 -15.5 119.499s-26.5 67.5 -48.5 93.5s-49.833 46.333 -83.5 61s-74.167 22 -121.5 22
c-43.333 0 -83.666 -6.83301 -120.999 -20.5s-70.166 -36 -98.499 -67s-51.5 -71.167 -69.5 -120.5s-29.333 -109.666 -34 -180.999h587z" />
    <glyph glyph-name="edieresis" unicode="&#xeb;" horiz-adv-x="1107" 
d="M818 1379c-14.667 0 -27.833 2.83203 -39.5 8.49902s-21.5 13.5 -29.5 23.5s-14.167 21.5 -18.5 34.5s-6.5 26.833 -6.5 41.5c0 16 2.16699 31.5 6.5 46.5s11 28.5 20 40.5s20.333 21.5 34 28.5s29.834 10.5 48.501 10.5h1c16 0 30.167 -3.16699 42.5 -9.5
s22.666 -14.666 30.999 -24.999s14.5 -22 18.5 -35s6 -26.167 6 -39.5c0 -17.333 -2.33301 -33.5 -7 -48.5s-11.667 -28.167 -21 -39.5s-21 -20.333 -35 -27s-30.667 -10 -50 -10h-1zM377.001 1379c-15.333 0 -28.833 2.83203 -40.5 8.49902s-21.5 13.5 -29.5 23.5
s-14.167 21.5 -18.5 34.5s-6.5 26.833 -6.5 41.5c0 16 2.16699 31.5 6.5 46.5s11 28.5 20 40.5s20.5 21.5 34.5 28.5s30.333 10.5 49 10.5h1c16 0 30 -3.16699 42 -9.5s22.167 -14.666 30.5 -24.999s14.5 -22 18.5 -35s6 -26.167 6 -39.5c0 -17.333 -2.33301 -33.5 -7 -48.5
s-11.5 -28.167 -20.5 -39.5s-20.667 -20.333 -35 -27s-30.833 -10 -49.5 -10h-1zM102.001 574.998c0 86.667 13.1641 166.332 39.4971 238.999s62.833 135.334 109.5 188.001s101.834 93.5 165.501 122.5s132.5 43.5 206.5 43.5c59.333 0 112.5 -8.83301 159.5 -26.5
s87 -43.5 120 -77.5s58.667 -76.333 77 -127s28.5 -109 30.5 -175c0 -38 -0.5 -71 -1.5 -99s-4.16699 -52.667 -9.5 -74h-742v-17c0 -6 0.333008 -11.667 1 -17c2 -80 13.5 -149.667 34.5 -209s48.5 -108.833 82.5 -148.5s73.333 -69.167 118 -88.5s92.334 -29 143.001 -29
c29.333 0 59.5 3 90.5 9s60.833 14 89.5 24s55.334 21.5 80.001 34.5s45 26.833 61 41.5l30 -68c-20 -20 -44.667 -38.833 -74 -56.5s-61.5 -33 -96.5 -46s-71.833 -23.167 -110.5 -30.5s-77 -11 -115 -11c-79.333 0 -149.5 14.667 -210.5 44s-112.167 70.5 -153.5 123.5
s-72.5 116 -93.5 189s-31.5 153.5 -31.5 241.5zM846.998 676.996c1.33301 15.333 2.49805 30.833 3.49805 46.5s1.5 31.167 1.5 46.5c0 43.333 -5.16699 83.166 -15.5 119.499s-26.5 67.5 -48.5 93.5s-49.833 46.333 -83.5 61s-74.167 22 -121.5 22
c-43.333 0 -83.666 -6.83301 -120.999 -20.5s-70.166 -36 -98.499 -67s-51.5 -71.167 -69.5 -120.5s-29.333 -109.666 -34 -180.999h587z" />
    <glyph glyph-name="igrave" unicode="&#xec;" horiz-adv-x="683" 
d="M95 82l185 13v921l-169 33v81l273 30h5l35 -30v-1035l185 -13v-82h-514v82zM379 1353c-12 5.33301 -28.5 15.6689 -49.5 31.002s-44.167 33.5 -69.5 54.5l-78.5 68l-77 71.5c-24.333 23.333 -46 45.166 -65 65.499s-32.833 37.166 -41.5 50.499l116 100h1l316 -391
l-51 -50h-1v0z" />
    <glyph glyph-name="iacute" unicode="&#xed;" horiz-adv-x="683" 
d="M241 1403l317 391.001h1l115 -100c-8.66699 -13.333 -22.167 -29.833 -40.5 -49.5s-39.333 -40.834 -63 -63.501l-75.5 -69.5l-78 -66.5l-70.5 -55.5c-21.667 -16.333 -39.5 -28.5 -53.5 -36.5h-2zM95 82.001l185 13v921l-169 33v81l273 30h5l35 -30v-1035l185 -13v-82
h-514v82z" />
    <glyph glyph-name="icircumflex" unicode="&#xee;" horiz-adv-x="683" 
d="M-18 1373l284 401h145l275 -400l-66 -37l-282 322l-296 -322zM95 82l185 13v921l-169 33v81l273 30h5l35 -30v-1035l185 -13v-82h-514v82z" />
    <glyph glyph-name="idieresis" unicode="&#xef;" horiz-adv-x="683" 
d="M553 1379c-14.667 0 -27.833 2.83203 -39.5 8.49902s-21.5 13.5 -29.5 23.5s-14.167 21.5 -18.5 34.5s-6.5 26.833 -6.5 41.5c0 16 2.16699 31.5 6.5 46.5s11 28.5 20 40.5s20.333 21.5 34 28.5s29.834 10.5 48.501 10.5h1c16 0 30.167 -3.16699 42.5 -9.5
s22.666 -14.666 30.999 -24.999s14.5 -22 18.5 -35s6 -26.167 6 -39.5c0 -17.333 -2.33301 -33.5 -7 -48.5s-11.667 -28.167 -21 -39.5s-21 -20.333 -35 -27s-30.667 -10 -50 -10h-1zM112.001 1379c-15.333 0 -28.833 2.83203 -40.5 8.49902s-21.5 13.5 -29.5 23.5
s-14.167 21.5 -18.5 34.5s-6.5 26.833 -6.5 41.5c0 16 2.16699 31.5 6.5 46.5s11 28.5 20 40.5s20.5 21.5 34.5 28.5s30.333 10.5 49 10.5h1c16 0 30 -3.16699 42 -9.5s22.167 -14.666 30.5 -24.999s14.5 -22 18.5 -35s6 -26.167 6 -39.5c0 -17.333 -2.33301 -33.5 -7 -48.5
s-11.5 -28.167 -20.5 -39.5s-20.667 -20.333 -35 -27s-30.833 -10 -49.5 -10h-1zM95.001 81.998l185 13v921l-169 33v81l273 30h5l35 -30v-1035l185 -13v-82h-514v82z" />
    <glyph glyph-name="eth" unicode="&#xf0;" horiz-adv-x="1184" 
d="M99 529c0 106 14.4971 198.832 43.4971 278.499s67.5 146.334 115.5 200.001s103.333 93.834 166 120.501s128 40 196 40c46.667 0 89 -5.66699 127 -17s70 -23.666 96 -36.999c-16 38 -36 76.833 -60 116.5s-51.333 78.5 -82 116.5s-65 74.5 -103 109.5
s-79 66.5 -123 94.5l-153 -179l-74 53l156 177c-16.667 10.667 -34.834 21.667 -54.501 33s-39.834 22 -60.501 32s-40.667 18.833 -60 26.5s-37 13.5 -53 17.5l31 76c28.667 -8.66699 54.334 -17.334 77.001 -26.001s44 -17.5 64 -26.5s39.5 -18.667 58.5 -29l61.5 -33.5
l43.5 50.5l43.5 51.5l48 57l69 -59l-46 -53l-42.5 -48l-40.5 -45c82.667 -56 157.5 -119.5 224.5 -190.5s124 -147.5 171 -229.5s83.167 -168.833 108.5 -260.5s38 -186.834 38 -285.501c0 -50 -3.66699 -101.5 -11 -154.5s-19.166 -104.667 -35.499 -155
s-37.166 -98.166 -62.499 -143.499s-55.833 -85 -91.5 -119s-77.167 -61 -124.5 -81s-100.666 -30 -159.999 -30c-87.333 0 -162.666 14 -225.999 42s-115.333 66.5 -156 115.5s-70.667 107.167 -90 174.5s-29 140.666 -29 219.999zM257.997 538.999
c0 -62.667 6.00293 -122.502 18.0029 -179.502s31.667 -107.333 59 -151s62.833 -78.334 106.5 -104.001s97.167 -38.5 160.5 -38.5c58 0 107.667 14.833 149 44.5s75 70.667 101 123s45.167 114.166 57.5 185.499s18.5 148.666 18.5 231.999c0 40 -1.66699 76.833 -5 110.5
s-7.5 63.834 -12.5 90.501s-10 49.834 -15 69.501s-9.5 35.834 -13.5 48.501c-7.33301 11.333 -18.833 23.833 -34.5 37.5s-34.834 26.334 -57.501 38.001s-48.834 21.334 -78.501 29.001s-62.167 11.5 -97.5 11.5c-52 0 -99.667 -12.5 -143 -37.5s-80.833 -61 -112.5 -108
s-56.334 -104.333 -74.001 -172s-26.5 -144.167 -26.5 -229.5z" />
    <glyph glyph-name="ntilde" unicode="&#xf1;" horiz-adv-x="1361" 
d="M105 82l140 14.002v920l-165 33v81l251 30h5l36 -30v-95l-2 -53c22 19.333 50 39.666 84 60.999s70.667 41 110 59s80.333 32.833 123 44.5s83.667 17.5 123 17.5c66.667 0 121.167 -10 163.5 -30s75.5 -50 99.5 -90s40.5 -90.333 49.5 -151s13.5 -131.334 13.5 -212.001
v-586l156 -13v-82h-444v82l144 13v586c0 61.333 -2.83301 114.833 -8.5 160.5s-17.167 83.5 -34.5 113.5s-41.833 52.5 -73.5 67.5s-73.5 22.5 -125.5 22.5c-30.667 0 -62.667 -4.66699 -96 -14s-66 -21.333 -98 -36s-62.5 -31 -91.5 -49s-54.5 -35.333 -76.5 -52v-798
l152 -14v-82h-435v82zM297 1440c5.33301 22 15.8369 45 31.5039 69s35.5 46 59.5 66s51.167 36.5 81.5 49.5s63.166 19.5 98.499 19.5c27.333 0 51.666 -4.33301 72.999 -13s40.833 -19.5 58.5 -32.5s34.167 -27.167 49.5 -42.5s30.5 -29.5 45.5 -42.5
s30.667 -23.833 47 -32.5s34.5 -13 54.5 -13c24.667 0 46.167 5 64.5 15s34.166 22.167 47.499 36.5s24 29.166 32 44.499s14 28.333 18 39l79 -41c-7.33301 -26 -18.5 -51.333 -33.5 -76s-33.167 -46.5 -54.5 -65.5s-45.833 -34.333 -73.5 -46s-57.834 -17.5 -90.501 -17.5
c-27.333 0 -51.5 4.33301 -72.5 13s-40.5 19.667 -58.5 33s-35 27.5 -51 42.5s-32 29.167 -48 42.5s-32.833 24.333 -50.5 33s-37.167 13 -58.5 13c-24.667 0 -46.5 -5 -65.5 -15s-35.5 -22.167 -49.5 -36.5s-25.5 -29.166 -34.5 -44.499s-15.833 -28.333 -20.5 -39z" />
    <glyph glyph-name="ograve" unicode="&#xf2;" horiz-adv-x="1227" 
d="M102 577c0 92 15.002 174.5 45.002 247.5s69.5 135 118.5 186s104.5 90 166.5 117s125.333 40.5 190 40.5c92.667 0 171 -16.333 235 -49s115.833 -76.667 155.5 -132s68.334 -119.166 86.001 -191.499s26.5 -148.166 26.5 -227.499c0 -92 -15 -174.5 -45 -247.5
s-69.5 -135 -118.5 -186s-104.667 -90 -167 -117s-125.833 -40.5 -190.5 -40.5c-92.667 0 -170.834 16.333 -234.501 49s-115.334 76.667 -155.001 132s-68.334 119.166 -86.001 191.499s-26.5 148.166 -26.5 227.499zM612.002 81c54 0 102.667 10.001 146 30.001
s80 50 110 90s53.167 89.833 69.5 149.5s24.5 129.167 24.5 208.5c0 66.667 -6.16699 130.5 -18.5 191.5s-32.333 114.833 -60 161.5s-63.5 83.667 -107.5 111s-98 41 -162 41c-54 0 -102.5 -10.167 -145.5 -30.5s-79.5 -50.5 -109.5 -90.5s-53.167 -89.833 -69.5 -149.5
s-24.5 -128.834 -24.5 -207.501c0 -68 6.16699 -132.5 18.5 -193.5s32.333 -114.667 60 -161s63.5 -83 107.5 -110s97.667 -40.5 161 -40.5zM661.002 1353c-12 5.33301 -28.5 15.6689 -49.5 31.002s-44.167 33.5 -69.5 54.5l-78.5 68l-77 71.5
c-24.333 23.333 -46 45.166 -65 65.499s-32.833 37.166 -41.5 50.499l116 100h1l316 -391l-51 -50h-1v0z" />
    <glyph glyph-name="oacute" unicode="&#xf3;" horiz-adv-x="1227" 
d="M523 1403l317 391.001h1l115 -100c-8.66699 -13.333 -22.167 -29.833 -40.5 -49.5s-39.333 -40.834 -63 -63.501l-75.5 -69.5l-78 -66.5l-70.5 -55.5c-21.667 -16.333 -39.5 -28.5 -53.5 -36.5h-2zM102 577.001c0 92 15.002 174.5 45.002 247.5s69.5 135 118.5 186
s104.5 90 166.5 117s125.333 40.5 190 40.5c92.667 0 171 -16.333 235 -49s115.833 -76.667 155.5 -132s68.334 -119.166 86.001 -191.499s26.5 -148.166 26.5 -227.499c0 -92 -15 -174.5 -45 -247.5s-69.5 -135 -118.5 -186s-104.667 -90 -167 -117
s-125.833 -40.5 -190.5 -40.5c-92.667 0 -170.834 16.333 -234.501 49s-115.334 76.667 -155.001 132s-68.334 119.166 -86.001 191.499s-26.5 148.166 -26.5 227.499zM612.002 81.001c54 0 102.667 10.001 146 30.001s80 50 110 90s53.167 89.833 69.5 149.5
s24.5 129.167 24.5 208.5c0 66.667 -6.16699 130.5 -18.5 191.5s-32.333 114.833 -60 161.5s-63.5 83.667 -107.5 111s-98 41 -162 41c-54 0 -102.5 -10.167 -145.5 -30.5s-79.5 -50.5 -109.5 -90.5s-53.167 -89.833 -69.5 -149.5s-24.5 -128.834 -24.5 -207.501
c0 -68 6.16699 -132.5 18.5 -193.5s32.333 -114.667 60 -161s63.5 -83 107.5 -110s97.667 -40.5 161 -40.5z" />
    <glyph glyph-name="ocircumflex" unicode="&#xf4;" horiz-adv-x="1227" 
d="M264 1373l284 401h145l275 -400l-66 -37l-282 322l-296 -322zM102 577c0 92 15.002 174.5 45.002 247.5s69.5 135 118.5 186s104.5 90 166.5 117s125.333 40.5 190 40.5c92.667 0 171 -16.333 235 -49s115.833 -76.667 155.5 -132s68.334 -119.166 86.001 -191.499
s26.5 -148.166 26.5 -227.499c0 -92 -15 -174.5 -45 -247.5s-69.5 -135 -118.5 -186s-104.667 -90 -167 -117s-125.833 -40.5 -190.5 -40.5c-92.667 0 -170.834 16.333 -234.501 49s-115.334 76.667 -155.001 132s-68.334 119.166 -86.001 191.499
s-26.5 148.166 -26.5 227.499zM612.002 81c54 0 102.667 10.001 146 30.001s80 50 110 90s53.167 89.833 69.5 149.5s24.5 129.167 24.5 208.5c0 66.667 -6.16699 130.5 -18.5 191.5s-32.333 114.833 -60 161.5s-63.5 83.667 -107.5 111s-98 41 -162 41
c-54 0 -102.5 -10.167 -145.5 -30.5s-79.5 -50.5 -109.5 -90.5s-53.167 -89.833 -69.5 -149.5s-24.5 -128.834 -24.5 -207.501c0 -68 6.16699 -132.5 18.5 -193.5s32.333 -114.667 60 -161s63.5 -83 107.5 -110s97.667 -40.5 161 -40.5z" />
    <glyph glyph-name="otilde" unicode="&#xf5;" horiz-adv-x="1227" 
d="M102 577c0 92 15.002 174.5 45.002 247.5s69.5 135 118.5 186s104.5 90 166.5 117s125.333 40.5 190 40.5c92.667 0 171 -16.333 235 -49s115.833 -76.667 155.5 -132s68.334 -119.166 86.001 -191.499s26.5 -148.166 26.5 -227.499c0 -92 -15 -174.5 -45 -247.5
s-69.5 -135 -118.5 -186s-104.667 -90 -167 -117s-125.833 -40.5 -190.5 -40.5c-92.667 0 -170.834 16.333 -234.501 49s-115.334 76.667 -155.001 132s-68.334 119.166 -86.001 191.499s-26.5 148.166 -26.5 227.499zM612.002 81c54 0 102.667 10.001 146 30.001
s80 50 110 90s53.167 89.833 69.5 149.5s24.5 129.167 24.5 208.5c0 66.667 -6.16699 130.5 -18.5 191.5s-32.333 114.833 -60 161.5s-63.5 83.667 -107.5 111s-98 41 -162 41c-54 0 -102.5 -10.167 -145.5 -30.5s-79.5 -50.5 -109.5 -90.5s-53.167 -89.833 -69.5 -149.5
s-24.5 -128.834 -24.5 -207.501c0 -68 6.16699 -132.5 18.5 -193.5s32.333 -114.667 60 -161s63.5 -83 107.5 -110s97.667 -40.5 161 -40.5zM202.002 1440c5.33301 22 15.8369 45 31.5039 69s35.5 46 59.5 66s51.167 36.5 81.5 49.5s63.166 19.5 98.499 19.5
c27.333 0 51.666 -4.33301 72.999 -13s40.833 -19.5 58.5 -32.5s34.167 -27.167 49.5 -42.5s30.5 -29.5 45.5 -42.5s30.667 -23.833 47 -32.5s34.5 -13 54.5 -13c24.667 0 46.167 5 64.5 15s34.166 22.167 47.499 36.5s24 29.166 32 44.499s14 28.333 18 39l79 -41
c-7.33301 -26 -18.5 -51.333 -33.5 -76s-33.167 -46.5 -54.5 -65.5s-45.833 -34.333 -73.5 -46s-57.834 -17.5 -90.501 -17.5c-27.333 0 -51.5 4.33301 -72.5 13s-40.5 19.667 -58.5 33s-35 27.5 -51 42.5s-32 29.167 -48 42.5s-32.833 24.333 -50.5 33s-37.167 13 -58.5 13
c-24.667 0 -46.5 -5 -65.5 -15s-35.5 -22.167 -49.5 -36.5s-25.5 -29.166 -34.5 -44.499s-15.833 -28.333 -20.5 -39z" />
    <glyph glyph-name="odieresis" unicode="&#xf6;" horiz-adv-x="1227" 
d="M835 1379c-14.667 0 -27.833 2.83203 -39.5 8.49902s-21.5 13.5 -29.5 23.5s-14.167 21.5 -18.5 34.5s-6.5 26.833 -6.5 41.5c0 16 2.16699 31.5 6.5 46.5s11 28.5 20 40.5s20.333 21.5 34 28.5s29.834 10.5 48.501 10.5h1c16 0 30.167 -3.16699 42.5 -9.5
s22.666 -14.666 30.999 -24.999s14.5 -22 18.5 -35s6 -26.167 6 -39.5c0 -17.333 -2.33301 -33.5 -7 -48.5s-11.667 -28.167 -21 -39.5s-21 -20.333 -35 -27s-30.667 -10 -50 -10h-1zM394.001 1379c-15.333 0 -28.833 2.83203 -40.5 8.49902s-21.5 13.5 -29.5 23.5
s-14.167 21.5 -18.5 34.5s-6.5 26.833 -6.5 41.5c0 16 2.16699 31.5 6.5 46.5s11 28.5 20 40.5s20.5 21.5 34.5 28.5s30.333 10.5 49 10.5h1c16 0 30 -3.16699 42 -9.5s22.167 -14.666 30.5 -24.999s14.5 -22 18.5 -35s6 -26.167 6 -39.5c0 -17.333 -2.33301 -33.5 -7 -48.5
s-11.5 -28.167 -20.5 -39.5s-20.667 -20.333 -35 -27s-30.833 -10 -49.5 -10h-1zM102.001 576.998c0 92 15.002 174.5 45.002 247.5s69.5 135 118.5 186s104.5 90 166.5 117s125.333 40.5 190 40.5c92.667 0 171 -16.333 235 -49s115.833 -76.667 155.5 -132
s68.334 -119.166 86.001 -191.499s26.5 -148.166 26.5 -227.499c0 -92 -15 -174.5 -45 -247.5s-69.5 -135 -118.5 -186s-104.667 -90 -167 -117s-125.833 -40.5 -190.5 -40.5c-92.667 0 -170.834 16.333 -234.501 49s-115.334 76.667 -155.001 132
s-68.334 119.166 -86.001 191.499s-26.5 148.166 -26.5 227.499zM612.003 80.998c54 0 102.667 10.001 146 30.001s80 50 110 90s53.167 89.833 69.5 149.5s24.5 129.167 24.5 208.5c0 66.667 -6.16699 130.5 -18.5 191.5s-32.333 114.833 -60 161.5
s-63.5 83.667 -107.5 111s-98 41 -162 41c-54 0 -102.5 -10.167 -145.5 -30.5s-79.5 -50.5 -109.5 -90.5s-53.167 -89.833 -69.5 -149.5s-24.5 -128.834 -24.5 -207.501c0 -68 6.16699 -132.5 18.5 -193.5s32.333 -114.667 60 -161s63.5 -83 107.5 -110
s97.667 -40.5 161 -40.5z" />
    <glyph glyph-name="divide" unicode="&#xf7;" horiz-adv-x="1365" 
d="M693 918c-14 0 -27.333 2.33398 -40 7.00098s-24 11.5 -34 20.5s-17.833 19.833 -23.5 32.5s-8.5 27 -8.5 43c0 17.333 3.66699 33.5 11 48.5s17 28 29 39s25.333 19.667 40 26s29.667 9.5 45 9.5c36.667 0 63.667 -10.333 81 -31s26 -45.334 26 -74.001
c0 -18 -3.66699 -34.5 -11 -49.5s-16.833 -27.667 -28.5 -38s-25 -18.5 -40 -24.5s-30.5 -9 -46.5 -9zM220 671.001h925v-113h-925v113zM567 190.001c0 16.667 3.66797 32.5 11.001 47.5s17 28 29 39s25.5 19.667 40.5 26s30.167 9.5 45.5 9.5
c36.667 0 63.5 -10.333 80.5 -31s25.5 -45 25.5 -73c0 -18 -3.66699 -34.5 -11 -49.5s-16.833 -27.833 -28.5 -38.5s-25 -19 -40 -25s-30.5 -9 -46.5 -9c-14 0 -27.333 2.33301 -40 7s-23.834 11.5 -33.501 20.5s-17.5 20 -23.5 33s-9 27.5 -9 43.5z" />
    <glyph glyph-name="oslash" unicode="&#xf8;" horiz-adv-x="1191" 
d="M353 25c-48.667 23.333 -90.001 54.167 -124.001 92.5s-61.667 81.5 -83 129.5s-36.833 100.167 -46.5 156.5s-14.5 114.166 -14.5 173.499c0 92 15 174.5 45 247.5s69.5 135 118.5 186s104.5 90 166.5 117s125.333 40.5 190 40.5c32 0 61.833 -2.16699 89.5 -6.5
s53.834 -10.166 78.501 -17.499l68 184l64 -18l-67 -191c48.667 -23.333 90 -54 124 -92s61.833 -81.167 83.5 -129.5s37.5 -100.5 47.5 -156.5s15 -113.667 15 -173c0 -92 -15 -174.5 -45 -247.5s-69.5 -135 -118.5 -186s-104.667 -90 -167 -117
s-125.833 -40.5 -190.5 -40.5c-32 0 -61.833 2 -89.5 6s-54.167 9.66699 -79.5 17l-74 -191l-67 19zM729.999 1037c-19.333 8.66699 -39.998 15.335 -61.998 20.002s-45.667 7 -71 7c-54 0 -102.5 -10.167 -145.5 -30.5s-79.5 -50.5 -109.5 -90.5
s-53.167 -89.833 -69.5 -149.5s-24.5 -128.834 -24.5 -207.501c0 -46.667 2.83301 -91.834 8.5 -135.501s14.667 -84.5 27 -122.5s28.166 -72.667 47.499 -104s42.666 -58 69.999 -80zM459.001 109.002c19.333 -9.33301 40.333 -16.3311 63 -20.998s47 -7 73 -7
c54 0 102.667 10 146 30s80 50 110 90s53.167 89.833 69.5 149.5s24.5 129.167 24.5 208.5c0 46 -2.83301 90.667 -8.5 134s-14.667 84.166 -27 122.499s-28.333 73.166 -48 104.499s-43.167 58 -70.5 80z" />
    <glyph glyph-name="ugrave" unicode="&#xf9;" horiz-adv-x="1310" 
d="M200 1034l-124 33v68l233 24h1l34 -22v-684c0 -62.667 3 -116.667 9 -162s17.667 -82.5 35 -111.5s41.666 -50.5 72.999 -64.5s72 -21 122 -21c34.667 0 68.334 4.66699 101.001 14s63.5 21 92.5 35s55.333 29.333 79 46s44.167 32.667 61.5 48v796l-162 34v68l260 24h2
l44 -22v-1055h130l-1 -71l-72 -19c-25.333 -6.66699 -55.333 -10 -90 -10c-30 0 -53.5 5 -70.5 15s-25.5 31.667 -25.5 65v92c-20.667 -19.333 -45.5 -39.5 -74.5 -60.5s-60.5 -40.167 -94.5 -57.5s-70 -31.5 -108 -42.5s-76.333 -16.5 -115 -16.5
c-63.333 0 -116.666 8.66699 -159.999 26s-78.333 44.333 -105 81s-45.834 83 -57.501 139s-17.5 122.667 -17.5 200v611zM697 1353c-12 5.33301 -28.5 15.6689 -49.5 31.002s-44.167 33.5 -69.5 54.5l-78.5 68l-77 71.5c-24.333 23.333 -46 45.166 -65 65.499
s-32.833 37.166 -41.5 50.499l116 100h1l316 -391l-51 -50h-1v0z" />
    <glyph glyph-name="uacute" unicode="&#xfa;" horiz-adv-x="1310" 
d="M559 1403l317 391.001h1l115 -100c-8.66699 -13.333 -22.167 -29.833 -40.5 -49.5s-39.333 -40.834 -63 -63.501l-75.5 -69.5l-78 -66.5l-70.5 -55.5c-21.667 -16.333 -39.5 -28.5 -53.5 -36.5h-2zM200 1034l-124 33v68l233 24h1l34 -22v-684
c0 -62.667 3 -116.667 9 -162s17.667 -82.5 35 -111.5s41.666 -50.5 72.999 -64.5s72 -21 122 -21c34.667 0 68.334 4.66699 101.001 14s63.5 21 92.5 35s55.333 29.333 79 46s44.167 32.667 61.5 48v796l-162 34v68l260 24h2l44 -22v-1055h130l-1 -71l-72 -19
c-25.333 -6.66699 -55.333 -10 -90 -10c-30 0 -53.5 5 -70.5 15s-25.5 31.667 -25.5 65v92c-20.667 -19.333 -45.5 -39.5 -74.5 -60.5s-60.5 -40.167 -94.5 -57.5s-70 -31.5 -108 -42.5s-76.333 -16.5 -115 -16.5c-63.333 0 -116.666 8.66699 -159.999 26
s-78.333 44.333 -105 81s-45.834 83 -57.501 139s-17.5 122.667 -17.5 200v611z" />
    <glyph glyph-name="ucircumflex" unicode="&#xfb;" horiz-adv-x="1310" 
d="M300 1373l284 401h145l275 -400l-66 -37l-282 322l-296 -322zM200 1034l-124 33v68l233 24h1l34 -22v-684c0 -62.667 3 -116.667 9 -162s17.667 -82.5 35 -111.5s41.666 -50.5 72.999 -64.5s72 -21 122 -21c34.667 0 68.334 4.66699 101.001 14s63.5 21 92.5 35
s55.333 29.333 79 46s44.167 32.667 61.5 48v796l-162 34v68l260 24h2l44 -22v-1055h130l-1 -71l-72 -19c-25.333 -6.66699 -55.333 -10 -90 -10c-30 0 -53.5 5 -70.5 15s-25.5 31.667 -25.5 65v92c-20.667 -19.333 -45.5 -39.5 -74.5 -60.5s-60.5 -40.167 -94.5 -57.5
s-70 -31.5 -108 -42.5s-76.333 -16.5 -115 -16.5c-63.333 0 -116.666 8.66699 -159.999 26s-78.333 44.333 -105 81s-45.834 83 -57.501 139s-17.5 122.667 -17.5 200v611z" />
    <glyph glyph-name="udieresis" unicode="&#xfc;" horiz-adv-x="1310" 
d="M871 1379c-14.667 0 -27.833 2.83203 -39.5 8.49902s-21.5 13.5 -29.5 23.5s-14.167 21.5 -18.5 34.5s-6.5 26.833 -6.5 41.5c0 16 2.16699 31.5 6.5 46.5s11 28.5 20 40.5s20.333 21.5 34 28.5s29.834 10.5 48.501 10.5h1c16 0 30.167 -3.16699 42.5 -9.5
s22.666 -14.666 30.999 -24.999s14.5 -22 18.5 -35s6 -26.167 6 -39.5c0 -17.333 -2.33301 -33.5 -7 -48.5s-11.667 -28.167 -21 -39.5s-21 -20.333 -35 -27s-30.667 -10 -50 -10h-1zM430.001 1379c-15.333 0 -28.833 2.83203 -40.5 8.49902s-21.5 13.5 -29.5 23.5
s-14.167 21.5 -18.5 34.5s-6.5 26.833 -6.5 41.5c0 16 2.16699 31.5 6.5 46.5s11 28.5 20 40.5s20.5 21.5 34.5 28.5s30.333 10.5 49 10.5h1c16 0 30 -3.16699 42 -9.5s22.167 -14.666 30.5 -24.999s14.5 -22 18.5 -35s6 -26.167 6 -39.5c0 -17.333 -2.33301 -33.5 -7 -48.5
s-11.5 -28.167 -20.5 -39.5s-20.667 -20.333 -35 -27s-30.833 -10 -49.5 -10h-1zM200.001 1034l-124 33v68l233 24h1l34 -22v-684c0 -62.667 3 -116.667 9 -162s17.667 -82.5 35 -111.5s41.666 -50.5 72.999 -64.5s72 -21 122 -21c34.667 0 68.334 4.66699 101.001 14
s63.5 21 92.5 35s55.333 29.333 79 46s44.167 32.667 61.5 48v796l-162 34v68l260 24h2l44 -22v-1055h130l-1 -71l-72 -19c-25.333 -6.66699 -55.333 -10 -90 -10c-30 0 -53.5 5 -70.5 15s-25.5 31.667 -25.5 65v92c-20.667 -19.333 -45.5 -39.5 -74.5 -60.5
s-60.5 -40.167 -94.5 -57.5s-70 -31.5 -108 -42.5s-76.333 -16.5 -115 -16.5c-63.333 0 -116.666 8.66699 -159.999 26s-78.333 44.333 -105 81s-45.834 83 -57.501 139s-17.5 122.667 -17.5 200v611z" />
    <glyph glyph-name="yacute" unicode="&#xfd;" horiz-adv-x="1165" 
d="M149 -354c4 -2 9.83105 -3.83301 17.498 -5.5s16 -3 25 -4s18.333 -1.66699 28 -2s18.5 -0.5 26.5 -0.5c29.333 0 58 4 86 12s56 24.833 84 50.5s55.833 62.5 83.5 110.5s56.167 112.333 85.5 193h-79l-403 1035l-97 23v77h433v-77l-166 -21l225 -632l112 -345l109 347
l192 629l-147 22v77h386v-77l-110 -22l-114 -347.5l-86 -262.5l-62.5 -190l-43.5 -130.5c-12 -35 -22 -63.167 -30 -84.5s-14.667 -38.333 -20 -51c-32 -79.333 -61.667 -149 -89 -209s-57.166 -110 -89.499 -150s-69.166 -70.167 -110.499 -90.5s-92 -30.5 -152 -30.5
c-8.66699 0 -17.667 0.333008 -27 1s-18.333 1.66699 -27 3s-16.5 2.83301 -23.5 4.5s-12.5 3.5 -16.5 5.5v142v0zM519.998 1403l317 391.001h1l115 -100c-8.66699 -13.333 -22.167 -29.833 -40.5 -49.5s-39.333 -40.834 -63 -63.501l-75.5 -69.5l-78 -66.5l-70.5 -55.5
c-21.667 -16.333 -39.5 -28.5 -53.5 -36.5h-2z" />
    <glyph glyph-name="thorn" unicode="&#xfe;" horiz-adv-x="1226" 
d="M317 -125l1.00098 -279.004l246 -18v-74h-553v74l163 18v1961l-180 20v67l286 32h4l34 -27v-625c18.667 17.333 40.167 34.5 64.5 51.5s51.666 32.333 81.999 46s63.333 24.834 99 33.501s74.167 13 115.5 13c56.667 0 112 -10.667 166 -32
s101.833 -54.666 143.5 -99.999s75.167 -103.166 100.5 -173.499s38 -154.5 38 -252.5c0 -87.333 -13.5 -169.333 -40.5 -246s-65.833 -143.667 -116.5 -201s-111.834 -102.666 -183.501 -135.999s-152.5 -50 -242.5 -50c-42.667 0 -83.667 2.5 -123 7.5
s-75.666 11.167 -108.999 18.5zM318.001 153.996c6 -12 16.999 -22.665 32.999 -31.998s35.167 -17.166 57.5 -23.499s46.833 -11.166 73.5 -14.499s53 -5 79 -5c58 0 111.667 9.83301 161 29.5s92.333 50.167 129 91.5s65.334 93.666 86.001 156.999
s31.667 138.666 33 225.999c0.666992 84 -8.33301 155.667 -27 215s-44 107.666 -76 144.999s-69.5 64.666 -112.5 81.999s-87.833 26 -134.5 26c-34 0 -66.667 -5 -98 -15s-60 -22.167 -86 -36.5s-49.167 -30 -69.5 -47s-36.5 -32.5 -48.5 -46.5v-752z" />
    <glyph glyph-name="ydieresis" unicode="&#xff;" horiz-adv-x="1165" 
d="M149 -354c4 -2 9.83105 -3.83301 17.498 -5.5s16 -3 25 -4s18.333 -1.66699 28 -2s18.5 -0.5 26.5 -0.5c29.333 0 58 4 86 12s56 24.833 84 50.5s55.833 62.5 83.5 110.5s56.167 112.333 85.5 193h-79l-403 1035l-97 23v77h433v-77l-166 -21l225 -632l112 -345l109 347
l192 629l-147 22v77h386v-77l-110 -22l-114 -347.5l-86 -262.5l-62.5 -190l-43.5 -130.5c-12 -35 -22 -63.167 -30 -84.5s-14.667 -38.333 -20 -51c-32 -79.333 -61.667 -149 -89 -209s-57.166 -110 -89.499 -150s-69.166 -70.167 -110.499 -90.5s-92 -30.5 -152 -30.5
c-8.66699 0 -17.667 0.333008 -27 1s-18.333 1.66699 -27 3s-16.5 2.83301 -23.5 4.5s-12.5 3.5 -16.5 5.5v142v0zM831.998 1379c-14.667 0 -27.833 2.83203 -39.5 8.49902s-21.5 13.5 -29.5 23.5s-14.167 21.5 -18.5 34.5s-6.5 26.833 -6.5 41.5
c0 16 2.16699 31.5 6.5 46.5s11 28.5 20 40.5s20.333 21.5 34 28.5s29.834 10.5 48.501 10.5h1c16 0 30.167 -3.16699 42.5 -9.5s22.666 -14.666 30.999 -24.999s14.5 -22 18.5 -35s6 -26.167 6 -39.5c0 -17.333 -2.33301 -33.5 -7 -48.5s-11.667 -28.167 -21 -39.5
s-21 -20.333 -35 -27s-30.667 -10 -50 -10h-1zM390.999 1379c-15.333 0 -28.833 2.83203 -40.5 8.49902s-21.5 13.5 -29.5 23.5s-14.167 21.5 -18.5 34.5s-6.5 26.833 -6.5 41.5c0 16 2.16699 31.5 6.5 46.5s11 28.5 20 40.5s20.5 21.5 34.5 28.5s30.333 10.5 49 10.5h1
c16 0 30 -3.16699 42 -9.5s22.167 -14.666 30.5 -24.999s14.5 -22 18.5 -35s6 -26.167 6 -39.5c0 -17.333 -2.33301 -33.5 -7 -48.5s-11.5 -28.167 -20.5 -39.5s-20.667 -20.333 -35 -27s-30.833 -10 -49.5 -10h-1z" />
    <glyph glyph-name="Amacron" unicode="&#x100;" horiz-adv-x="1401" 
d="M-26 82l133 14l519 1442h146l510 -1442l135 -14v-82h-483v82l188 14l-114 338h-653l-116 -338l185 -14v-82h-450v82zM974 533l-232 688l-61 206l-60 -215l-232 -679h585zM434 1876h531v-113h-531v113z" />
    <glyph glyph-name="amacron" unicode="&#x101;" horiz-adv-x="1141" 
d="M104 299c0 47.333 9.16406 89.5 27.4971 126.5s43.666 69.333 75.999 97s70.5 51.334 114.5 71.001s91.833 35.667 143.5 48s105.834 21.5 162.501 27.5s113.667 9.66699 171 11v66c0 52.667 -4 97.834 -12 135.501s-21.833 68.667 -41.5 93s-46 42.166 -79 53.499
s-74.833 17 -125.5 17c-40.667 0 -80.667 -4.66699 -120 -14s-76 -20.5 -110 -33.5s-64.333 -26.5 -91 -40.5s-48 -26 -64 -36h-1l-44 83c5.33301 5.33301 15.666 12.833 30.999 22.5s34.666 20.334 57.999 32.001s49.5 23.5 78.5 35.5s59.667 22.833 92 32.5
s65.5 17.667 99.5 24s67.667 9.5 101 9.5c68.667 0 126.667 -7.16699 174 -21.5s85.666 -37.333 114.999 -69s50.333 -72.5 63 -122.5s19 -111 19 -183v-682h130v-70l-39 -9.5c-15.333 -3.66699 -31.333 -7 -48 -10s-33.5 -5.5 -50.5 -7.5s-32.5 -3 -46.5 -3
c-13.333 0 -24.666 0.666992 -33.999 2s-17.333 4.66602 -24 9.99902s-11.5 13.5 -14.5 24.5s-4.5 26.167 -4.5 45.5v88l-56.5 -47.5c-23.667 -19.667 -51.167 -39 -82.5 -58s-66.166 -35.333 -104.499 -49s-79.166 -20.5 -122.499 -20.5
c-45.333 0 -88.666 6.33301 -129.999 19s-77.666 32.167 -108.999 58.5s-56.166 59.666 -74.499 99.999s-27.5 88.5 -27.5 144.5zM263.997 315c0 -42.667 6.00098 -78.333 18.001 -107s28.5 -51.834 49.5 -69.501s45.667 -30.334 74 -38.001s58.5 -11.5 90.5 -11.5
c22.667 0 47 4 73 12s52.5 18.667 79.5 32s53.333 28.333 79 45s49.5 33.667 71.5 51v358c-86.667 -0.666992 -163.334 -7.5 -230.001 -20.5s-122.5 -31.167 -167.5 -54.5s-79.167 -51.666 -102.5 -84.999s-35 -70.666 -35 -111.999zM277.998 1545h531v-113h-531v113z" />
    <glyph glyph-name="Abreve" unicode="&#x102;" horiz-adv-x="1401" 
d="M-26 82l133 14l519 1442h146l510 -1442l135 -14v-82h-483v82l188 14l-114 338h-653l-116 -338l185 -14v-82h-450v82zM974 533l-232 688l-61 206l-60 -215l-232 -679h585zM695 1659c-52 0 -98.3291 7.50195 -138.996 22.502s-74.834 35.667 -102.501 62
s-48.667 57.5 -63 93.5s-21.5 75 -21.5 117v19.5c0 6.33301 0.666992 13.166 2 20.499h84c-1.33301 -8 -1 -17.667 1 -29c2 -20 7.5 -40.833 16.5 -62.5s23 -41.334 42 -59.001s43.333 -32.334 73 -44.001s66.167 -17.5 109.5 -17.5c42.667 0 78.5 5.83301 107.5 17.5
s52.667 26.5 71 44.5s31.666 37.833 39.999 59.5s13.166 42.5 14.499 62.5c1.33301 6 2 11.333 2 16v12h81c0.666992 -7.33301 1.16699 -14 1.5 -20s0.5 -12.333 0.5 -19c0 -42 -7.33301 -81.167 -22 -117.5s-35.834 -67.666 -63.501 -93.999s-61.167 -47 -100.5 -62
s-84 -22.5 -134 -22.5z" />
    <glyph glyph-name="abreve" unicode="&#x103;" horiz-adv-x="1141" 
d="M104 299c0 47.333 9.16406 89.5 27.4971 126.5s43.666 69.333 75.999 97s70.5 51.334 114.5 71.001s91.833 35.667 143.5 48s105.834 21.5 162.501 27.5s113.667 9.66699 171 11v66c0 52.667 -4 97.834 -12 135.501s-21.833 68.667 -41.5 93s-46 42.166 -79 53.499
s-74.833 17 -125.5 17c-40.667 0 -80.667 -4.66699 -120 -14s-76 -20.5 -110 -33.5s-64.333 -26.5 -91 -40.5s-48 -26 -64 -36h-1l-44 83c5.33301 5.33301 15.666 12.833 30.999 22.5s34.666 20.334 57.999 32.001s49.5 23.5 78.5 35.5s59.667 22.833 92 32.5
s65.5 17.667 99.5 24s67.667 9.5 101 9.5c68.667 0 126.667 -7.16699 174 -21.5s85.666 -37.333 114.999 -69s50.333 -72.5 63 -122.5s19 -111 19 -183v-682h130v-70l-39 -9.5c-15.333 -3.66699 -31.333 -7 -48 -10s-33.5 -5.5 -50.5 -7.5s-32.5 -3 -46.5 -3
c-13.333 0 -24.666 0.666992 -33.999 2s-17.333 4.66602 -24 9.99902s-11.5 13.5 -14.5 24.5s-4.5 26.167 -4.5 45.5v88l-56.5 -47.5c-23.667 -19.667 -51.167 -39 -82.5 -58s-66.166 -35.333 -104.499 -49s-79.166 -20.5 -122.499 -20.5
c-45.333 0 -88.666 6.33301 -129.999 19s-77.666 32.167 -108.999 58.5s-56.166 59.666 -74.499 99.999s-27.5 88.5 -27.5 144.5zM263.997 315c0 -42.667 6.00098 -78.333 18.001 -107s28.5 -51.834 49.5 -69.501s45.667 -30.334 74 -38.001s58.5 -11.5 90.5 -11.5
c22.667 0 47 4 73 12s52.5 18.667 79.5 32s53.333 28.333 79 45s49.5 33.667 71.5 51v358c-86.667 -0.666992 -163.334 -7.5 -230.001 -20.5s-122.5 -31.167 -167.5 -54.5s-79.167 -51.666 -102.5 -84.999s-35 -70.666 -35 -111.999zM544.998 1368
c-52 0 -98.332 9.33594 -138.999 28.0029s-74.834 43.667 -102.501 75s-48.667 67.166 -63 107.499s-21.5 82.5 -21.5 126.5v20.5c0 6.33301 0.666992 13.166 2 20.499h83v-13c0 -5.33301 0.666992 -11.666 2 -18.999c2 -22 7.5 -45.833 16.5 -71.5s23 -49.334 42 -71.001
s43.333 -39.667 73 -54s65.834 -21.5 108.501 -21.5c42 0 77.667 7.16699 107 21.5s53 32.166 71 53.499s31.333 44.833 40 70.5s13.667 49.5 15 71.5c2 16 2.66699 27 2 33h82c0.666992 -7.33301 1.16699 -14 1.5 -20s0.5 -12.667 0.5 -20c0 -44 -7.33301 -86.333 -22 -127
s-35.834 -76.667 -63.501 -108s-61.167 -56.333 -100.5 -75s-84 -28 -134 -28z" />
    <glyph glyph-name="Aogonek" unicode="&#x104;" horiz-adv-x="1374" 
d="M-26 82l133 14.0039l519 1442h146l510 -1442l135 -14v-82h-167c-34.667 -14.667 -67.834 -32.834 -99.501 -54.501s-59.5 -44.834 -83.5 -69.501s-43.167 -49.834 -57.5 -75.501s-21.5 -49.5 -21.5 -71.5c0 -25.333 4.5 -46.666 13.5 -63.999s21 -31.333 36 -42
s32.333 -18.334 52 -23.001s40.5 -7 62.5 -7c28 0 56.667 4.16699 86 12.5s56 19.166 80 32.499v-78c-28.667 -21.333 -63.667 -38.333 -105 -51s-83 -19 -125 -19c-31.333 0 -61.666 3.16699 -90.999 9.5s-55.333 17 -78 32s-41 34.5 -55 58.5s-21 54 -21 90
c0 28 8.5 57.667 25.5 89s39.167 61.5 66.5 90.5s58.333 55.833 93 80.5s69.667 44.667 105 60h-199v82l188 14l-114 338h-653l-116 -338l185 -14v-82h-450v82zM974 533.004l-232 688l-61 206l-60 -215l-232 -679h585z" />
    <glyph glyph-name="aogonek" unicode="&#x105;" horiz-adv-x="1141" 
d="M104 299c0 47.333 9.16406 89.501 27.4971 126.501s43.666 69.333 75.999 97s70.5 51.334 114.5 71.001s91.833 35.667 143.5 48s105.834 21.5 162.501 27.5s113.667 9.66699 171 11v66c0 52.667 -4 97.834 -12 135.501s-21.833 68.667 -41.5 93s-46 42.166 -79 53.499
s-74.833 17 -125.5 17c-40.667 0 -80.667 -4.66699 -120 -14s-76 -20.5 -110 -33.5s-64.333 -26.5 -91 -40.5s-48 -26 -64 -36h-1l-44 83c5.33301 5.33301 15.666 12.833 30.999 22.5s34.666 20.334 57.999 32.001s49.5 23.5 78.5 35.5s59.667 22.833 92 32.5
s65.5 17.667 99.5 24s67.667 9.5 101 9.5c68.667 0 126.667 -7.16699 174 -21.5s85.666 -37.333 114.999 -69s50.333 -72.5 63 -122.5s19 -111 19 -183v-682h130v-70c-12.667 -3.33301 -28.167 -7 -46.5 -11s-37.5 -7.66699 -57.5 -11
c-34.667 -15.333 -67.5 -33.333 -98.5 -54s-58 -42.834 -81 -66.501s-41.333 -47.5 -55 -71.5s-20.5 -47 -20.5 -69c0 -25.333 4.5 -46.666 13.5 -63.999s21 -31.333 36 -42s32.333 -18.334 52 -23.001s40.5 -7 62.5 -7c28 0 56.667 4.16699 86 12.5s56 19.166 80 32.499
v-78c-28.667 -21.333 -63.667 -38.333 -105 -51s-83 -19 -125 -19c-31.333 0 -61.666 3.16699 -90.999 9.5s-55.333 17 -78 32s-41 34.5 -55 58.5s-21 54 -21 90c0 26.667 7.83301 54.334 23.5 83.001s36.5 56.667 62.5 84s55.5 53 88.5 77s67.167 44.667 102.5 62
c-11.333 3.33301 -19.833 10.666 -25.5 21.999s-8.5 30 -8.5 56v88l-56.5 -47.5c-23.667 -19.667 -51.167 -39 -82.5 -58s-66.166 -35.333 -104.499 -49s-79.166 -20.5 -122.499 -20.5c-45.333 0 -88.666 6.33301 -129.999 19s-77.666 32.167 -108.999 58.5
s-56.166 59.666 -74.499 99.999s-27.5 88.5 -27.5 144.5zM263.997 315.001c0 -42.667 6.00098 -78.333 18.001 -107s28.5 -51.834 49.5 -69.501s45.667 -30.334 74 -38.001s58.5 -11.5 90.5 -11.5c22.667 0 47 4 73 12s52.5 18.667 79.5 32s53.333 28.333 79 45
s49.5 33.667 71.5 51v358c-86.667 -0.666992 -163.334 -7.5 -230.001 -20.5s-122.5 -31.167 -167.5 -54.5s-79.167 -51.666 -102.5 -84.999s-35 -70.666 -35 -111.999z" />
    <glyph glyph-name="Cacute" unicode="&#x106;" horiz-adv-x="1344" 
d="M788 -23c-111.333 0 -210.167 19.001 -296.5 57.001s-159.166 91.5 -218.499 160.5s-104.333 152.167 -135 249.5s-46 205.666 -46 324.999c0 74 8.66699 144.333 26 211s41.666 128.5 72.999 185.5s69 108.5 113 154.5s92.833 85.167 146.5 117.5
s111.334 57.166 173.001 74.499s125.834 26 192.501 26c46 0 91 -2.66699 135 -8s85 -11.666 123 -18.999s72 -14.5 102 -21.5l71 -16.5l-17 -326h-92l-39 237c-19.333 16 -56.833 30.333 -112.5 43s-125.834 19 -210.501 19c-72 0 -138.833 -15.167 -200.5 -45.5
s-115.167 -73.833 -160.5 -130.5s-81 -126 -107 -208s-39 -174.333 -39 -277c0 -94.667 10.167 -185.167 30.5 -271.5s51.666 -162.5 93.999 -228.5s96.333 -118.667 162 -158s143.834 -59 234.501 -59c44.667 0 83 2 115 6s59.667 9.33301 83 16s43.5 14.667 60.5 24
s32.833 19 47.5 29l78 190l90 -12l-52 -265c-26.667 -1.33301 -52.334 -6.16602 -77.001 -14.499l-83.5 -27c-31 -9.66699 -67.5 -18.334 -109.5 -26.001s-93.333 -11.5 -154 -11.5zM667.999 1699l340.998 308h1l102 -99c-12 -14 -27.833 -29.167 -47.5 -45.5
s-41.667 -32.833 -66 -49.5s-49.666 -33 -75.999 -49l-77.5 -45.5l-71.5 -39c-22.333 -11.667 -41.166 -21.167 -56.499 -28.5h-1z" />
    <glyph glyph-name="cacute" unicode="&#x107;" horiz-adv-x="1044" 
d="M489 1403l317 391.001h1l115 -100c-8.66699 -13.333 -22.167 -29.833 -40.5 -49.5s-39.333 -40.834 -63 -63.501l-75.5 -69.5l-78 -66.5l-70.5 -55.5c-21.667 -16.333 -39.5 -28.5 -53.5 -36.5h-2zM103 554.001c-0.666992 53.333 4.50195 105.667 15.502 157
s27.333 99.666 49 144.999s48.5 87.166 80.5 125.499s69 71.333 111 99s88.833 49.167 140.5 64.5s108.167 23 169.5 23c28 0 56 -2.16699 84 -6.5s54.5 -9.5 79.5 -15.5s47.5 -12.667 67.5 -20s36.667 -14 50 -20l-8 -275h-91l-39 190
c-16.667 16.667 -40.667 30.334 -72 41.001s-69 16 -113 16c-54 0 -103.667 -10.833 -149 -32.5s-84.333 -52.667 -117 -93s-58.167 -89 -76.5 -146s-27.5 -120.833 -27.5 -191.5c-0.666992 -89.333 8.66602 -167.166 27.999 -233.499s46 -121.5 80 -165.5
s74.333 -76.833 121 -98.5s97 -32.5 151 -32.5c31.333 0 62.333 2.83301 93 8.5s59.5 13 86.5 22s51.667 19 74 30s41.166 21.833 56.499 32.5l29 -56c-19.333 -19.333 -43 -37.833 -71 -55.5s-58.5 -33.167 -91.5 -46.5s-67.333 -23.833 -103 -31.5
s-70.5 -11.5 -104.5 -11.5c-82 0 -154.167 15 -216.5 45s-114.666 71 -156.999 123s-74.333 113.167 -96 183.5s-32.834 145.5 -33.501 225.5z" />
    <glyph glyph-name="Ccircumflex" unicode="&#x108;" horiz-adv-x="1344" 
d="M788 -23c-111.333 0 -210.167 19.001 -296.5 57.001s-159.166 91.5 -218.499 160.5s-104.333 152.167 -135 249.5s-46 205.666 -46 324.999c0 74 8.66699 144.333 26 211s41.666 128.5 72.999 185.5s69 108.5 113 154.5s92.833 85.167 146.5 117.5
s111.334 57.166 173.001 74.499s125.834 26 192.501 26c46 0 91 -2.66699 135 -8s85 -11.666 123 -18.999s72 -14.5 102 -21.5l71 -16.5l-17 -326h-92l-39 237c-19.333 16 -56.833 30.333 -112.5 43s-125.834 19 -210.501 19c-72 0 -138.833 -15.167 -200.5 -45.5
s-115.167 -73.833 -160.5 -130.5s-81 -126 -107 -208s-39 -174.333 -39 -277c0 -94.667 10.167 -185.167 30.5 -271.5s51.666 -162.5 93.999 -228.5s96.333 -118.667 162 -158s143.834 -59 234.501 -59c44.667 0 83 2 115 6s59.667 9.33301 83 16s43.5 14.667 60.5 24
s32.833 19 47.5 29l78 190l90 -12l-52 -265c-26.667 -1.33301 -52.334 -6.16602 -77.001 -14.499l-83.5 -27c-31 -9.66699 -67.5 -18.334 -109.5 -26.001s-93.333 -11.5 -154 -11.5zM466.999 1718l259 296h144l262 -294l-68 -39l-265 223l-270 -223z" />
    <glyph glyph-name="ccircumflex" unicode="&#x109;" horiz-adv-x="1044" 
d="M230 1373l284 401h145l275 -400l-66 -37l-282 322l-296 -322zM103 554c-0.666992 53.333 4.50195 105.667 15.502 157s27.333 99.666 49 144.999s48.5 87.166 80.5 125.499s69 71.333 111 99s88.833 49.167 140.5 64.5s108.167 23 169.5 23c28 0 56 -2.16699 84 -6.5
s54.5 -9.5 79.5 -15.5s47.5 -12.667 67.5 -20s36.667 -14 50 -20l-8 -275h-91l-39 190c-16.667 16.667 -40.667 30.334 -72 41.001s-69 16 -113 16c-54 0 -103.667 -10.833 -149 -32.5s-84.333 -52.667 -117 -93s-58.167 -89 -76.5 -146s-27.5 -120.833 -27.5 -191.5
c-0.666992 -89.333 8.66602 -167.166 27.999 -233.499s46 -121.5 80 -165.5s74.333 -76.833 121 -98.5s97 -32.5 151 -32.5c31.333 0 62.333 2.83301 93 8.5s59.5 13 86.5 22s51.667 19 74 30s41.166 21.833 56.499 32.5l29 -56c-19.333 -19.333 -43 -37.833 -71 -55.5
s-58.5 -33.167 -91.5 -46.5s-67.333 -23.833 -103 -31.5s-70.5 -11.5 -104.5 -11.5c-82 0 -154.167 15 -216.5 45s-114.666 71 -156.999 123s-74.333 113.167 -96 183.5s-32.834 145.5 -33.501 225.5z" />
    <glyph glyph-name="Cdotaccent" unicode="&#x10a;" horiz-adv-x="1344" 
d="M792 1720c-14.667 0 -27.834 2.83203 -39.501 8.49902s-21.5 13.5 -29.5 23.5s-14.167 21.5 -18.5 34.5s-6.5 26.833 -6.5 41.5c0 16 2.16699 31.5 6.5 46.5s11 28.5 20 40.5s20.333 21.667 34 29s29.834 11 48.501 11h1c16 0 30.167 -3.33301 42.5 -10
s22.5 -15.167 30.5 -25.5s14.167 -22.166 18.5 -35.499s6.5 -26.333 6.5 -39c0 -17.333 -2.33301 -33.5 -7 -48.5s-11.667 -28.167 -21 -39.5s-21 -20.333 -35 -27s-30.667 -10 -50 -10h-1v0zM788 -23.001c-111.333 0 -210.167 19.001 -296.5 57.001
s-159.166 91.5 -218.499 160.5s-104.333 152.167 -135 249.5s-46 205.666 -46 324.999c0 74 8.66699 144.333 26 211s41.666 128.5 72.999 185.5s69 108.5 113 154.5s92.833 85.167 146.5 117.5s111.334 57.166 173.001 74.499s125.834 26 192.501 26
c46 0 91 -2.66699 135 -8s85 -11.666 123 -18.999s72 -14.5 102 -21.5l71 -16.5l-17 -326h-92l-39 237c-19.333 16 -56.833 30.333 -112.5 43s-125.834 19 -210.501 19c-72 0 -138.833 -15.167 -200.5 -45.5s-115.167 -73.833 -160.5 -130.5s-81 -126 -107 -208
s-39 -174.333 -39 -277c0 -94.667 10.167 -185.167 30.5 -271.5s51.666 -162.5 93.999 -228.5s96.333 -118.667 162 -158s143.834 -59 234.501 -59c44.667 0 83 2 115 6s59.667 9.33301 83 16s43.5 14.667 60.5 24s32.833 19 47.5 29l78 190l90 -12l-52 -265
c-26.667 -1.33301 -52.334 -6.16602 -77.001 -14.499l-83.5 -27c-31 -9.66699 -67.5 -18.334 -109.5 -26.001s-93.333 -11.5 -154 -11.5z" />
    <glyph glyph-name="cdotaccent" unicode="&#x10b;" horiz-adv-x="1044" 
d="M103 554c-0.666992 53.333 4.50195 105.667 15.502 157s27.333 99.666 49 144.999s48.5 87.166 80.5 125.499s69 71.333 111 99s88.833 49.167 140.5 64.5s108.167 23 169.5 23c28 0 56 -2.16699 84 -6.5s54.5 -9.5 79.5 -15.5s47.5 -12.667 67.5 -20s36.667 -14 50 -20
l-8 -275h-91l-39 190c-16.667 16.667 -40.667 30.334 -72 41.001s-69 16 -113 16c-54 0 -103.667 -10.833 -149 -32.5s-84.333 -52.667 -117 -93s-58.167 -89 -76.5 -146s-27.5 -120.833 -27.5 -191.5c-0.666992 -89.333 8.66602 -167.166 27.999 -233.499
s46 -121.5 80 -165.5s74.333 -76.833 121 -98.5s97 -32.5 151 -32.5c31.333 0 62.333 2.83301 93 8.5s59.5 13 86.5 22s51.667 19 74 30s41.166 21.833 56.499 32.5l29 -56c-19.333 -19.333 -43 -37.833 -71 -55.5s-58.5 -33.167 -91.5 -46.5s-67.333 -23.833 -103 -31.5
s-70.5 -11.5 -104.5 -11.5c-82 0 -154.167 15 -216.5 45s-114.666 71 -156.999 123s-74.333 113.167 -96 183.5s-32.834 145.5 -33.501 225.5zM585.002 1379c-15.333 0 -28.833 2.83203 -40.5 8.49902s-21.5 13.5 -29.5 23.5s-14.167 21.5 -18.5 34.5s-6.5 26.833 -6.5 41.5
c0 16 2.16699 31.5 6.5 46.5s11 28.5 20 40.5s20.5 21.5 34.5 28.5s30.333 10.5 49 10.5h1c16 0 30 -3.16699 42 -9.5s22.167 -14.666 30.5 -24.999s14.5 -22 18.5 -35s6 -26.167 6 -39.5c0 -17.333 -2.33301 -33.5 -7 -48.5s-11.5 -28.167 -20.5 -39.5
s-20.667 -20.333 -35 -27s-30.833 -10 -49.5 -10h-1v0z" />
    <glyph glyph-name="Ccaron" unicode="&#x10c;" horiz-adv-x="1344" 
d="M788 -23c-111.333 0 -210.167 19.001 -296.5 57.001s-159.166 91.5 -218.499 160.5s-104.333 152.167 -135 249.5s-46 205.666 -46 324.999c0 74 8.66699 144.333 26 211s41.666 128.5 72.999 185.5s69 108.5 113 154.5s92.833 85.167 146.5 117.5
s111.334 57.166 173.001 74.499s125.834 26 192.501 26c46 0 91 -2.66699 135 -8s85 -11.666 123 -18.999s72 -14.5 102 -21.5l71 -16.5l-17 -326h-92l-39 237c-19.333 16 -56.833 30.333 -112.5 43s-125.834 19 -210.501 19c-72 0 -138.833 -15.167 -200.5 -45.5
s-115.167 -73.833 -160.5 -130.5s-81 -126 -107 -208s-39 -174.333 -39 -277c0 -94.667 10.167 -185.167 30.5 -271.5s51.666 -162.5 93.999 -228.5s96.333 -118.667 162 -158s143.834 -59 234.501 -59c44.667 0 83 2 115 6s59.667 9.33301 83 16s43.5 14.667 60.5 24
s32.833 19 47.5 29l78 190l90 -12l-52 -265c-26.667 -1.33301 -52.334 -6.16602 -77.001 -14.499l-83.5 -27c-31 -9.66699 -67.5 -18.334 -109.5 -26.001s-93.333 -11.5 -154 -11.5zM483.999 1972l68 38l250 -210l256 210l61 -36l-244 -275h-144z" />
    <glyph glyph-name="ccaron" unicode="&#x10d;" horiz-adv-x="1044" 
d="M238 1759l66 37l285 -322l290 322l59 -36l-277 -401h-144zM103 554c-0.666992 53.333 4.50195 105.667 15.502 157s27.333 99.666 49 144.999s48.5 87.166 80.5 125.499s69 71.333 111 99s88.833 49.167 140.5 64.5s108.167 23 169.5 23c28 0 56 -2.16699 84 -6.5
s54.5 -9.5 79.5 -15.5s47.5 -12.667 67.5 -20s36.667 -14 50 -20l-8 -275h-91l-39 190c-16.667 16.667 -40.667 30.334 -72 41.001s-69 16 -113 16c-54 0 -103.667 -10.833 -149 -32.5s-84.333 -52.667 -117 -93s-58.167 -89 -76.5 -146s-27.5 -120.833 -27.5 -191.5
c-0.666992 -89.333 8.66602 -167.166 27.999 -233.499s46 -121.5 80 -165.5s74.333 -76.833 121 -98.5s97 -32.5 151 -32.5c31.333 0 62.333 2.83301 93 8.5s59.5 13 86.5 22s51.667 19 74 30s41.166 21.833 56.499 32.5l29 -56c-19.333 -19.333 -43 -37.833 -71 -55.5
s-58.5 -33.167 -91.5 -46.5s-67.333 -23.833 -103 -31.5s-70.5 -11.5 -104.5 -11.5c-82 0 -154.167 15 -216.5 45s-114.666 71 -156.999 123s-74.333 113.167 -96 183.5s-32.834 145.5 -33.501 225.5z" />
    <glyph glyph-name="Dcaron" unicode="&#x10e;" horiz-adv-x="1558" 
d="M487 1972l68 38l250 -210l256 210l61 -36l-244 -275h-144zM105 82l178 14.998v1323l-166 21v81h240c63.333 0 124.833 2.66699 184.5 8s118.834 8 177.501 8c133.333 0 247.666 -17.667 342.999 -53s173.5 -85.166 234.5 -149.499s105.667 -141.5 134 -231.5
s42.5 -189.667 42.5 -299c0 -125.333 -19.167 -239.166 -57.5 -341.499s-92 -189.5 -161 -261.5s-151.167 -127 -246.5 -165s-200 -55.667 -314 -53c-49.333 1.33301 -102 4.33301 -158 9s-114.667 7 -176 7h-255v82zM430 91.998c54 -7.33301 104 -12.332 150 -14.999
s93 -3.33398 141 -2.00098c85.333 1.33301 164.333 17.5 237 48.5s135.5 75.833 188.5 134.5s94.5 131.167 124.5 217.5s45 185.833 45 298.5c0 449.333 -215 674 -645 674c-48 0 -92.167 -2 -132.5 -6s-76.5 -6.66699 -108.5 -8v-1342z" />
    <glyph glyph-name="dcaron" unicode="&#x10f;" horiz-adv-x="1437" 
d="M96 540c0 86.667 13.501 168.166 40.501 244.499s65.833 143 116.5 200s111.834 101.833 183.501 134.5s152.5 49 242.5 49c42.667 0 83.5 -2.83301 122.5 -8.5s74.167 -12.167 105.5 -19.5v417l-219 20v67l324 32h5l34 -27v-1567h128v-70l-84 -19.5
c-30.667 -7 -65.334 -10.5 -104.001 -10.5c-13.333 0 -24.833 0.833008 -34.5 2.5s-17.834 5.16699 -24.501 10.5s-11.5 13.5 -14.5 24.5s-4.5 26.167 -4.5 45.5v82c-18.667 -21.333 -40.5 -42.166 -65.5 -62.499s-53 -38.5 -84 -54.5s-64.833 -28.833 -101.5 -38.5
s-76 -14.5 -118 -14.5c-57.333 0 -113 11.333 -167 34s-101.833 57.167 -143.5 103.5s-75 104.833 -100 175.5s-37.5 154 -37.5 250zM603.001 99.999c34 0 66.668 4.66797 98.001 14.001s60.166 21.166 86.499 35.499s49.833 30.166 70.5 47.499s37 34.333 49 51v747
c-6 9.33301 -17.167 18.333 -33.5 27s-35.833 16.167 -58.5 22.5s-47.334 11.5 -74.001 15.5s-53 6 -79 6c-58 0 -111.833 -9.66699 -161.5 -29s-92.667 -49.166 -129 -89.499s-65 -92 -86 -155s-31.833 -138.167 -32.5 -225.5c-1.33301 -84.667 7.5 -156.5 26.5 -215.5
s44.667 -107.167 77 -144.5s69.833 -64.5 112.5 -81.5s87.334 -25.5 134.001 -25.5zM1283 1076l-3.00098 19.998c13.333 40 23.833 82.833 31.5 128.5s11.5 88.5 11.5 128.5c0 28 -1.33301 55.667 -4 83s-6.33398 52.833 -11.001 76.5s-10.167 44.5 -16.5 62.5
s-12.833 31.667 -19.5 41l12 33l116 27c8.66699 -10 16.834 -23.5 24.501 -40.5s14 -36.333 19 -58s9 -44.667 12 -69s4.5 -48.5 4.5 -72.5c0 -40 -3.16699 -79.833 -9.5 -119.5s-14.666 -76.667 -24.999 -111s-22.5 -65.166 -36.5 -92.499s-29 -48.666 -45 -63.999z" />
    <glyph glyph-name="Dcroat" unicode="&#x110;" horiz-adv-x="1558" 
d="M105 82l178 14.998v657h-159v83h159v583l-166 21v81h240c63.333 0 124.833 2.66699 184.5 8s118.834 8 177.501 8c133.333 0 247.666 -17.667 342.999 -53s173.5 -85.166 234.5 -149.499s105.667 -141.5 134 -231.5s42.5 -189.667 42.5 -299
c0 -125.333 -19.167 -239.166 -57.5 -341.499s-92 -189.5 -161 -261.5s-151.167 -127 -246.5 -165s-200 -55.667 -314 -53c-49.333 1.33301 -102 4.33301 -158 9s-114.667 7 -176 7h-255v82zM430 91.998c54 -7.33301 104 -12.332 150 -14.999s93 -3.33398 141 -2.00098
c85.333 1.33301 164.333 17.5 237 48.5s135.5 75.833 188.5 134.5s94.5 131.167 124.5 217.5s45 185.833 45 298.5c0 449.333 -215 674 -645 674c-48 0 -92.167 -2 -132.5 -6s-76.5 -6.66699 -108.5 -8v-597h400v-83h-400v-662z" />
    <glyph glyph-name="dcroat" unicode="&#x111;" horiz-adv-x="1257" 
d="M542 -23c-57.333 0 -112.999 11.332 -166.999 33.999s-101.833 57.167 -143.5 103.5s-75 104.833 -100 175.5s-37.5 154 -37.5 250c0 86.667 13.5 168.167 40.5 244.5s65.833 143 116.5 200s111.834 101.833 183.501 134.5s152.5 49 242.5 49
c42.667 0 83.5 -2.83301 122.5 -8.5s74.167 -12.167 105.5 -19.5v177h-280v94h280v146l-219 20v67l324 32h5l34 -27v-238h147v-94h-147v-1235h128v-70l-84 -19.5c-30.667 -7 -65.334 -10.5 -104.001 -10.5c-13.333 0 -24.833 0.833008 -34.5 2.5
s-17.834 5.16699 -24.501 10.5s-11.5 13.5 -14.5 24.5s-4.5 26.167 -4.5 45.5v82c-18.667 -21.333 -40.5 -42.166 -65.5 -62.499s-53 -38.5 -84 -54.5s-64.833 -28.833 -101.5 -38.5s-76 -14.5 -118 -14.5zM601.001 99.999c34 0 66.668 4.66797 98.001 14.001
s60.166 21.166 86.499 35.499s49.833 30.166 70.5 47.499s37 34.333 49 51v747c-6 9.33301 -17.167 18.333 -33.5 27s-35.833 16.167 -58.5 22.5s-47.334 11.5 -74.001 15.5s-53 6 -79 6c-58 0 -111.833 -9.66699 -161.5 -29s-92.667 -49.166 -129 -89.499s-65 -92 -86 -155
s-31.833 -138.167 -32.5 -225.5c-1.33301 -84.667 7.5 -156.5 26.5 -215.5s44.667 -107.167 77 -144.5s69.833 -64.5 112.5 -81.5s87.334 -25.5 134.001 -25.5z" />
    <glyph glyph-name="Emacron" unicode="&#x112;" horiz-adv-x="1326" 
d="M437 1876h531v-113h-531v113zM106 82l177 15v1323l-173 21v81h1004l29 -296h-85l-53 201l-575 7v-606l395 5l24 173h92v-448h-92l-24 176l-395 5v-644l654 17l101 257l86 -29l-65 -340h-1100v82z" />
    <glyph glyph-name="emacron" unicode="&#x113;" horiz-adv-x="1107" 
d="M102 575c0 86.667 13.1641 166.332 39.4971 238.999s62.833 135.334 109.5 188.001s101.834 93.5 165.501 122.5s132.5 43.5 206.5 43.5c59.333 0 112.5 -8.83301 159.5 -26.5s87 -43.5 120 -77.5s58.667 -76.333 77 -127s28.5 -109 30.5 -175c0 -38 -0.5 -71 -1.5 -99
s-4.16699 -52.667 -9.5 -74h-742v-17c0 -6 0.333008 -11.667 1 -17c2 -80 13.5 -149.667 34.5 -209s48.5 -108.833 82.5 -148.5s73.333 -69.167 118 -88.5s92.334 -29 143.001 -29c29.333 0 59.5 3 90.5 9s60.833 14 89.5 24s55.334 21.5 80.001 34.5s45 26.833 61 41.5
l30 -68c-20 -20 -44.667 -38.833 -74 -56.5s-61.5 -33 -96.5 -46s-71.833 -23.167 -110.5 -30.5s-77 -11 -115 -11c-79.333 0 -149.5 14.667 -210.5 44s-112.167 70.5 -153.5 123.5s-72.5 116 -93.5 189s-31.5 153.5 -31.5 241.5zM846.997 676.998
c1.33301 15.333 2.49805 30.833 3.49805 46.5s1.5 31.167 1.5 46.5c0 43.333 -5.16699 83.166 -15.5 119.499s-26.5 67.5 -48.5 93.5s-49.833 46.333 -83.5 61s-74.167 22 -121.5 22c-43.333 0 -83.666 -6.83301 -120.999 -20.5s-70.166 -36 -98.499 -67
s-51.5 -71.167 -69.5 -120.5s-29.333 -109.666 -34 -180.999h587zM337.995 1545h531v-113h-531v113z" />
    <glyph glyph-name="Ebreve" unicode="&#x114;" horiz-adv-x="1326" 
d="M698 1659c-52 0 -98.3291 7.50195 -138.996 22.502s-74.834 35.667 -102.501 62s-48.667 57.5 -63 93.5s-21.5 75 -21.5 117v19.5c0 6.33301 0.666992 13.166 2 20.499h84c-1.33301 -8 -1 -17.667 1 -29c2 -20 7.5 -40.833 16.5 -62.5s23 -41.334 42 -59.001
s43.333 -32.334 73 -44.001s66.167 -17.5 109.5 -17.5c42.667 0 78.5 5.83301 107.5 17.5s52.667 26.5 71 44.5s31.666 37.833 39.999 59.5s13.166 42.5 14.499 62.5c1.33301 6 2 11.333 2 16v12h81c0.666992 -7.33301 1.16699 -14 1.5 -20s0.5 -12.333 0.5 -19
c0 -42 -7.33301 -81.167 -22 -117.5s-35.834 -67.666 -63.501 -93.999s-61.167 -47 -100.5 -62s-84 -22.5 -134 -22.5zM106.004 82.002l177 15v1323l-173 21v81h1004l29 -296h-85l-53 201l-575 7v-606l395 5l24 173h92v-448h-92l-24 176l-395 5v-644l654 17l101 257l86 -29
l-65 -340h-1100v82z" />
    <glyph glyph-name="ebreve" unicode="&#x115;" horiz-adv-x="1107" 
d="M102 575c0 86.667 13.1641 166.332 39.4971 238.999s62.833 135.334 109.5 188.001s101.834 93.5 165.501 122.5s132.5 43.5 206.5 43.5c59.333 0 112.5 -8.83301 159.5 -26.5s87 -43.5 120 -77.5s58.667 -76.333 77 -127s28.5 -109 30.5 -175c0 -38 -0.5 -71 -1.5 -99
s-4.16699 -52.667 -9.5 -74h-742v-17c0 -6 0.333008 -11.667 1 -17c2 -80 13.5 -149.667 34.5 -209s48.5 -108.833 82.5 -148.5s73.333 -69.167 118 -88.5s92.334 -29 143.001 -29c29.333 0 59.5 3 90.5 9s60.833 14 89.5 24s55.334 21.5 80.001 34.5s45 26.833 61 41.5
l30 -68c-20 -20 -44.667 -38.833 -74 -56.5s-61.5 -33 -96.5 -46s-71.833 -23.167 -110.5 -30.5s-77 -11 -115 -11c-79.333 0 -149.5 14.667 -210.5 44s-112.167 70.5 -153.5 123.5s-72.5 116 -93.5 189s-31.5 153.5 -31.5 241.5zM846.997 676.998
c1.33301 15.333 2.49805 30.833 3.49805 46.5s1.5 31.167 1.5 46.5c0 43.333 -5.16699 83.166 -15.5 119.499s-26.5 67.5 -48.5 93.5s-49.833 46.333 -83.5 61s-74.167 22 -121.5 22c-43.333 0 -83.666 -6.83301 -120.999 -20.5s-70.166 -36 -98.499 -67
s-51.5 -71.167 -69.5 -120.5s-29.333 -109.666 -34 -180.999h587zM604.995 1368c-52 0 -98.332 9.33594 -138.999 28.0029s-74.834 43.667 -102.501 75s-48.667 67.166 -63 107.499s-21.5 82.5 -21.5 126.5v20.5c0 6.33301 0.666992 13.166 2 20.499h83v-13
c0 -5.33301 0.666992 -11.666 2 -18.999c2 -22 7.5 -45.833 16.5 -71.5s23 -49.334 42 -71.001s43.333 -39.667 73 -54s65.834 -21.5 108.501 -21.5c42 0 77.667 7.16699 107 21.5s53 32.166 71 53.499s31.333 44.833 40 70.5s13.667 49.5 15 71.5c2 16 2.66699 27 2 33h82
c0.666992 -7.33301 1.16699 -14 1.5 -20s0.5 -12.667 0.5 -20c0 -44 -7.33301 -86.333 -22 -127s-35.834 -76.667 -63.501 -108s-61.167 -56.333 -100.5 -75s-84 -28 -134 -28z" />
    <glyph glyph-name="Edotaccent" unicode="&#x116;" horiz-adv-x="1326" 
d="M688 1720c-14.667 0 -27.834 2.83203 -39.501 8.49902s-21.5 13.5 -29.5 23.5s-14.167 21.5 -18.5 34.5s-6.5 26.833 -6.5 41.5c0 16 2.16699 31.5 6.5 46.5s11 28.5 20 40.5s20.333 21.667 34 29s29.834 11 48.501 11h1c16 0 30.167 -3.33301 42.5 -10
s22.5 -15.167 30.5 -25.5s14.167 -22.166 18.5 -35.499s6.5 -26.333 6.5 -39c0 -17.333 -2.33301 -33.5 -7 -48.5s-11.667 -28.167 -21 -39.5s-21 -20.333 -35 -27s-30.667 -10 -50 -10h-1v0zM106 81.999l177 15v1323l-173 21v81h1004l29 -296h-85l-53 201l-575 7v-606
l395 5l24 173h92v-448h-92l-24 176l-395 5v-644l654 17l101 257l86 -29l-65 -340h-1100v82z" />
    <glyph glyph-name="edotaccent" unicode="&#x117;" horiz-adv-x="1107" 
d="M102 575c0 86.667 13.1641 166.332 39.4971 238.999s62.833 135.334 109.5 188.001s101.834 93.5 165.501 122.5s132.5 43.5 206.5 43.5c59.333 0 112.5 -8.83301 159.5 -26.5s87 -43.5 120 -77.5s58.667 -76.333 77 -127s28.5 -109 30.5 -175c0 -38 -0.5 -71 -1.5 -99
s-4.16699 -52.667 -9.5 -74h-742v-17c0 -6 0.333008 -11.667 1 -17c2 -80 13.5 -149.667 34.5 -209s48.5 -108.833 82.5 -148.5s73.333 -69.167 118 -88.5s92.334 -29 143.001 -29c29.333 0 59.5 3 90.5 9s60.833 14 89.5 24s55.334 21.5 80.001 34.5s45 26.833 61 41.5
l30 -68c-20 -20 -44.667 -38.833 -74 -56.5s-61.5 -33 -96.5 -46s-71.833 -23.167 -110.5 -30.5s-77 -11 -115 -11c-79.333 0 -149.5 14.667 -210.5 44s-112.167 70.5 -153.5 123.5s-72.5 116 -93.5 189s-31.5 153.5 -31.5 241.5zM846.997 676.998
c1.33301 15.333 2.49805 30.833 3.49805 46.5s1.5 31.167 1.5 46.5c0 43.333 -5.16699 83.166 -15.5 119.499s-26.5 67.5 -48.5 93.5s-49.833 46.333 -83.5 61s-74.167 22 -121.5 22c-43.333 0 -83.666 -6.83301 -120.999 -20.5s-70.166 -36 -98.499 -67
s-51.5 -71.167 -69.5 -120.5s-29.333 -109.666 -34 -180.999h587zM601.995 1379c-15.333 0 -28.833 2.83203 -40.5 8.49902s-21.5 13.5 -29.5 23.5s-14.167 21.5 -18.5 34.5s-6.5 26.833 -6.5 41.5c0 16 2.16699 31.5 6.5 46.5s11 28.5 20 40.5s20.5 21.5 34.5 28.5
s30.333 10.5 49 10.5h1c16 0 30 -3.16699 42 -9.5s22.167 -14.666 30.5 -24.999s14.5 -22 18.5 -35s6 -26.167 6 -39.5c0 -17.333 -2.33301 -33.5 -7 -48.5s-11.5 -28.167 -20.5 -39.5s-20.667 -20.333 -35 -27s-30.833 -10 -49.5 -10h-1v0z" />
    <glyph glyph-name="Eogonek" unicode="&#x118;" horiz-adv-x="1326" 
d="M106 82l176.999 15.0029v1323l-173 21v81h1004l29 -296h-85l-53 201l-575 7v-606l395 5l24 173h92v-448h-92l-24 176l-395 5v-644l654 17l101 257l86 -29l-65 -340h-33c-34 -6.66699 -68.333 -19.834 -103 -39.501s-66.167 -42.667 -94.5 -69s-51.5 -53.833 -69.5 -82.5
s-27 -55.334 -27 -80.001c0 -25.333 4.5 -46.666 13.5 -63.999s21 -31.333 36 -42s32.333 -18.334 52 -23.001s40.5 -7 62.5 -7c28 0 56.667 4.16699 86 12.5s56 19.166 80 32.499v-78c-28.667 -21.333 -63.667 -38.333 -105 -51s-83 -19 -125 -19
c-31.333 0 -61.666 3.16699 -90.999 9.5s-55.333 17 -78 32s-41 34.5 -55 58.5s-21 54 -21 90c0 28 7.83301 57.667 23.5 89s36.5 61.5 62.5 90.5s56 55.833 90 80.5s69.667 44.667 107 60h-911v82z" />
    <glyph glyph-name="eogonek" unicode="&#x119;" horiz-adv-x="1107" 
d="M474 -309c0 23.333 5.33203 48.168 15.999 74.501s25.834 52.666 45.501 78.999s43.334 51.666 71.001 75.999s58.167 46.5 91.5 66.5c-18 -3.33301 -36 -5.83301 -54 -7.5s-35.667 -2.5 -53 -2.5c-79.333 0 -149.5 14.667 -210.5 44s-112.167 70.5 -153.5 123.5
s-72.5 116 -93.5 189s-31.5 153.5 -31.5 241.5c0 86.667 13.167 166.334 39.5 239.001s62.833 135.334 109.5 188.001s101.834 93.5 165.501 122.5s132.5 43.5 206.5 43.5c59.333 0 112.5 -8.83301 159.5 -26.5s87 -43.5 120 -77.5s58.667 -76.333 77 -127
s28.5 -109 30.5 -175c0 -38 -0.5 -71 -1.5 -99s-4.16699 -52.667 -9.5 -74h-742v-17c0 -6 0.333008 -11.667 1 -17c2 -80 13.5 -149.667 34.5 -209s48.5 -108.833 82.5 -148.5s73.333 -69.167 118 -88.5s92.334 -29 143.001 -29c29.333 0 59.5 3 90.5 9s60.833 14 89.5 24
s55.334 21.5 80.001 34.5s45 26.833 61 41.5l30 -68c-30.667 -30.667 -70.334 -57.667 -119.001 -81c-84.667 -63.333 -147.334 -119 -188.001 -167s-61 -93 -61 -135c0 -26.667 5 -49.167 15 -67.5s23.5 -33.333 40.5 -45s36.333 -20 58 -25s44.167 -7.5 67.5 -7.5
c26.667 0 53.834 3.66699 81.501 11s52.167 17 73.5 29v-77c-27.333 -20.667 -60.333 -36.667 -99 -48s-78.334 -17 -119.001 -17c-32.667 0 -64.834 3.5 -96.501 10.5s-59.834 18.333 -84.501 34s-44.5 36.167 -59.5 61.5s-22.5 56.666 -22.5 93.999zM846.999 677.002
c1.33301 15.333 2.49805 30.833 3.49805 46.5s1.5 31.167 1.5 46.5c0 43.333 -5.16699 83.166 -15.5 119.499s-26.5 67.5 -48.5 93.5s-49.833 46.333 -83.5 61s-74.167 22 -121.5 22c-43.333 0 -83.666 -6.83301 -120.999 -20.5s-70.166 -36 -98.499 -67
s-51.5 -71.167 -69.5 -120.5s-29.333 -109.666 -34 -180.999h587z" />
    <glyph glyph-name="Ecaron" unicode="&#x11a;" horiz-adv-x="1326" 
d="M380 1972l68 38l250 -210l256 210l61 -36l-244 -275h-144zM106 82l177 15v1323l-173 21v81h1004l29 -296h-85l-53 201l-575 7v-606l395 5l24 173h92v-448h-92l-24 176l-395 5v-644l654 17l101 257l86 -29l-65 -340h-1100v82z" />
    <glyph glyph-name="ecaron" unicode="&#x11b;" horiz-adv-x="1107" 
d="M255 1759l66 37l285 -322l290 322l59 -36l-277 -401h-144zM102 575c0 86.667 13.1641 166.332 39.4971 238.999s62.833 135.334 109.5 188.001s101.834 93.5 165.501 122.5s132.5 43.5 206.5 43.5c59.333 0 112.5 -8.83301 159.5 -26.5s87 -43.5 120 -77.5
s58.667 -76.333 77 -127s28.5 -109 30.5 -175c0 -38 -0.5 -71 -1.5 -99s-4.16699 -52.667 -9.5 -74h-742v-17c0 -6 0.333008 -11.667 1 -17c2 -80 13.5 -149.667 34.5 -209s48.5 -108.833 82.5 -148.5s73.333 -69.167 118 -88.5s92.334 -29 143.001 -29
c29.333 0 59.5 3 90.5 9s60.833 14 89.5 24s55.334 21.5 80.001 34.5s45 26.833 61 41.5l30 -68c-20 -20 -44.667 -38.833 -74 -56.5s-61.5 -33 -96.5 -46s-71.833 -23.167 -110.5 -30.5s-77 -11 -115 -11c-79.333 0 -149.5 14.667 -210.5 44s-112.167 70.5 -153.5 123.5
s-72.5 116 -93.5 189s-31.5 153.5 -31.5 241.5zM846.997 676.998c1.33301 15.333 2.49805 30.833 3.49805 46.5s1.5 31.167 1.5 46.5c0 43.333 -5.16699 83.166 -15.5 119.499s-26.5 67.5 -48.5 93.5s-49.833 46.333 -83.5 61s-74.167 22 -121.5 22
c-43.333 0 -83.666 -6.83301 -120.999 -20.5s-70.166 -36 -98.499 -67s-51.5 -71.167 -69.5 -120.5s-29.333 -109.666 -34 -180.999h587z" />
    <glyph glyph-name="Gcircumflex" unicode="&#x11c;" horiz-adv-x="1507" 
d="M101 734c0 82.667 9.3252 160.002 27.9922 232.002s44.834 137.667 78.501 197s73.834 112.333 120.501 159s98.334 86 155.001 118s117.167 56.333 181.5 73s130.833 25 199.5 25c52.667 0 102.834 -2.5 150.501 -7.5s91.334 -11 131.001 -18s74.667 -14.167 105 -21.5
l71.5 -17l-15 -335h-91l-41 237c-8 5.33301 -20.5 12 -37.5 20s-39 15.833 -66 23.5s-59.167 14.167 -96.5 19.5s-80.666 8 -129.999 8c-81.333 0 -157 -14.167 -227 -42.5s-130.833 -70.333 -182.5 -126s-92.334 -124.834 -122.001 -207.501s-44.5 -178.334 -44.5 -287.001
c0 -60.667 4.83301 -120.5 14.5 -179.5s24.334 -115 44.001 -168s44.5 -102 74.5 -147s65.167 -83.833 105.5 -116.5s85.833 -58.167 136.5 -76.5s107 -27.5 169 -27.5c38.667 0 76.334 2.5 113.001 7.5s71.167 12 103.5 21s62 19.333 89 31s50.167 24.5 69.5 38.5v478
l-300 18v102h578v-102l-130 -20v-561c-27.333 -1.33301 -57.666 -7.5 -90.999 -18.5l-114.5 -36c-43 -13 -91.5 -24.667 -145.5 -35s-115.333 -15.5 -184 -15.5c-110 0 -208.333 19.167 -295 57.5s-160 91.333 -220 159s-105.833 147.667 -137.5 240
s-47.5 192.5 -47.5 300.5zM476.992 1718l259 296h144l262 -294l-68 -39l-265 223l-270 -223z" />
    <glyph glyph-name="gcircumflex" unicode="&#x11d;" horiz-adv-x="1236" 
d="M240 1373l284 401h145l275 -400l-66 -37l-282 322l-296 -322zM97 -225c0 34 4.83398 66.1602 14.501 96.4932s22.334 58 38.001 83s33.5 47.167 53.5 66.5s40.333 35.333 61 48c-22 17.333 -39 38.333 -51 63s-18 53.334 -18 86.001c0 51.333 12.167 97.5 36.5 138.5
s57.5 76.5 99.5 106.5c-57.333 30 -103 71.667 -137 125s-51 116.333 -51 189c0 62.667 13.167 118.334 39.5 167.001s60.833 89.5 103.5 122.5s90.834 58.167 144.501 75.5s107.834 26 162.501 26h1c57.333 0 111.5 -6.83301 162.5 -20.5s95.833 -34.834 134.5 -63.501
c8 6.66699 19.333 14.334 34 23.001s32 16.834 52 24.501s42.167 14.167 66.5 19.5s49.5 8 75.5 8h76v-138h-239c19.333 -26.667 34.666 -56.667 45.999 -90s17 -71 17 -113c0 -62 -12.167 -118.167 -36.5 -168.5s-57 -93.5 -98 -129.5s-88.667 -63.667 -143 -83
s-111.833 -29 -172.5 -29h-1c-53.333 0 -102.333 6.33301 -147 19c-30 -20 -53.667 -43.167 -71 -69.5s-26 -57.5 -26 -93.5c0 -27.333 5.16699 -49.833 15.5 -67.5s25.5 -31.667 45.5 -42s44.667 -17.666 74 -21.999s63.333 -6.5 102 -6.5h270
c64 0 117.833 -6.83301 161.5 -20.5s78.667 -32.667 105 -57s45.166 -53.666 56.499 -87.999s17 -72.166 17 -113.499c0 -53.333 -13 -104.166 -39 -152.499s-63.333 -90.833 -112 -127.5s-107.667 -65.667 -177 -87s-147 -32 -233 -32h-1
c-81.333 0 -153.833 7.66699 -217.5 23s-117.334 37.333 -161.001 66s-76.834 63 -99.501 103s-34 85 -34 135zM587.001 504.993c93.333 0 163.333 24.499 210 73.499s70 121.833 70 218.5c0 96 -25 165.833 -75 209.5s-119.667 65.5 -209 65.5h-1
c-38.667 0 -75.334 -4.33301 -110.001 -13s-65.167 -23.667 -91.5 -45s-47.333 -49.666 -63 -84.999s-23.5 -79.333 -23.5 -132c0 -41.333 5.66699 -79.833 17 -115.5s29 -66.5 53 -92.5s54.333 -46.5 91 -61.5s80.334 -22.5 131.001 -22.5h1zM241.001 -187.008
c0 -41.333 7.49805 -78.499 22.498 -111.499s38 -61.167 69 -84.5s70.167 -41.333 117.5 -54s103 -19 167 -19h2c62 0 118.667 6 170 18s95.333 29.167 132 51.5s65 49.666 85 81.999s30 68.5 30 108.5c0 29.333 -2.83301 56 -8.5 80s-17.667 44.333 -36 61
s-44.666 29.5 -78.999 38.5s-79.833 13.5 -136.5 13.5h-228c-42 0 -81.167 2.66699 -117.5 8s-69.166 13.666 -98.499 24.999c-24.667 -23.333 -46 -53.166 -64 -89.499s-27 -78.833 -27 -127.5z" />
    <glyph glyph-name="Gbreve" unicode="&#x11e;" horiz-adv-x="1507" 
d="M812 1659c-52 0 -98.3291 7.50195 -138.996 22.502s-74.834 35.667 -102.501 62s-48.667 57.5 -63 93.5s-21.5 75 -21.5 117v19.5c0 6.33301 0.666992 13.166 2 20.499h84c-1.33301 -8 -1 -17.667 1 -29c2 -20 7.5 -40.833 16.5 -62.5s23 -41.334 42 -59.001
s43.333 -32.334 73 -44.001s66.167 -17.5 109.5 -17.5c42.667 0 78.5 5.83301 107.5 17.5s52.667 26.5 71 44.5s31.666 37.833 39.999 59.5s13.166 42.5 14.499 62.5c1.33301 6 2 11.333 2 16v12h81c0.666992 -7.33301 1.16699 -14 1.5 -20s0.5 -12.333 0.5 -19
c0 -42 -7.33301 -81.167 -22 -117.5s-35.834 -67.666 -63.501 -93.999s-61.167 -47 -100.5 -62s-84 -22.5 -134 -22.5zM101.004 734.002c0 82.667 9.3252 160.002 27.9922 232.002s44.834 137.667 78.501 197s73.834 112.333 120.501 159s98.334 86 155.001 118
s117.167 56.333 181.5 73s130.833 25 199.5 25c52.667 0 102.834 -2.5 150.501 -7.5s91.334 -11 131.001 -18s74.667 -14.167 105 -21.5l71.5 -17l-15 -335h-91l-41 237c-8 5.33301 -20.5 12 -37.5 20s-39 15.833 -66 23.5s-59.167 14.167 -96.5 19.5s-80.666 8 -129.999 8
c-81.333 0 -157 -14.167 -227 -42.5s-130.833 -70.333 -182.5 -126s-92.334 -124.834 -122.001 -207.501s-44.5 -178.334 -44.5 -287.001c0 -60.667 4.83301 -120.5 14.5 -179.5s24.334 -115 44.001 -168s44.5 -102 74.5 -147s65.167 -83.833 105.5 -116.5
s85.833 -58.167 136.5 -76.5s107 -27.5 169 -27.5c38.667 0 76.334 2.5 113.001 7.5s71.167 12 103.5 21s62 19.333 89 31s50.167 24.5 69.5 38.5v478l-300 18v102h578v-102l-130 -20v-561c-27.333 -1.33301 -57.666 -7.5 -90.999 -18.5l-114.5 -36
c-43 -13 -91.5 -24.667 -145.5 -35s-115.333 -15.5 -184 -15.5c-110 0 -208.333 19.167 -295 57.5s-160 91.333 -220 159s-105.833 147.667 -137.5 240s-47.5 192.5 -47.5 300.5z" />
    </font>
</defs>
</svg>
